<?xml version="1.0" encoding="UTF-8"?>
<svg width="672px" height="473px" viewBox="0 0 672 473" version="1.1" xmlns="http://www.w3.org/2000/svg" xmlns:xlink="http://www.w3.org/1999/xlink">
    <!-- Generator: Sketch 62 (91390) - https://sketch.com -->
    <title>Group</title>
    <desc>Created with Sketch.</desc>
    <defs>
        <polygon id="path-1" points="-5.68434189e-14 -1.13686838e-13 670.930216 -1.13686838e-13 670.930216 492 -5.68434189e-14 492"></polygon>
        <polygon id="path-3" points="0.0714434783 0.749314286 25.9294609 0.749314286 25.9294609 46.4185429 0.0714434783 46.4185429"></polygon>
        <polygon id="path-5" points="0.0714434783 0.749314286 25.9294609 0.749314286 25.9294609 46.4185429 0.0714434783 46.4185429"></polygon>
    </defs>
    <g id="Page-1" stroke="none" stroke-width="1" fill="none" fill-rule="evenodd">
        <g id="Group" transform="translate(-1.000000, -19.000000)">
            <g id="Group-13" transform="translate(1.000000, 0.000000)">
                <mask id="mask-2" fill="white">
                    <use xlink:href="#path-1"></use>
                </mask>
                <g id="Clip-7"></g>
                <path d="M570.649708,44.9931723 C569.500956,30.4479511 557.347804,19 542.513336,19 C532.711368,19 524.078282,23.9996681 519.014916,31.5850936 C509.749748,31.5904638 501.527314,36.061166 496.382086,42.9618894 C484.28664,44.7380872 475,55.1589851 475,67.7534766 C475,81.5938574 486.216436,92.814917 500.051114,92.814917 L560.164662,92.814917 C574.000682,92.814917 585.215776,81.5938574 585.215776,67.7534766 C585.215776,57.6588191 579.24656,48.9644447 570.649708,44.9931723" id="Fill-6" fill="#FFFFFE" mask="url(#mask-2)"></path>
                <polyline id="Fill-8" fill="#666666" mask="url(#mask-2)" points="754.446902 280.150477 754.446902 287.282119 749.833106 287.282119 749.833106 272.179738 746.898152 272.179738 746.898152 287.282119 744.204758 287.282119 744.204758 311.053366 725.023552 311.053366 725.023552 342.236849 718.093464 342.236849 718.093464 288.540091 713.800406 288.540091 713.800406 285.603928 691.057532 282.667764 691.057532 288.540091 688.276908 288.540091 688.276908 331.453462 679.91088 331.453462 679.91088 245.017202 677.044368 245.017202 677.044368 252.67244 672.615768 252.67244 663.62571 218.9032 662.019336 218.9032 662.019336 204.639915 658.034938 204.639915 658.034938 218.9032 656.427222 218.9032 647.438506 252.67244 643.009906 252.67244 643.009906 245.017202 640.143394 245.017202 640.143394 303.642472 636.964196 303.642472 636.964196 280.150477 613.48188 280.150477 613.48188 321.699813 605.69828 321.699813 605.69828 286.443023 594.542234 286.443023 594.542234 333.531734 585.455552 333.531734 585.455552 304.552723 566.515906 304.552723 566.515906 258.336672 563.05623 258.336672 563.05623 252.67244 546.493266 252.67244 546.493266 258.336672 543.03359 258.336672 543.03359 300.286089 518.224036 300.286089 518.224036 390.696306 543.03359 390.696306 543.03359 390.727185 636.964196 390.727185 636.964196 390.696306 640.143394 390.696306 640.143394 390.727185 679.91088 390.727185 679.91088 390.696306 688.276908 390.696306 688.276908 390.727185 718.093464 390.727185 718.093464 390.696306 725.023552 390.696306 725.023552 390.727185 764.231424 390.727185 764.231424 280.150477 754.446902 280.150477"></polyline>
                <polyline id="Fill-9" fill="#666666" mask="url(#mask-2)" points="149.348496 267.98426 149.348496 300.994957 143.478588 300.994957 143.478588 285.603928 131.736088 285.603928 131.736088 330.630477 121.32351 330.630477 121.32351 261.334594 106.926534 261.334594 106.926534 251.135217 97.841194 251.135217 97.841194 261.334594 95.185376 261.334594 95.185376 277.633189 78.901548 277.633189 78.901548 312.03343 73.030298 312.03343 73.030298 270.278683 67.16039 270.278683 67.16039 266.7961 48.219402 266.7961 48.219402 270.278683 37.806824 270.278683 37.806824 338.164885 28.371222 338.164885 28.371222 292.73557 14.324508 279.224115 14.324508 256.518855 13.485758 256.518855 13.485758 245.751579 10.375002 245.751579 10.375002 256.518855 6.880434 256.518855 6.880434 237.8332 10.375002 237.8332 10.375002 233.74244 6.880434 233.74244 6.880434 229.150909 4.608428 229.150909 1.60369 210.512243 -0.981002 210.512243 -3.98574 229.150909 -6.257746 229.150909 -6.257746 233.74244 -9.752314 233.74244 -9.752314 237.8332 -6.257746 237.8332 -6.257746 256.518855 -9.752314 256.518855 -9.752314 245.751579 -12.86307 245.751579 -12.86307 256.518855 -13.70182 256.518855 -13.70182 279.224115 -27.748534 292.73557 -27.748534 306.578636 -31.312886 306.578636 -31.312886 285.603928 -33.689568 285.603928 -33.689568 277.633189 -42.705124 281.267481 -42.705124 276.165779 -44.382624 276.165779 -44.382624 281.944128 -47.737624 283.297421 -47.737624 285.603928 -50.252532 285.603928 -50.252532 320.841921 -57.45102 320.841921 -57.45102 277.633189 -73.525496 277.633189 -73.525496 390.727185 168.288142 390.727185 168.288142 267.98426 149.348496 267.98426"></polyline>
                <polygon id="Fill-10" fill="#413E38" mask="url(#mask-2)" points="0 492 670.930216 492 670.930216 414.428619 0 414.428619"></polygon>
                <polygon id="Fill-11" fill="#4D4C49" mask="url(#mask-2)" points="0 414.428619 670.930216 414.428619 670.930216 399.522251 0 399.522251"></polygon>
                <polygon id="Fill-12" fill="#A3A3A0" mask="url(#mask-2)" points="0 399.522251 670.930216 399.522251 670.930216 390.727185 0 390.727185"></polygon>
            </g>
            <path d="M175.87495,123.790598 L174.478327,123.790598 C171.063167,120.346641 166.327782,118.212245 161.091114,118.212245 C158.257657,118.212245 155.572977,118.840245 153.161724,119.959665 C151.389808,111.397977 143.800861,104.962652 134.706724,104.962652 C129.291793,104.962652 124.414333,107.247018 120.976387,110.899862 C116.620316,103.76423 108.756602,99 99.7777334,99 C86.0728626,99 74.9642103,110.099129 74.9642103,123.790598 C74.9642103,123.791937 74.9642103,123.793276 74.9642103,123.794615 C63.9239149,123.881651 55,132.846384 55,143.895969 C55,154.999114 64.0110363,164 75.1250499,164 L175.87495,164 C186.988964,164 196,154.999114 196,143.895969 C196,132.791484 186.988964,123.790598 175.87495,123.790598" id="Fill-5" fill="#FFFFFE"></path>
            <polygon id="Fill-126" fill="#BD8E5E" points="12 437 14 437 14 426 12 426"></polygon>
            <polygon id="Fill-14" fill="#BD8E5E" points="669 437 671 437 671 426 669 426"></polygon>
            <polygon id="Fill-15" fill="#BD8E5E" points="663 437 665 437 665 426 663 426"></polygon>
            <polygon id="Fill-127" fill="#BD8E5E" points="5.54267 437.374918 8.198488 437.374918 8.198488 425.755115 5.54267 425.755115"></polygon>
            <polygon id="Fill-129" fill="#BD8E5E" points="1 437.374918 2.327238 437.374918 2.327238 425.755115 1 425.755115"></polygon>
            <polygon id="Fill-16" fill="#BD8E5E" points="658 437 660 437 660 426 658 426"></polygon>
            <polygon id="Fill-17" fill="#BD8E5E" points="652 437 654 437 654 426 652 426"></polygon>
            <polygon id="Fill-18" fill="#BD8E5E" points="645 437 647 437 647 426 645 426"></polygon>
            <polygon id="Fill-19" fill="#BD8E5E" points="640 437 642 437 642 426 640 426"></polygon>
            <polygon id="Fill-20" fill="#BD8E5E" points="634 437 636 437 636 426 634 426"></polygon>
            <polygon id="Fill-21" fill="#BD8E5E" points="628 437 630 437 630 426 628 426"></polygon>
            <polygon id="Fill-22" fill="#BD8E5E" points="623 437 625 437 625 426 623 426"></polygon>
            <polygon id="Fill-23" fill="#BD8E5E" points="616 437 618 437 618 426 616 426"></polygon>
            <polygon id="Fill-24" fill="#BD8E5E" points="611 437 613 437 613 426 611 426"></polygon>
            <polygon id="Fill-25" fill="#BD8E5E" points="605 437 607 437 607 426 605 426"></polygon>
            <polygon id="Fill-26" fill="#BD8E5E" points="599 437 601 437 601 426 599 426"></polygon>
            <polygon id="Fill-27" fill="#BD8E5E" points="593 437 595 437 595 426 593 426"></polygon>
            <polygon id="Fill-28" fill="#BD8E5E" points="587 437 589 437 589 426 587 426"></polygon>
            <polygon id="Fill-29" fill="#BD8E5E" points="581 437 583 437 583 426 581 426"></polygon>
            <polygon id="Fill-30" fill="#BD8E5E" points="576 437 578 437 578 426 576 426"></polygon>
            <polygon id="Fill-31" fill="#BD8E5E" points="569 437 571 437 571 426 569 426"></polygon>
            <polygon id="Fill-32" fill="#BD8E5E" points="563 437 565 437 565 426 563 426"></polygon>
            <polygon id="Fill-33" fill="#BD8E5E" points="558 437 560 437 560 426 558 426"></polygon>
            <polygon id="Fill-34" fill="#BD8E5E" points="552 437 554 437 554 426 552 426"></polygon>
            <polygon id="Fill-35" fill="#BD8E5E" points="546 437 548 437 548 426 546 426"></polygon>
            <polygon id="Fill-36" fill="#BD8E5E" points="540 437 542 437 542 426 540 426"></polygon>
            <polygon id="Fill-37" fill="#BD8E5E" points="534 437 536 437 536 426 534 426"></polygon>
            <polygon id="Fill-38" fill="#BD8E5E" points="529 437 531 437 531 426 529 426"></polygon>
            <polygon id="Fill-39" fill="#BD8E5E" points="522 437 524 437 524 426 522 426"></polygon>
            <polygon id="Fill-40" fill="#BD8E5E" points="516 437 518 437 518 426 516 426"></polygon>
            <polygon id="Fill-41" fill="#BD8E5E" points="511 437 513 437 513 426 511 426"></polygon>
            <polygon id="Fill-42" fill="#BD8E5E" points="505 437 507 437 507 426 505 426"></polygon>
            <polygon id="Fill-43" fill="#BD8E5E" points="498 437 500 437 500 426 498 426"></polygon>
            <polygon id="Fill-44" fill="#BD8E5E" points="493 437 495 437 495 426 493 426"></polygon>
            <polygon id="Fill-45" fill="#BD8E5E" points="487 437 489 437 489 426 487 426"></polygon>
            <polygon id="Fill-46" fill="#BD8E5E" points="482 437 484 437 484 426 482 426"></polygon>
            <polygon id="Fill-47" fill="#BD8E5E" points="475 437 477 437 477 426 475 426"></polygon>
            <polygon id="Fill-48" fill="#BD8E5E" points="469 437 471 437 471 426 469 426"></polygon>
            <polygon id="Fill-49" fill="#BD8E5E" points="464 437 466 437 466 426 464 426"></polygon>
            <polygon id="Fill-50" fill="#BD8E5E" points="458 437 460 437 460 426 458 426"></polygon>
            <polygon id="Fill-51" fill="#BD8E5E" points="453 437 455 437 455 426 453 426"></polygon>
            <polygon id="Fill-52" fill="#BD8E5E" points="446 437 448 437 448 426 446 426"></polygon>
            <polygon id="Fill-53" fill="#BD8E5E" points="440 437 442 437 442 426 440 426"></polygon>
            <polygon id="Fill-54" fill="#BD8E5E" points="435 437 437 437 437 426 435 426"></polygon>
            <polygon id="Fill-55" fill="#BD8E5E" points="429 437 431 437 431 426 429 426"></polygon>
            <polygon id="Fill-56" fill="#BD8E5E" points="422 437 424 437 424 426 422 426"></polygon>
            <polygon id="Fill-57" fill="#BD8E5E" points="417 437 419 437 419 426 417 426"></polygon>
            <polygon id="Fill-58" fill="#BD8E5E" points="411 437 413 437 413 426 411 426"></polygon>
            <polygon id="Fill-59" fill="#BD8E5E" points="406 437 408 437 408 426 406 426"></polygon>
            <polygon id="Fill-60" fill="#BD8E5E" points="399 437 401 437 401 426 399 426"></polygon>
            <polygon id="Fill-61" fill="#BD8E5E" points="393 437 395 437 395 426 393 426"></polygon>
            <polygon id="Fill-62" fill="#BD8E5E" points="388 437 390 437 390 426 388 426"></polygon>
            <polygon id="Fill-63" fill="#BD8E5E" points="382 437 384 437 384 426 382 426"></polygon>
            <polygon id="Fill-64" fill="#BD8E5E" points="375 437 377 437 377 426 375 426"></polygon>
            <polygon id="Fill-65" fill="#BD8E5E" points="370 437 372 437 372 426 370 426"></polygon>
            <polygon id="Fill-66" fill="#BD8E5E" points="364 437 366 437 366 426 364 426"></polygon>
            <polygon id="Fill-67" fill="#BD8E5E" points="358 437 360 437 360 426 358 426"></polygon>
            <polygon id="Fill-68" fill="#BD8E5E" points="352 437 354 437 354 426 352 426"></polygon>
            <polygon id="Fill-69" fill="#BD8E5E" points="346 437 348 437 348 426 346 426"></polygon>
            <polygon id="Fill-70" fill="#BD8E5E" points="341 437 343 437 343 426 341 426"></polygon>
            <polygon id="Fill-71" fill="#BD8E5E" points="335 437 337 437 337 426 335 426"></polygon>
            <polygon id="Fill-72" fill="#BD8E5E" points="328 437 330 437 330 426 328 426"></polygon>
            <polygon id="Fill-73" fill="#BD8E5E" points="323 437 325 437 325 426 323 426"></polygon>
            <polygon id="Fill-74" fill="#BD8E5E" points="317 437 319 437 319 426 317 426"></polygon>
            <polygon id="Fill-75" fill="#BD8E5E" points="311 437 313 437 313 426 311 426"></polygon>
            <polygon id="Fill-76" fill="#BD8E5E" points="306 437 308 437 308 426 306 426"></polygon>
            <polygon id="Fill-77" fill="#BD8E5E" points="299 437 301 437 301 426 299 426"></polygon>
            <polygon id="Fill-78" fill="#BD8E5E" points="293 437 295 437 295 426 293 426"></polygon>
            <polygon id="Fill-79" fill="#BD8E5E" points="288 437 290 437 290 426 288 426"></polygon>
            <polygon id="Fill-80" fill="#BD8E5E" points="282 437 284 437 284 426 282 426"></polygon>
            <polygon id="Fill-81" fill="#BD8E5E" points="276 437 278 437 278 426 276 426"></polygon>
            <polygon id="Fill-82" fill="#BD8E5E" points="270 437 272 437 272 426 270 426"></polygon>
            <polygon id="Fill-83" fill="#BD8E5E" points="264 437 266 437 266 426 264 426"></polygon>
            <polygon id="Fill-84" fill="#BD8E5E" points="259 437 261 437 261 426 259 426"></polygon>
            <polygon id="Fill-85" fill="#BD8E5E" points="252 437 254 437 254 426 252 426"></polygon>
            <polygon id="Fill-86" fill="#BD8E5E" points="246 437 248 437 248 426 246 426"></polygon>
            <polygon id="Fill-87" fill="#BD8E5E" points="241 437 243 437 243 426 241 426"></polygon>
            <polygon id="Fill-88" fill="#BD8E5E" points="235 437 237 437 237 426 235 426"></polygon>
            <polygon id="Fill-89" fill="#BD8E5E" points="229 437 231 437 231 426 229 426"></polygon>
            <polygon id="Fill-90" fill="#BD8E5E" points="223 437 225 437 225 426 223 426"></polygon>
            <polygon id="Fill-91" fill="#BD8E5E" points="217 437 219 437 219 426 217 426"></polygon>
            <polygon id="Fill-92" fill="#BD8E5E" points="212 437 214 437 214 426 212 426"></polygon>
            <polygon id="Fill-93" fill="#BD8E5E" points="205 437 207 437 207 426 205 426"></polygon>
            <polygon id="Fill-94" fill="#BD8E5E" points="199 437 201 437 201 426 199 426"></polygon>
            <polygon id="Fill-95" fill="#BD8E5E" points="194 437 196 437 196 426 194 426"></polygon>
            <polygon id="Fill-96" fill="#BD8E5E" points="188 437 190 437 190 426 188 426"></polygon>
            <polygon id="Fill-97" fill="#BD8E5E" points="181 437 183 437 183 426 181 426"></polygon>
            <polygon id="Fill-98" fill="#BD8E5E" points="176 437 178 437 178 426 176 426"></polygon>
            <polygon id="Fill-99" fill="#BD8E5E" points="170 437 172 437 172 426 170 426"></polygon>
            <polygon id="Fill-100" fill="#BD8E5E" points="165 437 167 437 167 426 165 426"></polygon>
            <polygon id="Fill-101" fill="#BD8E5E" points="158 437 160 437 160 426 158 426"></polygon>
            <polygon id="Fill-102" fill="#BD8E5E" points="152 437 154 437 154 426 152 426"></polygon>
            <polygon id="Fill-103" fill="#BD8E5E" points="147 437 149 437 149 426 147 426"></polygon>
            <polygon id="Fill-104" fill="#BD8E5E" points="141 437 143 437 143 426 141 426"></polygon>
            <polygon id="Fill-105" fill="#BD8E5E" points="136 437 138 437 138 426 136 426"></polygon>
            <polygon id="Fill-106" fill="#BD8E5E" points="129 437 131 437 131 426 129 426"></polygon>
            <polygon id="Fill-107" fill="#BD8E5E" points="123 437 125 437 125 426 123 426"></polygon>
            <polygon id="Fill-108" fill="#BD8E5E" points="118 437 120 437 120 426 118 426"></polygon>
            <polygon id="Fill-109" fill="#BD8E5E" points="112 437 114 437 114 426 112 426"></polygon>
            <polygon id="Fill-110" fill="#BD8E5E" points="105 437 107 437 107 426 105 426"></polygon>
            <polygon id="Fill-111" fill="#BD8E5E" points="100 437 102 437 102 426 100 426"></polygon>
            <polygon id="Fill-112" fill="#BD8E5E" points="94 437 96 437 96 426 94 426"></polygon>
            <polygon id="Fill-113" fill="#BD8E5E" points="88 437 90 437 90 426 88 426"></polygon>
            <polygon id="Fill-114" fill="#BD8E5E" points="82 437 84 437 84 426 82 426"></polygon>
            <polygon id="Fill-115" fill="#BD8E5E" points="76 437 78 437 78 426 76 426"></polygon>
            <polygon id="Fill-116" fill="#BD8E5E" points="71 437 73 437 73 426 71 426"></polygon>
            <polygon id="Fill-117" fill="#BD8E5E" points="65 437 67 437 67 426 65 426"></polygon>
            <polygon id="Fill-118" fill="#BD8E5E" points="58 437 60 437 60 426 58 426"></polygon>
            <polygon id="Fill-119" fill="#BD8E5E" points="53 437 55 437 55 426 53 426"></polygon>
            <polygon id="Fill-120" fill="#BD8E5E" points="47 437 49 437 49 426 47 426"></polygon>
            <polygon id="Fill-121" fill="#BD8E5E" points="41 437 43 437 43 426 41 426"></polygon>
            <polygon id="Fill-122" fill="#BD8E5E" points="35 437 37 437 37 426 35 426"></polygon>
            <polygon id="Fill-123" fill="#BD8E5E" points="29 437 31 437 31 426 29 426"></polygon>
            <polygon id="Fill-124" fill="#BD8E5E" points="24 437 26 437 26 426 24 426"></polygon>
            <polygon id="Fill-125" fill="#BD8E5E" points="18 437 20 437 20 426 18 426"></polygon>
            <polygon id="Fill-130" fill="#CDCCC7" points="1 428.906066 671.930216 428.906066 671.930216 426.724328 1 426.724328"></polygon>
            <polygon id="Fill-131" fill="#CDCCC7" points="1 436.185246 671.930216 436.185246 671.930216 434.003508 1 434.003508"></polygon>
            <polygon id="Fill-145" fill="#FFF1E4" points="427 290 603 290 603 243 427 243"></polygon>
            <polygon id="Fill-146" fill="#D5B9A0" points="427 306 603 306 603 290 427 290"></polygon>
            <polygon id="Fill-147" fill="#8E5E3E" points="427 391 606 391 606 373 427 373"></polygon>
            <polygon id="Fill-148" fill="#FFF1E4" points="427 371 606 371 606 309 427 309"></polygon>
            <polygon id="Fill-149" fill="#D5884C" points="427 373 608 373 608 371 427 371"></polygon>
            <polygon id="Fill-150" fill="#A06339" points="427 309 608 309 608 307 427 307"></polygon>
            <polygon id="Fill-151" fill="#D5884C" points="426 243 605 243 605 235 426 235"></polygon>
            <polygon id="Fill-152" fill="#242524" points="578 371 591 371 591 344 578 344"></polygon>
            <polygon id="Fill-153" fill="#484849" points="578 338 591 338 591 334 578 334"></polygon>
            <polygon id="Fill-154" fill="#484849" points="579 370 590 370 590 345 579 345"></polygon>
            <polygon id="Fill-155" fill="#242524" points="579 337 590 337 590 335 579 335"></polygon>
            <polygon id="Fill-156" fill="#242524" points="551 371 564 371 564 344 551 344"></polygon>
            <polygon id="Fill-157" fill="#484849" points="551 338 564 338 564 334 551 334"></polygon>
            <polygon id="Fill-158" fill="#484849" points="552 370 563 370 563 345 552 345"></polygon>
            <polygon id="Fill-159" fill="#242524" points="552 337 563 337 563 335 552 335"></polygon>
            <polygon id="Fill-160" fill="#242524" points="524 371 537 371 537 344 524 344"></polygon>
            <polygon id="Fill-161" fill="#484849" points="524 338 537 338 537 334 524 334"></polygon>
            <polygon id="Fill-162" fill="#484849" points="525 370 536 370 536 345 525 345"></polygon>
            <polygon id="Fill-163" fill="#242524" points="525 337 536 337 536 335 525 335"></polygon>
            <polygon id="Fill-164" fill="#242524" points="497 371 510 371 510 344 497 344"></polygon>
            <polygon id="Fill-165" fill="#484849" points="497 338 510 338 510 334 497 334"></polygon>
            <polygon id="Fill-166" fill="#484849" points="498 370 509 370 509 345 498 345"></polygon>
            <polygon id="Fill-167" fill="#242524" points="498 337 509 337 509 335 498 335"></polygon>
            <polygon id="Fill-168" fill="#242524" points="469 371 482 371 482 344 469 344"></polygon>
            <polygon id="Fill-169" fill="#484849" points="469 338 482 338 482 334 469 334"></polygon>
            <polygon id="Fill-170" fill="#484849" points="470 370 481 370 481 345 470 345"></polygon>
            <polygon id="Fill-171" fill="#242524" points="470 337 481 337 481 335 470 335"></polygon>
            <polygon id="Fill-172" fill="#242524" points="443 371 456 371 456 344 443 344"></polygon>
            <polygon id="Fill-173" fill="#484849" points="443 338 456 338 456 334 443 334"></polygon>
            <polygon id="Fill-174" fill="#484849" points="444 370 455 370 455 345 444 345"></polygon>
            <polygon id="Fill-175" fill="#242524" points="444 337 455 337 455 335 444 335"></polygon>
            <polygon id="Fill-176" fill="#242524" points="439 290 475 290 475 256 439 256"></polygon>
            <polygon id="Fill-177" fill="#484849" points="441 278 450 278 450 259 441 259"></polygon>
            <polygon id="Fill-178" fill="#484849" points="452 278 461 278 461 259 452 259"></polygon>
            <polygon id="Fill-179" fill="#484849" points="465 278 474 278 474 259 465 259"></polygon>
            <polygon id="Fill-180" fill="#343534" points="441 289 450 289 450 278 441 278"></polygon>
            <polygon id="Fill-181" fill="#343534" points="452 289 461 289 461 278 452 278"></polygon>
            <polygon id="Fill-182" fill="#343534" points="465 289 474 289 474 278 465 278"></polygon>
            <polygon id="Fill-183" fill="#242524" points="492 290 528 290 528 256 492 256"></polygon>
            <polygon id="Fill-184" fill="#484849" points="494 278 503 278 503 259 494 259"></polygon>
            <polygon id="Fill-185" fill="#484849" points="505 278 514 278 514 259 505 259"></polygon>
            <polygon id="Fill-186" fill="#484849" points="517 278 526 278 526 259 517 259"></polygon>
            <polygon id="Fill-187" fill="#343534" points="494 289 503 289 503 278 494 278"></polygon>
            <polygon id="Fill-188" fill="#343534" points="505 289 514 289 514 278 505 278"></polygon>
            <polygon id="Fill-189" fill="#343534" points="517 289 526 289 526 278 517 278"></polygon>
            <polygon id="Fill-190" fill="#242524" points="544 290 580 290 580 256 544 256"></polygon>
            <polygon id="Fill-191" fill="#484849" points="547 278 556 278 556 259 547 259"></polygon>
            <polygon id="Fill-192" fill="#484849" points="558 278 567 278 567 259 558 259"></polygon>
            <polygon id="Fill-193" fill="#484849" points="569 278 578 278 578 259 569 259"></polygon>
            <polygon id="Fill-194" fill="#343534" points="547 289 556 289 556 278 547 278"></polygon>
            <polygon id="Fill-195" fill="#343534" points="558 289 567 289 567 278 558 278"></polygon>
            <polygon id="Fill-196" fill="#343534" points="569 289 578 289 578 278 569 278"></polygon>
            <polygon id="Fill-197" fill="#FFF1E4" points="68 290 244 290 244 243 68 243"></polygon>
            <polygon id="Fill-198" fill="#D5B9A0" points="68 306 244 306 244 290 68 290"></polygon>
            <polygon id="Fill-199" fill="#8E5E3E" points="65 391 244 391 244 373 65 373"></polygon>
            <polygon id="Fill-200" fill="#FFF1E4" points="65 371 244 371 244 309 65 309"></polygon>
            <polygon id="Fill-201" fill="#D5884C" points="63 373 244 373 244 371 63 371"></polygon>
            <polygon id="Fill-202" fill="#A06339" points="63 309 244 309 244 307 63 307"></polygon>
            <polygon id="Fill-203" fill="#D5884C" points="66 243 245 243 245 235 66 235"></polygon>
            <polygon id="Fill-204" fill="#242524" points="80 371 93 371 93 344 80 344"></polygon>
            <polygon id="Fill-205" fill="#484849" points="80 338 93 338 93 334 80 334"></polygon>
            <polygon id="Fill-206" fill="#484849" points="81 370 92 370 92 345 81 345"></polygon>
            <polygon id="Fill-207" fill="#242524" points="81 337 92 337 92 335 81 335"></polygon>
            <polygon id="Fill-208" fill="#242524" points="107 371 120 371 120 344 107 344"></polygon>
            <polygon id="Fill-209" fill="#484849" points="107 338 120 338 120 334 107 334"></polygon>
            <polygon id="Fill-210" fill="#484849" points="108 370 119 370 119 345 108 345"></polygon>
            <polygon id="Fill-211" fill="#242524" points="108 337 119 337 119 335 108 335"></polygon>
            <polygon id="Fill-212" fill="#242524" points="133 371 146 371 146 344 133 344"></polygon>
            <polygon id="Fill-213" fill="#484849" points="133 338 146 338 146 334 133 334"></polygon>
            <polygon id="Fill-214" fill="#484849" points="134 370 145 370 145 345 134 345"></polygon>
            <polygon id="Fill-215" fill="#242524" points="134 337 145 337 145 335 134 335"></polygon>
            <polygon id="Fill-216" fill="#242524" points="160 371 173 371 173 344 160 344"></polygon>
            <polygon id="Fill-217" fill="#484849" points="160 338 173 338 173 334 160 334"></polygon>
            <polygon id="Fill-218" fill="#484849" points="161 370 172 370 172 345 161 345"></polygon>
            <polygon id="Fill-219" fill="#242524" points="161 337 172 337 172 335 161 335"></polygon>
            <polygon id="Fill-220" fill="#242524" points="188 371 201 371 201 344 188 344"></polygon>
            <polygon id="Fill-221" fill="#484849" points="188 338 201 338 201 334 188 334"></polygon>
            <polygon id="Fill-222" fill="#484849" points="189 370 200 370 200 345 189 345"></polygon>
            <polygon id="Fill-223" fill="#242524" points="189 337 200 337 200 335 189 335"></polygon>
            <polygon id="Fill-224" fill="#242524" points="215 371 228 371 228 344 215 344"></polygon>
            <polygon id="Fill-225" fill="#484849" points="215 338 228 338 228 334 215 334"></polygon>
            <polygon id="Fill-226" fill="#484849" points="216 370 227 370 227 345 216 345"></polygon>
            <polygon id="Fill-227" fill="#242524" points="216 337 227 337 227 335 216 335"></polygon>
            <polygon id="Fill-228" fill="#242524" points="196 290 232 290 232 256 196 256"></polygon>
            <polygon id="Fill-229" fill="#484849" points="221 278 230 278 230 259 221 259"></polygon>
            <polygon id="Fill-230" fill="#484849" points="209 278 218 278 218 259 209 259"></polygon>
            <polygon id="Fill-231" fill="#484849" points="197 278 206 278 206 259 197 259"></polygon>
            <polygon id="Fill-232" fill="#343534" points="221 289 230 289 230 278 221 278"></polygon>
            <polygon id="Fill-233" fill="#343534" points="209 289 218 289 218 278 209 278"></polygon>
            <polygon id="Fill-234" fill="#343534" points="197 289 206 289 206 278 197 278"></polygon>
            <polygon id="Fill-235" fill="#242524" points="143 290 179 290 179 256 143 256"></polygon>
            <polygon id="Fill-236" fill="#484849" points="168 278 177 278 177 259 168 259"></polygon>
            <polygon id="Fill-237" fill="#484849" points="157 278 166 278 166 259 157 259"></polygon>
            <polygon id="Fill-238" fill="#484849" points="145 278 154 278 154 259 145 259"></polygon>
            <polygon id="Fill-239" fill="#343534" points="168 289 177 289 177 278 168 278"></polygon>
            <polygon id="Fill-240" fill="#343534" points="157 289 166 289 166 278 157 278"></polygon>
            <polygon id="Fill-241" fill="#343534" points="145 289 154 289 154 278 145 278"></polygon>
            <polygon id="Fill-242" fill="#242524" points="91 290 127 290 127 256 91 256"></polygon>
            <polygon id="Fill-243" fill="#484849" points="115 278 124 278 124 259 115 259"></polygon>
            <polygon id="Fill-244" fill="#484849" points="104 278 113 278 113 259 104 259"></polygon>
            <polygon id="Fill-245" fill="#484849" points="93 278 102 278 102 259 93 259"></polygon>
            <polygon id="Fill-246" fill="#343534" points="115 289 124 289 124 278 115 278"></polygon>
            <polygon id="Fill-247" fill="#343534" points="104 289 113 289 113 278 104 278"></polygon>
            <polygon id="Fill-248" fill="#343534" points="93 289 102 289 102 278 93 278"></polygon>
            <path d="M335.500668,148 L335.500668,148 C285.518761,148 245,188.532986 245,238.534085 L245,318 L426,318 L426,238.534085 C426,188.532986 385.482574,148 335.500668,148" id="Fill-249" fill="#D5884C"></path>
            <path d="M335.500672,164 L335.500672,164 C294.908081,164 262,197.013377 262,237.737513 L262,320 L409,320 L409,237.737513 C409,197.013377 376.093262,164 335.500672,164" id="Fill-250" fill="#A06339"></path>
            <path d="M335.5,168 L335.5,168 C297.1153,168 266,198.845654 266,236.894727 L266,318 L405,318 L405,236.894727 C405,198.845654 373.883353,168 335.5,168" id="Fill-251" fill="#FFF1E4"></path>
            <path d="M335.5,197 L335.5,197 C308.71437,197 287,218.795671 287,245.681588 L287,318 L384,318 L384,245.681588 C384,218.795671 362.28563,197 335.5,197" id="Fill-252" fill="#242524"></path>
            <polygon id="Fill-253" fill="#D5B9A0" points="238 327 433 327 433 319 238 319"></polygon>
            <polygon id="Fill-254" fill="#4D4C49" points="245 363 426 363 426 327 245 327"></polygon>
            <polygon id="Fill-255" fill="#787670" points="245 391 426 391 426 363 245 363"></polygon>
            <polygon id="Fill-256" fill="#D5B9A0" points="244 391 256 391 256 327 244 327"></polygon>
            <polygon id="Fill-257" fill="#A06339" points="244 391 256 391 256 370 244 370"></polygon>
            <path d="M256.742559,334 L244.257441,334 C242.459333,334 241,332.433087 241,330.4993 C241,328.566913 242.459333,327 244.257441,327 L256.742559,327 C258.54197,327 260,328.566913 260,330.4993 C260,332.433087 258.54197,334 256.742559,334" id="Fill-258" fill="#D5884C"></path>
            <path d="M258.592786,370 L242.408517,370 C241.630641,370 241,369.328089 241,368.500694 C241,367.671911 241.630641,367 242.408517,367 L258.592786,367 C259.369359,367 260,367.671911 260,368.500694 C260,369.328089 259.369359,370 258.592786,370" id="Fill-259" fill="#D5884C"></path>
            <path d="M256.742559,391 L244.257441,391 C242.459333,391 241,389.4334 241,387.5 C241,385.5666 242.459333,384 244.257441,384 L256.742559,384 C258.54197,384 260,385.5666 260,387.5 C260,389.4334 258.54197,391 256.742559,391" id="Fill-260" fill="#D5884C"></path>
            <polygon id="Fill-261" fill="#D5B9A0" points="415 391 427 391 427 327 415 327"></polygon>
            <polygon id="Fill-262" fill="#A06339" points="415 391 427 391 427 370 415 370"></polygon>
            <path d="M426.742559,334 L414.257441,334 C412.45803,334 411,332.433087 411,330.4993 C411,328.566913 412.45803,327 414.257441,327 L426.742559,327 C428.54197,327 430,328.566913 430,330.4993 C430,332.433087 428.54197,334 426.742559,334" id="Fill-263" fill="#D5884C"></path>
            <path d="M428.591483,370 L412.408517,370 C411.630641,370 411,369.328089 411,368.500694 C411,367.671911 411.630641,367 412.408517,367 L428.591483,367 C429.369359,367 430,367.671911 430,368.500694 C430,369.328089 429.369359,370 428.591483,370" id="Fill-264" fill="#D5884C"></path>
            <path d="M426.742559,391 L414.257441,391 C412.45803,391 411,389.4334 411,387.5 C411,385.5666 412.45803,384 414.257441,384 L426.742559,384 C428.54197,384 430,385.5666 430,387.5 C430,389.4334 428.54197,391 426.742559,391" id="Fill-265" fill="#D5884C"></path>
            <polygon id="Fill-266" fill="#D5B9A0" points="329 391 341 391 341 327 329 327"></polygon>
            <polygon id="Fill-267" fill="#A06339" points="329 391 341 391 341 370 329 370"></polygon>
            <path d="M341.742559,334 L329.256138,334 C327.45803,334 326,332.433087 326,330.4993 C326,328.566913 327.45803,327 329.256138,327 L341.742559,327 C343.540667,327 345,328.566913 345,330.4993 C345,332.433087 343.540667,334 341.742559,334" id="Fill-268" fill="#D5884C"></path>
            <path d="M343.591483,370 L327.407214,370 C326.630641,370 326,369.328089 326,368.500694 C326,367.671911 326.630641,367 327.407214,367 L343.591483,367 C344.369359,367 345,367.671911 345,368.500694 C345,369.328089 344.369359,370 343.591483,370" id="Fill-269" fill="#D5884C"></path>
            <path d="M341.742559,391 L329.256138,391 C327.45803,391 326,389.4334 326,387.5 C326,385.5666 327.45803,384 329.256138,384 L341.742559,384 C343.540667,384 345,385.5666 345,387.5 C345,389.4334 343.540667,391 341.742559,391" id="Fill-270" fill="#D5884C"></path>
            <polygon id="Fill-271" fill="#D5B9A0" points="287 391 299 391 299 327 287 327"></polygon>
            <polygon id="Fill-272" fill="#A06339" points="287 391 299 391 299 370 287 370"></polygon>
            <path d="M298.743639,334 L286.256361,334 C284.45813,334 283,332.433087 283,330.4993 C283,328.566913 284.45813,327 286.256361,327 L298.743639,327 C300.54187,327 302,328.566913 302,330.4993 C302,332.433087 300.54187,334 298.743639,334" id="Fill-273" fill="#D5884C"></path>
            <path d="M300.592689,370 L284.407311,370 C283.629381,370 283,369.328089 283,368.500694 C283,367.671911 283.629381,367 284.407311,367 L300.592689,367 C301.370619,367 302,367.671911 302,368.500694 C302,369.328089 301.370619,370 300.592689,370" id="Fill-274" fill="#D5884C"></path>
            <path d="M298.743639,391 L286.256361,391 C284.45813,391 283,389.4334 283,387.5 C283,385.5666 284.45813,384 286.256361,384 L298.743639,384 C300.54187,384 302,385.5666 302,387.5 C302,389.4334 300.54187,391 298.743639,391" id="Fill-275" fill="#D5884C"></path>
            <polygon id="Fill-276" fill="#D5B9A0" points="372 391 384 391 384 327 372 327"></polygon>
            <polygon id="Fill-277" fill="#A06339" points="372 391 384 391 384 370 372 370"></polygon>
            <path d="M383.742559,334 L371.257441,334 C369.45803,334 368,332.433087 368,330.4993 C368,328.566913 369.45803,327 371.257441,327 L383.742559,327 C385.54197,327 387,328.566913 387,330.4993 C387,332.433087 385.54197,334 383.742559,334" id="Fill-278" fill="#D5884C"></path>
            <path d="M385.591483,370 L369.408517,370 C368.630641,370 368,369.328089 368,368.500694 C368,367.671911 368.630641,367 369.408517,367 L385.591483,367 C386.369359,367 387,367.671911 387,368.500694 C387,369.328089 386.369359,370 385.591483,370" id="Fill-279" fill="#D5884C"></path>
            <path d="M383.742559,391 L371.257441,391 C369.45803,391 368,389.4334 368,387.5 C368,385.5666 369.45803,384 371.257441,384 L383.742559,384 C385.54197,384 387,385.5666 387,387.5 C387,389.4334 385.54197,391 383.742559,391" id="Fill-280" fill="#D5884C"></path>
            <polygon id="Fill-281" fill="#484849" points="292 319 302 319 302 301 292 301"></polygon>
            <polygon id="Fill-282" fill="#484849" points="304 319 315 319 315 301 304 301"></polygon>
            <polygon id="Fill-283" fill="#484849" points="317 319 328 319 328 301 317 301"></polygon>
            <polygon id="Fill-284" fill="#484849" points="330 319 341 319 341 301 330 301"></polygon>
            <polygon id="Fill-285" fill="#484849" points="343 319 354 319 354 301 343 301"></polygon>
            <polygon id="Fill-286" fill="#484849" points="368 319 378 319 378 301 368 301"></polygon>
            <polygon id="Fill-287" fill="#484849" points="356 319 367 319 367 301 356 301"></polygon>
            <polygon id="Fill-288" fill="#484849" points="292 299 302 299 302 281 292 281"></polygon>
            <polygon id="Fill-289" fill="#484849" points="304 299 315 299 315 281 304 281"></polygon>
            <polygon id="Fill-290" fill="#484849" points="317 299 328 299 328 281 317 281"></polygon>
            <polygon id="Fill-291" fill="#484849" points="330 299 341 299 341 281 330 281"></polygon>
            <polygon id="Fill-292" fill="#484849" points="343 299 354 299 354 281 343 281"></polygon>
            <polygon id="Fill-293" fill="#484849" points="356 299 367 299 367 281 356 281"></polygon>
            <polygon id="Fill-294" fill="#484849" points="368 299 378 299 378 281 368 281"></polygon>
            <polygon id="Fill-295" fill="#484849" points="292 279 302 279 302 261 292 261"></polygon>
            <polygon id="Fill-296" fill="#484849" points="304 279 315 279 315 261 304 261"></polygon>
            <polygon id="Fill-297" fill="#484849" points="317 279 328 279 328 261 317 261"></polygon>
            <polygon id="Fill-298" fill="#484849" points="330 279 341 279 341 261 330 261"></polygon>
            <polygon id="Fill-299" fill="#484849" points="343 279 354 279 354 261 343 261"></polygon>
            <polygon id="Fill-300" fill="#484849" points="356 279 367 279 367 261 356 261"></polygon>
            <polygon id="Fill-301" fill="#484849" points="368 279 378 279 378 261 368 261"></polygon>
            <path d="M302,241 L292.229773,241 C292.077984,242.449456 292,243.920525 292,245.407805 L292,259 L302,259 L302,241" id="Fill-302" fill="#484849"></path>
            <polygon id="Fill-303" fill="#484849" points="304 259 315 259 315 241 304 241"></polygon>
            <polygon id="Fill-304" fill="#484849" points="317 259 328 259 328 241 317 241"></polygon>
            <polygon id="Fill-305" fill="#484849" points="330 259 341 259 341 241 330 241"></polygon>
            <polygon id="Fill-306" fill="#484849" points="343 259 354 259 354 241 343 241"></polygon>
            <polygon id="Fill-307" fill="#484849" points="356 259 367 259 367 241 356 241"></polygon>
            <path d="M377.771588,241 L368,241 L368,259 L378,259 L378,245.407805 C378,243.920525 377.922006,242.449456 377.771588,241" id="Fill-308" fill="#484849"></path>
            <path d="M302,219 C297.324846,224.911623 294.129939,232.110617 293,240 L302,240 L302,219" id="Fill-309" fill="#484849"></path>
            <path d="M315,209 C310.884363,211.195262 307.167315,214.024711 304,217.371002 L304,240 L315,240 L315,209" id="Fill-310" fill="#484849"></path>
            <path d="M328,204 C324.130472,204.681696 320.438838,205.880357 317,207.525 L317,240 L328,240 L328,204" id="Fill-311" fill="#484849"></path>
            <path d="M341,203.360982 C339.198322,203.128439 337.363205,203 335.5,203 C333.63412,203 331.801678,203.133847 330,203.369094 L330,240 L341,240 L341,203.360982" id="Fill-312" fill="#484849"></path>
            <path d="M354,207.518173 C350.559825,205.877609 346.869528,204.676314 343,204 L343,240 L354,240 L354,207.518173" id="Fill-313" fill="#484849"></path>
            <path d="M368,240 L377,240 C375.871213,232.107046 372.671886,224.911924 368,219 L368,240" id="Fill-314" fill="#484849"></path>
            <path d="M367,217.397151 C363.829624,214.048044 360.122826,211.195833 356,209 L356,240 L367,240 L367,217.397151" id="Fill-315" fill="#484849"></path>
            <polygon id="Fill-316" fill="#AEB6D1" points="307 319 362 319 362 307 307 307"></polygon>
            <path d="M319.833496,316 C320.090983,316 320.329671,315.977214 320.549561,315.931641 C320.76945,315.886068 320.960286,315.801758 321.12207,315.678711 C321.265625,315.571615 321.385254,315.439453 321.480957,315.282227 C321.631348,315.045247 321.706543,314.777507 321.706543,314.479004 C321.706543,314.189616 321.641032,313.943522 321.51001,313.740723 C321.378988,313.537923 321.184733,313.389811 320.927246,313.296387 C321.095866,313.209798 321.22347,313.114095 321.310059,313.009277 C321.465007,312.822428 321.54248,312.575195 321.54248,312.267578 C321.54248,311.969076 321.465007,311.712728 321.310059,311.498535 C321.052572,311.149902 320.615072,310.971029 319.997559,310.961914 L319.997559,310.961914 L317.550293,310.961914 L317.550293,316 L319.833496,316 Z M319.79248,312.947754 L318.555176,312.947754 L318.555176,311.836914 L319.662598,311.836914 C319.906413,311.836914 320.106934,311.863118 320.26416,311.915527 C320.446452,311.990723 320.537598,312.145671 320.537598,312.380371 C320.537598,312.592285 320.468669,312.739827 320.330811,312.822998 C320.192952,312.906169 320.013509,312.947754 319.79248,312.947754 L319.79248,312.947754 Z M319.79248,315.125 L318.555176,315.125 L318.555176,313.781738 L319.80957,313.781738 C320.02832,313.784017 320.198079,313.8125 320.318848,313.867188 C320.535319,313.965169 320.643555,314.145182 320.643555,314.407227 C320.643555,314.717122 320.531901,314.926758 320.308594,315.036133 C320.185547,315.095378 320.013509,315.125 319.79248,315.125 L319.79248,315.125 Z M323.333496,316 L323.682129,314.964355 L325.538086,314.964355 L325.862793,316 L327.004395,316 L325.220215,310.961914 L324.030762,310.961914 L322.23291,316 L323.333496,316 Z M325.244141,314.096191 L323.96582,314.096191 L324.615234,312.11377 L325.244141,314.096191 Z M328.679199,316 L328.679199,313.750977 L330.647949,313.750977 L330.647949,316 L331.693848,316 L331.693848,310.961914 L330.647949,310.961914 L330.647949,312.882812 L328.679199,312.882812 L328.679199,310.961914 L327.636719,310.961914 L327.636719,316 L328.679199,316 Z M333.662598,316 L333.662598,312.421387 L335.720215,316 L336.772949,316 L336.772949,310.961914 L335.791992,310.961914 L335.791992,314.479004 L333.785645,310.961914 L332.681641,310.961914 L332.681641,316 L333.662598,316 Z M338.789551,316 L338.789551,313.750977 L340.758301,313.750977 L340.758301,316 L341.804199,316 L341.804199,310.961914 L340.758301,310.961914 L340.758301,312.882812 L338.789551,312.882812 L338.789551,310.961914 L337.74707,310.961914 L337.74707,316 L338.789551,316 Z M345.037598,316.140137 C345.75765,316.140137 346.307943,315.944173 346.688477,315.552246 C347.196615,315.071452 347.450684,314.378743 347.450684,313.474121 C347.450684,312.55127 347.196615,311.858561 346.688477,311.395996 C346.307943,311.004069 345.75765,310.808105 345.037598,310.808105 C344.317546,310.808105 343.767253,311.004069 343.386719,311.395996 C342.876302,311.858561 342.621094,312.55127 342.621094,313.474121 C342.621094,314.378743 342.876302,315.071452 343.386719,315.552246 C343.767253,315.944173 344.317546,316.140137 345.037598,316.140137 Z M345.037598,315.248047 C344.620605,315.248047 344.287923,315.094238 344.039551,314.786621 C343.791178,314.479004 343.666992,314.041504 343.666992,313.474121 C343.666992,312.906738 343.791178,312.469238 344.039551,312.161621 C344.287923,311.854004 344.620605,311.700195 345.037598,311.700195 C345.45459,311.700195 345.785563,311.854574 346.030518,312.16333 C346.275472,312.472087 346.397949,312.909017 346.397949,313.474121 C346.397949,314.041504 346.275472,314.479004 346.030518,314.786621 C345.785563,315.094238 345.45459,315.248047 345.037598,315.248047 Z M349.299805,316 L349.299805,313.887695 L351.51123,313.887695 L351.51123,313.012695 L349.299805,313.012695 L349.299805,311.854004 L351.825684,311.854004 L351.825684,310.96875 L348.253906,310.96875 L348.253906,316 L349.299805,316 Z" id="BAHNHOF" fill="#23292A" fill-rule="nonzero"></path>
            <g id="Trees" transform="translate(608.000000, 344.000000)">
                <g id="Group-135" transform="translate(15.000000, 13.000000)">
                    <path d="M49.2128198,34.3378361 C49.2626905,32.6454098 49.289544,30.8696393 49.289544,29.0374098 C49.289544,17.548 48.2460947,8.23360656 46.9580871,8.23360656 C46.2416748,8.23360656 45.6019867,11.1170492 45.1742492,15.6499016 C44.6937638,8.53740984 43.6474374,3.60262295 42.4323177,3.60262295 C41.4022952,3.60262295 40.4931133,7.15281967 39.9474124,12.5701967 C39.4362374,9.85478689 38.7965493,8.23360656 38.1012361,8.23360656 C37.2994681,8.23360656 36.5705881,10.3871148 36.0296824,13.8942951 C35.5549514,5.83678689 34.2803705,0.0672131148 32.7832893,0.0672131148 C31.4434928,0.0672131148 30.2839982,4.68206557 29.7133619,11.4195082 C29.387284,9.87629508 29.0161306,8.9984918 28.62196,8.9984918 C27.3339523,8.9984918 26.289544,18.3128852 26.289544,29.8022951 C26.289544,31.3602951 26.3096841,32.876623 26.3461281,34.3378361 L49.2128198,34.3378361" id="Fill-132" fill="#7FBE8B"></path>
                    <path d="M0.912114,33.3687541 C0.858434,32.051377 0.82891,30.6694754 0.82891,29.2432131 C0.82891,20.2984918 1.965584,13.0461967 3.369316,13.0461967 C4.149018,13.0461967 4.846858,15.2911148 5.312532,18.8198033 C5.835912,13.2827869 6.97527,9.44222951 8.298482,9.44222951 C9.421736,9.44222951 10.412132,12.2060328 11.006638,16.4229836 C11.562226,14.308459 12.260066,13.0461967 13.016954,13.0461967 C13.890596,13.0461967 14.683718,14.7238361 15.274198,17.4540328 C15.790868,11.1817049 17.178496,6.68918033 18.810368,6.68918033 C20.269122,6.68918033 21.533286,10.2823934 22.154632,15.5263607 C22.50892,14.3259344 22.914204,13.6417049 23.343644,13.6417049 C24.746034,13.6417049 25.88405,20.8926557 25.88405,29.837377 C25.88405,31.0512459 25.862578,32.2315082 25.822318,33.3687541 L0.912114,33.3687541" id="Fill-133" fill="#81C17E"></path>
                    <path d="M47.7998442,34.3687541 C48.2798916,32.3819344 48.561596,30.0482951 48.561596,27.5399016 C48.561596,20.3494426 46.2830479,14.519377 43.4717527,14.519377 C41.3445968,14.519377 39.524058,17.8598689 38.7632644,22.601082 C37.8453295,20.4838689 36.5881995,19.1745574 35.1997991,19.1745574 C32.96916,19.1745574 31.0786741,22.5486557 30.3907021,27.2387869 C29.5273834,25.635082 28.4436837,24.6699016 27.263208,24.6699016 C26.2140027,24.6699016 25.2385772,25.4267213 24.4289165,26.7199016 C23.71699,21.7259672 21.8495004,18.1542623 19.6514393,18.1542623 C16.8401441,18.1542623 14.561596,23.9829836 14.561596,31.1747869 C14.561596,32.2784262 14.6210031,33.3444262 14.72257,34.3687541 L47.7998442,34.3687541" id="Fill-134" fill="#4DA64C"></path>
                </g>
                <path d="M28,47 C27.5994677,43.3079409 25.5715236,40.4957295 23.1257485,40.4957295 C21.918829,40.4957295 20.8130406,41.181325 19.9534265,42.3176362 C19.6380572,39.3429132 17.5648703,37.0436288 15.0485695,37.0436288 C13.5182967,37.0436288 12.1503659,37.8930055 11.2428476,39.2273777 C10.6001331,37.2746999 9.56220892,36 8.38855622,36 C6.82501663,36 5.49966733,38.2573869 5.03526281,41.3844645 C4.50033267,40.5503232 3.79906853,40.0399354 3.02860945,40.0399354 C1.35595476,40.0399354 0,42.4242844 0,45.3659972 C0,45.9360572 0.0518962076,46.4845337 0.146373919,47 L28,47" id="Fill-136" fill="#479B56"></path>
                <polygon id="Fill-137" fill="#8E5E3E" points="14 47 15 47 15 27 14 27"></polygon>
                <path d="M21.1158678,29.6292357 C21.4681912,29.2610622 21.6862328,28.7578919 21.6862328,28.2015409 C21.6862328,27.7065521 21.5080768,27.2592896 21.2235591,26.9061158 C21.3565113,26.3184019 21.4349531,25.7088703 21.4349531,25.0788846 C21.4349531,20.6485307 17.9329921,17.0567942 13.6120455,17.0567942 C12.8528884,17.0567942 12.1203217,17.1740642 11.4263112,17.3799686 C11.1577478,16.5795323 10.4238516,16 9.55035565,16 C8.45084092,16 7.55873164,16.9136156 7.55873164,18.0413172 C7.55873164,18.5690325 7.75948946,19.0462944 8.07990427,19.4076498 C6.74639367,20.7767096 5.90214718,22.6407582 5.80908064,24.7052567 C3.60207405,25.4075135 2,27.517011 2,30.0110452 C2,33.0777937 4.42371867,35.5650099 7.41514326,35.5650099 C8.70477963,35.5650099 9.88938377,35.1000205 10.8187197,34.3268562 C11.1830087,34.8204814 11.7533737,35.1450194 12.4035099,35.1450194 C13.5030247,35.1450194 14.3951339,34.2300402 14.3951339,33.1023386 C14.3951339,33.0887025 14.3911454,33.0750665 14.3911454,33.0614304 C14.4336901,33.0573396 14.4762348,33.049158 14.520109,33.0437036 C14.9322609,34.7400286 16.4160074,36 18.197567,36 C20.2968823,36 22,34.2545851 22,32.1000886 C22,31.1564737 21.6596424,30.3028568 21.1158678,29.6292357" id="Fill-138" fill="#377749"></path>
                <polygon id="Fill-139" fill="#8E5E3E" points="43 47 45 47 45 23 43 23"></polygon>
                <path d="M51.7911424,24.1250612 C52.3800384,22.2224398 52.7177081,20.0634652 52.7177081,17.7669678 C52.7177081,10.1644933 49.0641217,4 44.5582569,4 C40.5818582,4 37.2753963,8.79994659 36.5500818,15.1500289 C36.498756,15.1393475 36.4487808,15.1246606 36.3988057,15.1246606 C35.0737897,15.1246606 34,18.5827585 34,22.8473007 C34,27.111843 35.0737897,30.5699408 36.3988057,30.5699408 C36.8553352,30.5699408 37.2821497,30.1493613 37.646833,29.4323735 C37.9831521,31.5125729 39.077202,33.0386755 40.3792564,33.0386755 C41.289614,33.0386755 42.0986706,32.2896435 42.618682,31.1280431 C43.241345,31.3843963 43.8883202,31.5352708 44.5582569,31.5352708 C45.1363475,31.5352708 45.6995806,31.4297922 46.2439042,31.2375273 C46.7085377,32.8731141 47.6729224,34 48.7899339,34 C50.308097,34 51.5439682,31.9264765 51.6250089,29.3175486 C51.6277102,29.3175486 51.6304116,29.3188838 51.633113,29.3188838 C52.3881425,29.3188838 53,28.1506075 53,26.7072856 C53,25.3681072 52.4705339,24.2772709 51.7911424,24.1250612" id="Fill-140" fill="#3C6D46"></path>
                <g id="Group-144" transform="translate(38.000000, 0.000000)">
                    <mask id="mask-4" fill="white">
                        <use xlink:href="#path-3"></use>
                    </mask>
                    <g id="Clip-142"></g>
                    <polygon id="Fill-141" fill="#8E5E3E" mask="url(#mask-4)" points="18.9867826 46.4185429 20.823513 46.4185429 20.823513 23.3737714 18.9867826 23.3737714"></polygon>
                    <path d="M37.6728696,9.13545714 C37.6728696,5.83605714 34.9706783,3.16242857 31.6390609,3.16242857 C30.8522783,3.16242857 30.1034783,3.31551429 29.4143652,3.58677143 C29.3139826,2.00488571 27.999513,0.749314286 26.377113,0.749314286 C24.6896,0.749314286 23.3208696,2.10425714 23.3208696,3.77611429 C23.3208696,4.24611429 23.438887,4.68657143 23.6328696,5.08405714 C22.4513391,4.73491429 21.2019826,4.54154286 19.9051478,4.54154286 C16.0512696,4.54154286 12.5989217,6.20802857 10.2128,8.84002857 C9.48570435,6.84588571 7.56351304,5.41842857 5.29947826,5.41842857 C2.4128,5.41842857 0.0714434783,7.7362 0.0714434783,10.5938 C0.0714434783,13.1680571 1.97328696,15.2978286 4.4597913,15.6966571 C4.21154783,16.2297714 4.06504348,16.8192857 4.06504348,17.4450571 C4.06504348,19.5144 5.57756522,21.2252 7.56622609,21.5770286 C9.308,26.6731714 14.1684174,30.3472286 19.9051478,30.3472286 C20.7000696,30.3472286 21.4746435,30.2653143 22.2302261,30.1310286 C22.7904696,30.8024571 23.6274435,31.2402286 24.5770087,31.2402286 C26.2645217,31.2402286 27.6332522,29.8852857 27.6332522,28.2147714 C27.6332522,28.0872 27.6115478,27.9676857 27.5966261,27.8454857 C30.8305739,25.4968286 32.9399652,21.7193714 32.9399652,17.4450571 C32.9399652,16.6111429 32.8517913,15.7987143 32.6998609,15.0104571 C35.5254957,14.5122571 37.6728696,12.0749714 37.6728696,9.13545714" id="Fill-143" fill="#2B6242" mask="url(#mask-4)"></path>
                </g>
            </g>
            <g id="Trees-Copy" transform="translate(1.000000, 344.000000)">
                <g id="Group-135" transform="translate(15.000000, 13.000000)">
                    <path d="M49.076484,34.270623 C49.146268,32.5781967 49.183844,30.8024262 49.183844,28.9701967 C49.183844,17.4807869 47.723748,8.16639344 45.921442,8.16639344 C44.918968,8.16639344 44.023854,11.0498361 43.425322,15.5826885 C42.75298,8.47019672 41.288858,3.53540984 39.588544,3.53540984 C38.147236,3.53540984 36.87502,7.08560656 36.111422,12.5029836 C35.396136,9.78757377 34.501022,8.16639344 33.528072,8.16639344 C32.40616,8.16639344 31.38624,10.3199016 30.629352,13.827082 C29.965062,5.76957377 28.181544,0 26.086682,0 C24.211908,0 22.58943,4.61485246 21.79094,11.3522951 C21.33466,9.80908197 20.815306,8.93127869 20.263744,8.93127869 C18.461438,8.93127869 17,18.2456721 17,29.735082 C17,31.293082 17.028182,32.8094098 17.079178,34.270623 L49.076484,34.270623" id="Fill-132" fill="#7FBE8B"></path>
                    <path d="M0.912114,34.3687541 C0.858434,33.051377 0.82891,31.6694754 0.82891,30.2432131 C0.82891,21.2984918 1.965584,14.0461967 3.369316,14.0461967 C4.149018,14.0461967 4.846858,16.2911148 5.312532,19.8198033 C5.835912,14.2827869 6.97527,10.4422295 8.298482,10.4422295 C9.421736,10.4422295 10.412132,13.2060328 11.006638,17.4229836 C11.562226,15.308459 12.260066,14.0461967 13.016954,14.0461967 C13.890596,14.0461967 14.683718,15.7238361 15.274198,18.4540328 C15.790868,12.1817049 17.178496,7.68918033 18.810368,7.68918033 C20.269122,7.68918033 21.533286,11.2823934 22.154632,16.5263607 C22.50892,15.3259344 22.914204,14.6417049 23.343644,14.6417049 C24.746034,14.6417049 25.88405,21.8926557 25.88405,30.837377 C25.88405,32.0512459 25.862578,33.2315082 25.822318,34.3687541 L0.912114,34.3687541" id="Fill-133" fill="#81C17E"></path>
                    <path d="M0.912114,34.3687541 C0.858434,33.051377 0.82891,31.6694754 0.82891,30.2432131 C0.82891,21.2984918 1.965584,14.0461967 3.369316,14.0461967 C4.149018,14.0461967 4.846858,16.2911148 5.312532,19.8198033 C5.835912,14.2827869 6.97527,10.4422295 8.298482,10.4422295 C9.421736,10.4422295 10.412132,13.2060328 11.006638,17.4229836 C11.562226,15.308459 12.260066,14.0461967 13.016954,14.0461967 C13.890596,14.0461967 14.683718,15.7238361 15.274198,18.4540328 C15.790868,12.1817049 17.178496,7.68918033 18.810368,7.68918033 C20.269122,7.68918033 21.533286,11.2823934 22.154632,16.5263607 C22.50892,15.3259344 22.914204,14.6417049 23.343644,14.6417049 C24.746034,14.6417049 25.88405,21.8926557 25.88405,30.837377 C25.88405,32.0512459 25.862578,33.2315082 25.822318,34.3687541 L0.912114,34.3687541" id="Fill-133-Copy" fill="#81C17E"></path>
                    <path d="M46.552638,33.849377 C47.22498,31.8625574 47.619528,29.528918 47.619528,27.0205246 C47.619528,19.8300656 44.428252,14 40.490824,14 C37.511584,14 34.961784,17.3404918 33.896236,22.0817049 C32.6106,19.9644918 30.849896,18.6551803 28.905338,18.6551803 C25.781162,18.6551803 23.133396,22.0292787 22.16984,26.7194098 C20.960698,25.1157049 19.442896,24.1505246 17.789552,24.1505246 C16.320062,24.1505246 14.953906,24.9073443 13.819916,26.2005246 C12.82281,21.2065902 10.207252,17.6348852 7.128704,17.6348852 C3.191276,17.6348852 0,23.4636066 0,30.6554098 C0,31.7590492 0.083204,32.8250492 0.225456,33.849377 L46.552638,33.849377" id="Fill-134" fill="#4DA64C"></path>
                </g>
                <path d="M28,47 C27.5994677,43.3079409 25.5715236,40.4957295 23.1257485,40.4957295 C21.918829,40.4957295 20.8130406,41.181325 19.9534265,42.3176362 C19.6380572,39.3429132 17.5648703,37.0436288 15.0485695,37.0436288 C13.5182967,37.0436288 12.1503659,37.8930055 11.2428476,39.2273777 C10.6001331,37.2746999 9.56220892,36 8.38855622,36 C6.82501663,36 5.49966733,38.2573869 5.03526281,41.3844645 C4.50033267,40.5503232 3.79906853,40.0399354 3.02860945,40.0399354 C1.35595476,40.0399354 0,42.4242844 0,45.3659972 C0,45.9360572 0.0518962076,46.4845337 0.146373919,47 L28,47" id="Fill-136" fill="#479B56"></path>
                <polygon id="Fill-137" fill="#8E5E3E" points="14 47 15 47 15 27 14 27"></polygon>
                <path d="M21.1158678,29.6292357 C21.4681912,29.2610622 21.6862328,28.7578919 21.6862328,28.2015409 C21.6862328,27.7065521 21.5080768,27.2592896 21.2235591,26.9061158 C21.3565113,26.3184019 21.4349531,25.7088703 21.4349531,25.0788846 C21.4349531,20.6485307 17.9329921,17.0567942 13.6120455,17.0567942 C12.8528884,17.0567942 12.1203217,17.1740642 11.4263112,17.3799686 C11.1577478,16.5795323 10.4238516,16 9.55035565,16 C8.45084092,16 7.55873164,16.9136156 7.55873164,18.0413172 C7.55873164,18.5690325 7.75948946,19.0462944 8.07990427,19.4076498 C6.74639367,20.7767096 5.90214718,22.6407582 5.80908064,24.7052567 C3.60207405,25.4075135 2,27.517011 2,30.0110452 C2,33.0777937 4.42371867,35.5650099 7.41514326,35.5650099 C8.70477963,35.5650099 9.88938377,35.1000205 10.8187197,34.3268562 C11.1830087,34.8204814 11.7533737,35.1450194 12.4035099,35.1450194 C13.5030247,35.1450194 14.3951339,34.2300402 14.3951339,33.1023386 C14.3951339,33.0887025 14.3911454,33.0750665 14.3911454,33.0614304 C14.4336901,33.0573396 14.4762348,33.049158 14.520109,33.0437036 C14.9322609,34.7400286 16.4160074,36 18.197567,36 C20.2968823,36 22,34.2545851 22,32.1000886 C22,31.1564737 21.6596424,30.3028568 21.1158678,29.6292357" id="Fill-138" fill="#377749"></path>
                <polygon id="Fill-139" fill="#8E5E3E" points="43 48 45 48 45 24 43 24"></polygon>
                <path d="M51.7911424,24.1250612 C52.3800384,22.2224398 52.7177081,20.0634652 52.7177081,17.7669678 C52.7177081,10.1644933 49.0641217,4 44.5582569,4 C40.5818582,4 37.2753963,8.79994659 36.5500818,15.1500289 C36.498756,15.1393475 36.4487808,15.1246606 36.3988057,15.1246606 C35.0737897,15.1246606 34,18.5827585 34,22.8473007 C34,27.111843 35.0737897,30.5699408 36.3988057,30.5699408 C36.8553352,30.5699408 37.2821497,30.1493613 37.646833,29.4323735 C37.9831521,31.5125729 39.077202,33.0386755 40.3792564,33.0386755 C41.289614,33.0386755 42.0986706,32.2896435 42.618682,31.1280431 C43.241345,31.3843963 43.8883202,31.5352708 44.5582569,31.5352708 C45.1363475,31.5352708 45.6995806,31.4297922 46.2439042,31.2375273 C46.7085377,32.8731141 47.6729224,34 48.7899339,34 C50.308097,34 51.5439682,31.9264765 51.6250089,29.3175486 C51.6277102,29.3175486 51.6304116,29.3188838 51.633113,29.3188838 C52.3881425,29.3188838 53,28.1506075 53,26.7072856 C53,25.3681072 52.4705339,24.2772709 51.7911424,24.1250612" id="Fill-140" fill="#3C6D46"></path>
                <g id="Group-144" transform="translate(38.000000, 0.000000)">
                    <mask id="mask-6" fill="white">
                        <use xlink:href="#path-5"></use>
                    </mask>
                    <g id="Clip-142"></g>
                    <polygon id="Fill-141" fill="#8E5E3E" mask="url(#mask-6)" points="18.9867826 46.4185429 20.823513 46.4185429 20.823513 23.3737714 18.9867826 23.3737714"></polygon>
                    <path d="M37.6728696,9.13545714 C37.6728696,5.83605714 34.9706783,3.16242857 31.6390609,3.16242857 C30.8522783,3.16242857 30.1034783,3.31551429 29.4143652,3.58677143 C29.3139826,2.00488571 27.999513,0.749314286 26.377113,0.749314286 C24.6896,0.749314286 23.3208696,2.10425714 23.3208696,3.77611429 C23.3208696,4.24611429 23.438887,4.68657143 23.6328696,5.08405714 C22.4513391,4.73491429 21.2019826,4.54154286 19.9051478,4.54154286 C16.0512696,4.54154286 12.5989217,6.20802857 10.2128,8.84002857 C9.48570435,6.84588571 7.56351304,5.41842857 5.29947826,5.41842857 C2.4128,5.41842857 0.0714434783,7.7362 0.0714434783,10.5938 C0.0714434783,13.1680571 1.97328696,15.2978286 4.4597913,15.6966571 C4.21154783,16.2297714 4.06504348,16.8192857 4.06504348,17.4450571 C4.06504348,19.5144 5.57756522,21.2252 7.56622609,21.5770286 C9.308,26.6731714 14.1684174,30.3472286 19.9051478,30.3472286 C20.7000696,30.3472286 21.4746435,30.2653143 22.2302261,30.1310286 C22.7904696,30.8024571 23.6274435,31.2402286 24.5770087,31.2402286 C26.2645217,31.2402286 27.6332522,29.8852857 27.6332522,28.2147714 C27.6332522,28.0872 27.6115478,27.9676857 27.5966261,27.8454857 C30.8305739,25.4968286 32.9399652,21.7193714 32.9399652,17.4450571 C32.9399652,16.6111429 32.8517913,15.7987143 32.6998609,15.0104571 C35.5254957,14.5122571 37.6728696,12.0749714 37.6728696,9.13545714" id="Fill-143" fill="#2B6242" mask="url(#mask-6)"></path>
                </g>
            </g>
        </g>
    </g>
</svg>