<?xml version="1.0" encoding="UTF-8"?>
<svg width="817px" height="57px" viewBox="0 0 817 57" version="1.1" xmlns="http://www.w3.org/2000/svg" xmlns:xlink="http://www.w3.org/1999/xlink">
    <!-- Generator: Sketch 62 (91390) - https://sketch.com -->
    <title>Train 2</title>
    <desc>Created with Sketch.</desc>
    <defs>
        <polygon id="path-1" points="0.0436024845 0.9056 26.4626832 0.9056 26.4626832 17.872 0.0436024845 17.872"></polygon>
        <polygon id="path-3" points="0.182970667 0.862769231 28.549456 0.862769231 28.549456 15.8707692 0.182970667 15.8707692"></polygon>
        <polygon id="path-5" points="0.0436024845 0.9056 26.4626832 0.9056 26.4626832 17.872 0.0436024845 17.872"></polygon>
        <polygon id="path-7" points="0.182970667 0.862769231 28.549456 0.862769231 28.549456 15.8707692 0.182970667 15.8707692"></polygon>
        <polygon id="path-9" points="0.629066667 0.9056 27.1747778 0.9056 27.1747778 17.872 0.629066667 17.872"></polygon>
        <polygon id="path-11" points="0.748 0.862769231 28.962 0.862769231 28.962 15.8707692 0.748 15.8707692"></polygon>
        <polygon id="path-13" points="0.629066667 0.9056 27.1747778 0.9056 27.1747778 17.872 0.629066667 17.872"></polygon>
        <polygon id="path-15" points="0.748 0.862769231 28.962 0.862769231 28.962 15.8707692 0.748 15.8707692"></polygon>
        <polygon id="path-17" points="-0.002 0.9056 26.254 0.9056 26.254 17.872 -0.002 17.872"></polygon>
        <polygon id="path-19" points="0.835096154 0.862769231 29.3224038 0.862769231 29.3224038 15.8707692 0.835096154 15.8707692"></polygon>
        <polygon id="path-21" points="-0.002 0.9056 26.254 0.9056 26.254 17.872 -0.002 17.872"></polygon>
        <polygon id="path-23" points="0.835096154 0.862769231 29.3224038 0.862769231 29.3224038 15.8707692 0.835096154 15.8707692"></polygon>
        <polygon id="path-25" points="0.912 0.9056 27.168 0.9056 27.168 17.872 0.912 17.872"></polygon>
        <polygon id="path-27" points="0.748269231 0.862769231 29.2355769 0.862769231 29.2355769 15.8707692 0.748269231 15.8707692"></polygon>
        <polygon id="path-29" points="0.912 0.9056 27.168 0.9056 27.168 17.872 0.912 17.872"></polygon>
        <polygon id="path-31" points="0.748269231 0.862769231 29.2355769 0.862769231 29.2355769 15.8707692 0.748269231 15.8707692"></polygon>
        <polygon id="path-33" points="0.480298137 0.9056 26.8973665 0.9056 26.8973665 17.872 0.480298137 17.872"></polygon>
        <polygon id="path-35" points="0.619285333 0.862769231 28.98376 0.862769231 28.98376 15.8707692 0.619285333 15.8707692"></polygon>
        <polygon id="path-37" points="0.166608696 0.862769231 53.5953913 0.862769231 53.5953913 15.8707692 0.166608696 15.8707692"></polygon>
        <polygon id="path-39" points="0.084448 0.862769231 28.4509333 0.862769231 28.4509333 15.8707692 0.084448 15.8707692"></polygon>
        <polygon id="path-41" points="-0.004 0.9056 26.252 0.9056 26.252 17.872 -0.004 17.872"></polygon>
        <polygon id="path-43" points="0.833076923 0.862769231 29.3203846 0.862769231 29.3203846 15.8707692 0.833076923 15.8707692"></polygon>
        <polygon id="path-45" points="0.0377909574 0.862769231 91.7600798 0.862769231 91.7600798 15.8707692 0.0377909574 15.8707692"></polygon>
        <polygon id="path-47" points="0.165029333 0.862769231 28.529504 0.862769231 28.529504 15.8707692 0.165029333 15.8707692"></polygon>
    </defs>
    <g id="Page-1" stroke="none" stroke-width="1" fill="none" fill-rule="evenodd">
        <g id="Train-2">
            <polygon id="Fill-379" fill="#6A6A67" points="677 49 685 49 685 1 677 1"></polygon>
            <polygon id="Fill-380" fill="#6A6A67" points="540 49 548 49 548 1 540 1"></polygon>
            <polygon id="Fill-381" fill="#6A6A67" points="402 49 410 49 410 1 402 1"></polygon>
            <polygon id="Fill-382" fill="#6A6A67" points="267 49 275 49 275 1 267 1"></polygon>
            <polygon id="Fill-383" fill="#6A6A67" points="131 49 139 49 139 1 131 1"></polygon>
            <g id="Group-387" transform="translate(506.000000, 39.000000)">
                <mask id="mask-2" fill="white">
                    <use xlink:href="#path-1"></use>
                </mask>
                <g id="Clip-385"></g>
                <polygon id="Fill-384" fill="#0A0B09" mask="url(#mask-2)" points="0.0436024845 12.5941333 19.3910311 12.5941333 19.3910311 0.9056 0.0436024845 0.9056"></polygon>
                <path d="M26.4626832,10.5034667 C26.4626832,14.6442667 23.2971429,18 19.3910311,18 C15.4849193,18 12.3193789,14.6442667 12.3193789,10.5034667 C12.3193789,6.36266667 15.4849193,3.00693333 19.3910311,3.00693333 C23.2971429,3.00693333 26.4626832,6.36266667 26.4626832,10.5034667" id="Fill-386" fill="#3B3C3A" mask="url(#mask-2)"></path>
            </g>
            <path d="M526.000928,45.6905513 C523.624838,45.6905513 521.690551,47.6248376 521.690551,50.0009282 C521.690551,52.3770187 523.624838,54.3094487 526.000928,54.3094487 C528.377019,54.3094487 530.309449,52.3770187 530.309449,50.0009282 C530.309449,47.6248376 528.377019,45.6905513 526.000928,45.6905513 Z M526.000928,55 C523.244292,55 521,52.7575645 521,50.0009282 C521,47.2442918 523.244292,45 526.000928,45 C528.757565,45 531,47.2442918 531,50.0009282 C531,52.7575645 528.757565,55 526.000928,55 L526.000928,55 Z" id="Fill-388" fill="#171816"></path>
            <g id="Group-392" transform="translate(500.000000, 41.000000)">
                <mask id="mask-4" fill="white">
                    <use xlink:href="#path-3"></use>
                </mask>
                <g id="Clip-390"></g>
                <path d="M28.549456,8.43138462 C28.549456,9.59661538 27.6667733,10.5421538 26.5790027,10.5421538 C25.491232,10.5421538 24.6085493,9.59661538 24.6085493,8.43138462 C24.6085493,7.26615385 25.491232,6.32061538 26.5790027,6.32061538 C27.6667733,6.32061538 28.549456,7.26615385 28.549456,8.43138462" id="Fill-389" fill="#171816" mask="url(#mask-4)"></path>
                <path d="M14.3159467,8.43138462 C14.3159467,12.612 11.1511573,16 7.24845333,16 C3.34776,16 0.182970667,12.612 0.182970667,8.43138462 C0.182970667,4.25076923 3.34776,0.862769231 7.24845333,0.862769231 C11.1511573,0.862769231 14.3159467,4.25076923 14.3159467,8.43138462" id="Fill-391" fill="#3B3C3A" mask="url(#mask-4)"></path>
            </g>
            <path d="M505.999072,45.6905513 C503.622981,45.6905513 501.690551,47.6248376 501.690551,50.0009282 C501.690551,52.3770187 503.622981,54.3094487 505.999072,54.3094487 C508.375162,54.3094487 510.309449,52.3770187 510.309449,50.0009282 C510.309449,47.6248376 508.375162,45.6905513 505.999072,45.6905513 Z M505.999072,55 C503.242435,55 501,52.7575645 501,50.0009282 C501,47.2442918 503.242435,45 505.999072,45 C508.757565,45 511,47.2442918 511,50.0009282 C511,52.7575645 508.757565,55 505.999072,55 L505.999072,55 Z" id="Fill-393" fill="#171816"></path>
            <path d="M507,49.5 C507,50.3280612 506.328404,51 505.499235,51 C504.671596,51 504,50.3280612 504,49.5 C504,48.6719388 504.671596,48 505.499235,48 C506.328404,48 507,48.6719388 507,49.5" id="Fill-394" fill="#171816"></path>
            <g id="Group-398" transform="translate(426.000000, 39.000000)">
                <mask id="mask-6" fill="white">
                    <use xlink:href="#path-5"></use>
                </mask>
                <g id="Clip-396"></g>
                <polygon id="Fill-395" fill="#0A0B09" mask="url(#mask-6)" points="0.0436024845 12.5941333 19.3910311 12.5941333 19.3910311 0.9056 0.0436024845 0.9056"></polygon>
                <path d="M26.4626832,10.5034667 C26.4626832,14.6442667 23.2971429,18 19.3910311,18 C15.4849193,18 12.3193789,14.6442667 12.3193789,10.5034667 C12.3193789,6.36266667 15.4849193,3.00693333 19.3910311,3.00693333 C23.2971429,3.00693333 26.4626832,6.36266667 26.4626832,10.5034667" id="Fill-397" fill="#3B3C3A" mask="url(#mask-6)"></path>
            </g>
            <path d="M445.000928,45.6905513 C442.624838,45.6905513 440.690551,47.6248376 440.690551,50.0009282 C440.690551,52.3770187 442.624838,54.3094487 445.000928,54.3094487 C447.377019,54.3094487 449.309449,52.3770187 449.309449,50.0009282 C449.309449,47.6248376 447.377019,45.6905513 445.000928,45.6905513 Z M445.000928,55 C442.244292,55 440,52.7575645 440,50.0009282 C440,47.2442918 442.244292,45 445.000928,45 C447.757565,45 450,47.2442918 450,50.0009282 C450,52.7575645 447.757565,55 445.000928,55 L445.000928,55 Z" id="Fill-399" fill="#171816"></path>
            <g id="Group-403" transform="translate(419.000000, 41.000000)">
                <mask id="mask-8" fill="white">
                    <use xlink:href="#path-7"></use>
                </mask>
                <g id="Clip-401"></g>
                <path d="M28.549456,8.43138462 C28.549456,9.59661538 27.6667733,10.5421538 26.5790027,10.5421538 C25.491232,10.5421538 24.6085493,9.59661538 24.6085493,8.43138462 C24.6085493,7.26615385 25.491232,6.32061538 26.5790027,6.32061538 C27.6667733,6.32061538 28.549456,7.26615385 28.549456,8.43138462" id="Fill-400" fill="#171816" mask="url(#mask-8)"></path>
                <path d="M14.3159467,8.43138462 C14.3159467,12.612 11.1511573,16 7.24845333,16 C3.34776,16 0.182970667,12.612 0.182970667,8.43138462 C0.182970667,4.25076923 3.34776,0.862769231 7.24845333,0.862769231 C11.1511573,0.862769231 14.3159467,4.25076923 14.3159467,8.43138462" id="Fill-402" fill="#3B3C3A" mask="url(#mask-8)"></path>
            </g>
            <path d="M424.999072,45.6905513 C422.622981,45.6905513 420.690551,47.6248376 420.690551,50.0009282 C420.690551,52.3770187 422.622981,54.3094487 424.999072,54.3094487 C427.375162,54.3094487 429.309449,52.3770187 429.309449,50.0009282 C429.309449,47.6248376 427.375162,45.6905513 424.999072,45.6905513 Z M424.999072,55 C422.242435,55 420,52.7575645 420,50.0009282 C420,47.2442918 422.242435,45 424.999072,45 C427.757565,45 430,47.2442918 430,50.0009282 C430,52.7575645 427.757565,55 424.999072,55 L424.999072,55 Z" id="Fill-404" fill="#171816"></path>
            <path d="M427,49.5 C427,50.3280612 426.328404,51 425.499235,51 C424.671596,51 424,50.3280612 424,49.5 C424,48.6719388 424.671596,48 425.499235,48 C426.328404,48 427,48.6719388 427,49.5" id="Fill-405" fill="#171816"></path>
            <path d="M539.759709,0 L411.240291,0 C410.003026,0 409,1.01363655 409,2.26399061 L409,47.7360094 C409,48.9863635 410.003026,50 411.240291,50 L419.538776,50 L419.538776,49.9332335 C419.538776,46.339983 422.421724,43.4265366 425.979362,43.4265366 L444.824633,43.4265366 C448.380269,43.4265366 451.263217,46.339983 451.263217,49.9332335 L451.263217,50 L499.620665,50 L499.620665,49.9332335 C499.620665,46.339983 502.503613,43.4265366 506.061251,43.4265366 L524.906521,43.4265366 C528.462157,43.4265366 531.345105,46.339983 531.345105,49.9332335 L531.345105,50 L539.759709,50 C540.996974,50 542,48.9863635 542,47.7360094 L542,2.26399061 C542,1.01363655 540.996974,0 539.759709,0" id="Fill-406" fill="#DCDBD6"></path>
            <polygon id="Fill-407" fill="#DD4144" points="409 21 542 21 542 4 409 4"></polygon>
            <path d="M536.030651,17 L535.971264,17 C534.329502,17 533,16.0189671 533,14.8096435 L533,10.1882998 C533,8.97897623 534.329502,8 535.971264,8 L536.030651,8 C537.670498,8 539,8.97897623 539,10.1882998 L539,14.8096435 C539,16.0189671 537.670498,17 536.030651,17" id="Fill-408" fill="#6EB1D5"></path>
            <path d="M516.030651,17 L515.971264,17 C514.329502,17 513,16.0189671 513,14.8096435 L513,10.1882998 C513,8.97897623 514.329502,8 515.971264,8 L516.030651,8 C517.670498,8 519,8.97897623 519,10.1882998 L519,14.8096435 C519,16.0189671 517.670498,17 516.030651,17" id="Fill-409" fill="#6EB1D5"></path>
            <path d="M496.030651,17 L495.971264,17 C494.329502,17 493,16.0189671 493,14.8096435 L493,10.1882998 C493,8.97897623 494.329502,8 495.971264,8 L496.030651,8 C497.670498,8 499,8.97897623 499,10.1882998 L499,14.8096435 C499,16.0189671 497.670498,17 496.030651,17" id="Fill-410" fill="#6EB1D5"></path>
            <path d="M476.030651,17 L475.971264,17 C474.329502,17 473,16.0189671 473,14.8096435 L473,10.1882998 C473,8.97897623 474.329502,8 475.971264,8 L476.030651,8 C477.670498,8 479,8.97897623 479,10.1882998 L479,14.8096435 C479,16.0189671 477.670498,17 476.030651,17" id="Fill-411" fill="#6EB1D5"></path>
            <path d="M455.030651,17 L454.971264,17 C453.329502,17 452,16.0189671 452,14.8096435 L452,10.1882998 C452,8.97897623 453.329502,8 454.971264,8 L455.030651,8 C456.670498,8 458,8.97897623 458,10.1882998 L458,14.8096435 C458,16.0189671 456.670498,17 455.030651,17" id="Fill-412" fill="#6EB1D5"></path>
            <path d="M435.030651,17 L434.971264,17 C433.329502,17 432,16.0189671 432,14.8096435 L432,10.1882998 C432,8.97897623 433.329502,8 434.971264,8 L435.030651,8 C436.670498,8 438,8.97897623 438,10.1882998 L438,14.8096435 C438,16.0189671 436.670498,17 435.030651,17" id="Fill-413" fill="#6EB1D5"></path>
            <path d="M415.030651,17 L414.971264,17 C413.329502,17 412,16.0189671 412,14.8096435 L412,10.1882998 C412,8.97897623 413.329502,8 414.971264,8 L415.030651,8 C416.670498,8 418,8.97897623 418,10.1882998 L418,14.8096435 C418,16.0189671 416.670498,17 415.030651,17" id="Fill-414" fill="#6EB1D5"></path>
            <path d="M536.030651,39 L535.971264,39 C534.329502,39 533,38.0210238 533,36.8117002 L533,32.1882998 C533,30.9810329 534.329502,30 535.971264,30 L536.030651,30 C537.670498,30 539,30.9810329 539,32.1882998 L539,36.8117002 C539,38.0210238 537.670498,39 536.030651,39" id="Fill-415" fill="#6EB1D5"></path>
            <path d="M496.030651,39 L495.971264,39 C494.329502,39 493,38.0210238 493,36.8117002 L493,32.1882998 C493,30.9810329 494.329502,30 495.971264,30 L496.030651,30 C497.670498,30 499,30.9810329 499,32.1882998 L499,36.8117002 C499,38.0210238 497.670498,39 496.030651,39" id="Fill-416" fill="#6EB1D5"></path>
            <path d="M516.030651,39 L515.971264,39 C514.329502,39 513,38.0210238 513,36.8117002 L513,32.1882998 C513,30.9810329 514.329502,30 515.971264,30 L516.030651,30 C517.670498,30 519,30.9810329 519,32.1882998 L519,36.8117002 C519,38.0210238 517.670498,39 516.030651,39" id="Fill-417" fill="#6EB1D5"></path>
            <path d="M455.030651,39 L454.971264,39 C453.329502,39 452,38.0210238 452,36.8117002 L452,32.1882998 C452,30.9810329 453.329502,30 454.971264,30 L455.030651,30 C456.670498,30 458,30.9810329 458,32.1882998 L458,36.8117002 C458,38.0210238 456.670498,39 455.030651,39" id="Fill-418" fill="#6EB1D5"></path>
            <path d="M435.030651,39 L434.971264,39 C433.329502,39 432,38.0210238 432,36.8117002 L432,32.1882998 C432,30.9810329 433.329502,30 434.971264,30 L435.030651,30 C436.670498,30 438,30.9810329 438,32.1882998 L438,36.8117002 C438,38.0210238 436.670498,39 435.030651,39" id="Fill-419" fill="#6EB1D5"></path>
            <path d="M415.030651,39 L414.971264,39 C413.329502,39 412,38.0210238 412,36.8117002 L412,32.1882998 C412,30.9810329 413.329502,30 414.971264,30 L415.030651,30 C416.670498,30 418,30.9810329 418,32.1882998 L418,36.8117002 C418,38.0210238 416.670498,39 415.030651,39" id="Fill-420" fill="#6EB1D5"></path>
            <path d="M481,33.9712644 L481,34.0306513 C481,35.6704981 480.021024,37 478.8117,37 L474.1883,37 C472.981033,37 472,35.6704981 472,34.0306513 L472,33.9712644 C472,32.3295019 472.981033,31 474.1883,31 L478.8117,31 C480.021024,31 481,32.3295019 481,33.9712644" id="Fill-421" fill="#6EB1D5"></path>
            <path d="M470.600972,27.4919564 C468.925052,27.4919564 467.561416,28.7929424 467.561416,30.3943089 L467.561416,44.6056911 C467.561416,46.2070576 468.925052,47.5080436 470.600972,47.5080436 L479.399028,47.5080436 C481.074948,47.5080436 482.438584,46.2070576 482.438584,44.6056911 L482.438584,30.3943089 C482.438584,28.7929424 481.074948,27.4919564 479.399028,27.4919564 L470.600972,27.4919564 Z M479.399028,49 L470.600972,49 C468.063151,49 466,47.0286283 466,44.6056911 L466,30.3943089 C466,27.9713717 468.063151,26 470.600972,26 L479.399028,26 C481.936849,26 484,27.9713717 484,30.3943089 L484,44.6056911 C484,47.0286283 481.936849,49 479.399028,49 L479.399028,49 Z" id="Fill-422" fill="#ACADA9"></path>
            <g id="Group-426" transform="translate(643.000000, 39.000000)">
                <mask id="mask-10" fill="white">
                    <use xlink:href="#path-9"></use>
                </mask>
                <g id="Clip-424"></g>
                <polygon id="Fill-423" fill="#0A0B09" mask="url(#mask-10)" points="0.629066667 12.5941333 20.0686889 12.5941333 20.0686889 0.9056 0.629066667 0.9056"></polygon>
                <path d="M27.1747778,10.5034667 C27.1747778,14.6442667 23.9938222,18 20.0686889,18 C16.1455778,18 12.9626,14.6442667 12.9626,10.5034667 C12.9626,6.36266667 16.1455778,3.00693333 20.0686889,3.00693333 C23.9938222,3.00693333 27.1747778,6.36266667 27.1747778,10.5034667" id="Fill-425" fill="#3B3C3A" mask="url(#mask-10)"></path>
            </g>
            <path d="M662.999072,45.6905513 C660.622981,45.6905513 658.690551,47.6248376 658.690551,50.0009282 C658.690551,52.3770187 660.622981,54.3094487 662.999072,54.3094487 C665.375162,54.3094487 667.309449,52.3770187 667.309449,50.0009282 C667.309449,47.6248376 665.375162,45.6905513 662.999072,45.6905513 Z M662.999072,55 C660.242435,55 658,52.7575645 658,50.0009282 C658,47.2442918 660.242435,45 662.999072,45 C665.755708,45 668,47.2442918 668,50.0009282 C668,52.7575645 665.755708,55 662.999072,55 L662.999072,55 Z" id="Fill-427" fill="#171816"></path>
            <g id="Group-431" transform="translate(636.000000, 41.000000)">
                <mask id="mask-12" fill="white">
                    <use xlink:href="#path-11"></use>
                </mask>
                <g id="Clip-429"></g>
                <path d="M28.962,8.43138462 C28.962,9.59661538 28.086,10.5421538 27.002,10.5421538 C25.92,10.5421538 25.042,9.59661538 25.042,8.43138462 C25.042,7.26615385 25.92,6.32061538 27.002,6.32061538 C28.086,6.32061538 28.962,7.26615385 28.962,8.43138462" id="Fill-428" fill="#171816" mask="url(#mask-12)"></path>
                <path d="M14.804,8.43138462 C14.804,12.612 11.658,16 7.776,16 C3.894,16 0.748,12.612 0.748,8.43138462 C0.748,4.25076923 3.894,0.862769231 7.776,0.862769231 C11.658,0.862769231 14.804,4.25076923 14.804,8.43138462" id="Fill-430" fill="#3B3C3A" mask="url(#mask-12)"></path>
            </g>
            <path d="M643.000928,45.6905513 C640.624838,45.6905513 638.690551,47.6248376 638.690551,50.0009282 C638.690551,52.3770187 640.624838,54.3094487 643.000928,54.3094487 C645.377019,54.3094487 647.309449,52.3770187 647.309449,50.0009282 C647.309449,47.6248376 645.377019,45.6905513 643.000928,45.6905513 Z M643.000928,55 C640.244292,55 638,52.7575645 638,50.0009282 C638,47.2442918 640.244292,45 643.000928,45 C645.757565,45 648,47.2442918 648,50.0009282 C648,52.7575645 645.757565,55 643.000928,55 L643.000928,55 Z" id="Fill-432" fill="#171816"></path>
            <path d="M645,49.5 C645,50.3280612 644.328061,51 643.5,51 C642.671939,51 642,50.3280612 642,49.5 C642,48.6719388 642.671939,48 643.5,48 C644.328061,48 645,48.6719388 645,49.5" id="Fill-433" fill="#171816"></path>
            <g id="Group-437" transform="translate(562.000000, 39.000000)">
                <mask id="mask-14" fill="white">
                    <use xlink:href="#path-13"></use>
                </mask>
                <g id="Clip-435"></g>
                <polygon id="Fill-434" fill="#0A0B09" mask="url(#mask-14)" points="0.629066667 12.5941333 20.0686889 12.5941333 20.0686889 0.9056 0.629066667 0.9056"></polygon>
                <path d="M27.1747778,10.5034667 C27.1747778,14.6442667 23.9938222,18 20.0686889,18 C16.1455778,18 12.9626,14.6442667 12.9626,10.5034667 C12.9626,6.36266667 16.1455778,3.00693333 20.0686889,3.00693333 C23.9938222,3.00693333 27.1747778,6.36266667 27.1747778,10.5034667" id="Fill-436" fill="#3B3C3A" mask="url(#mask-14)"></path>
            </g>
            <path d="M582.999072,45.6905513 C580.622981,45.6905513 578.690551,47.6248376 578.690551,50.0009282 C578.690551,52.3770187 580.622981,54.3094487 582.999072,54.3094487 C585.375162,54.3094487 587.309449,52.3770187 587.309449,50.0009282 C587.309449,47.6248376 585.375162,45.6905513 582.999072,45.6905513 Z M582.999072,55 C580.242435,55 578,52.7575645 578,50.0009282 C578,47.2442918 580.242435,45 582.999072,45 C585.755708,45 588,47.2442918 588,50.0009282 C588,52.7575645 585.755708,55 582.999072,55 L582.999072,55 Z" id="Fill-438" fill="#171816"></path>
            <g id="Group-442" transform="translate(556.000000, 41.000000)">
                <mask id="mask-16" fill="white">
                    <use xlink:href="#path-15"></use>
                </mask>
                <g id="Clip-440"></g>
                <path d="M28.962,8.43138462 C28.962,9.59661538 28.086,10.5421538 27.002,10.5421538 C25.92,10.5421538 25.042,9.59661538 25.042,8.43138462 C25.042,7.26615385 25.92,6.32061538 27.002,6.32061538 C28.086,6.32061538 28.962,7.26615385 28.962,8.43138462" id="Fill-439" fill="#171816" mask="url(#mask-16)"></path>
                <path d="M14.804,8.43138462 C14.804,12.612 11.658,16 7.776,16 C3.894,16 0.748,12.612 0.748,8.43138462 C0.748,4.25076923 3.894,0.862769231 7.776,0.862769231 C11.658,0.862769231 14.804,4.25076923 14.804,8.43138462" id="Fill-441" fill="#3B3C3A" mask="url(#mask-16)"></path>
            </g>
            <path d="M563.000928,45.6905513 C560.624838,45.6905513 558.690551,47.6248376 558.690551,50.0009282 C558.690551,52.3770187 560.624838,54.3094487 563.000928,54.3094487 C565.377019,54.3094487 567.309449,52.3770187 567.309449,50.0009282 C567.309449,47.6248376 565.377019,45.6905513 563.000928,45.6905513 Z M563.000928,55 C560.244292,55 558,52.7575645 558,50.0009282 C558,47.2442918 560.244292,45 563.000928,45 C565.757565,45 568,47.2442918 568,50.0009282 C568,52.7575645 565.757565,55 563.000928,55 L563.000928,55 Z" id="Fill-443" fill="#171816"></path>
            <path d="M564,49.5 C564,50.3280612 563.328061,51 562.5,51 C561.671939,51 561,50.3280612 561,49.5 C561,48.6719388 561.671939,48 562.5,48 C563.328061,48 564,48.6719388 564,49.5" id="Fill-444" fill="#171816"></path>
            <path d="M675.761678,0 L547.238322,0 C546.001039,0 545,1.01363655 545,2.26399061 L545,47.7360094 C545,48.9863635 546.001039,50 547.238322,50 L555.538935,50 L555.538935,49.9332335 C555.538935,46.339983 558.421927,43.4265366 561.977616,43.4265366 L580.82317,43.4265366 C584.378859,43.4265366 587.261851,46.339983 587.261851,49.9332335 L587.261851,50 L635.622029,50 L635.622029,49.9332335 C635.622029,46.339983 638.50502,43.4265366 642.06071,43.4265366 L660.906264,43.4265366 C664.461953,43.4265366 667.344944,46.339983 667.344944,49.9332335 L667.344944,50 L675.761678,50 C676.996959,50 678,48.9863635 678,47.7360094 L678,2.26399061 C678,1.01363655 676.996959,0 675.761678,0" id="Fill-445" fill="#DCDBD6"></path>
            <polygon id="Fill-446" fill="#DD4144" points="545 21 678 21 678 4 545 4"></polygon>
            <path d="M673.028736,17 L672.969349,17 C671.329502,17 670,16.0189671 670,14.8096435 L670,10.1882998 C670,8.97897623 671.329502,8 672.969349,8 L673.028736,8 C674.670498,8 676,8.97897623 676,10.1882998 L676,14.8096435 C676,16.0189671 674.670498,17 673.028736,17" id="Fill-447" fill="#6EB1D5"></path>
            <path d="M652.028736,17 L651.969349,17 C650.329502,17 649,16.0189671 649,14.8096435 L649,10.1882998 C649,8.97897623 650.329502,8 651.969349,8 L652.028736,8 C653.670498,8 655,8.97897623 655,10.1882998 L655,14.8096435 C655,16.0189671 653.670498,17 652.028736,17" id="Fill-448" fill="#6EB1D5"></path>
            <path d="M632.028736,17 L631.969349,17 C630.329502,17 629,16.0189671 629,14.8096435 L629,10.1882998 C629,8.97897623 630.329502,8 631.969349,8 L632.028736,8 C633.670498,8 635,8.97897623 635,10.1882998 L635,14.8096435 C635,16.0189671 633.670498,17 632.028736,17" id="Fill-449" fill="#6EB1D5"></path>
            <path d="M613.028736,17 L612.969349,17 C611.329502,17 610,16.0189671 610,14.8096435 L610,10.1882998 C610,8.97897623 611.329502,8 612.969349,8 L613.028736,8 C614.670498,8 616,8.97897623 616,10.1882998 L616,14.8096435 C616,16.0189671 614.670498,17 613.028736,17" id="Fill-450" fill="#6EB1D5"></path>
            <path d="M593.028736,17 L592.969349,17 C591.329502,17 590,16.0189671 590,14.8096435 L590,10.1882998 C590,8.97897623 591.329502,8 592.969349,8 L593.028736,8 C594.670498,8 596,8.97897623 596,10.1882998 L596,14.8096435 C596,16.0189671 594.670498,17 593.028736,17" id="Fill-451" fill="#6EB1D5"></path>
            <path d="M572.028736,17 L571.969349,17 C570.329502,17 569,16.0189671 569,14.8096435 L569,10.1882998 C569,8.97897623 570.329502,8 571.969349,8 L572.028736,8 C573.670498,8 575,8.97897623 575,10.1882998 L575,14.8096435 C575,16.0189671 573.670498,17 572.028736,17" id="Fill-452" fill="#6EB1D5"></path>
            <path d="M553.028736,17 L552.969349,17 C551.329502,17 550,16.0189671 550,14.8096435 L550,10.1882998 C550,8.97897623 551.329502,8 552.969349,8 L553.028736,8 C554.670498,8 556,8.97897623 556,10.1882998 L556,14.8096435 C556,16.0189671 554.670498,17 553.028736,17" id="Fill-453" fill="#6EB1D5"></path>
            <path d="M673.028736,39 L672.969349,39 C671.329502,39 670,38.0210238 670,36.8117002 L670,32.1882998 C670,30.9810329 671.329502,30 672.969349,30 L673.028736,30 C674.670498,30 676,30.9810329 676,32.1882998 L676,36.8117002 C676,38.0210238 674.670498,39 673.028736,39" id="Fill-454" fill="#6EB1D5"></path>
            <path d="M632.028736,39 L631.969349,39 C630.329502,39 629,38.0210238 629,36.8117002 L629,32.1882998 C629,30.9810329 630.329502,30 631.969349,30 L632.028736,30 C633.670498,30 635,30.9810329 635,32.1882998 L635,36.8117002 C635,38.0210238 633.670498,39 632.028736,39" id="Fill-455" fill="#6EB1D5"></path>
            <path d="M652.028736,39 L651.969349,39 C650.329502,39 649,38.0210238 649,36.8117002 L649,32.1882998 C649,30.9810329 650.329502,30 651.969349,30 L652.028736,30 C653.670498,30 655,30.9810329 655,32.1882998 L655,36.8117002 C655,38.0210238 653.670498,39 652.028736,39" id="Fill-456" fill="#6EB1D5"></path>
            <path d="M593.028736,39 L592.969349,39 C591.329502,39 590,38.0210238 590,36.8117002 L590,32.1882998 C590,30.9810329 591.329502,30 592.969349,30 L593.028736,30 C594.670498,30 596,30.9810329 596,32.1882998 L596,36.8117002 C596,38.0210238 594.670498,39 593.028736,39" id="Fill-457" fill="#6EB1D5"></path>
            <path d="M572.028736,39 L571.969349,39 C570.329502,39 569,38.0210238 569,36.8117002 L569,32.1882998 C569,30.9810329 570.329502,30 571.969349,30 L572.028736,30 C573.670498,30 575,30.9810329 575,32.1882998 L575,36.8117002 C575,38.0210238 573.670498,39 572.028736,39" id="Fill-458" fill="#6EB1D5"></path>
            <path d="M553.028736,39 L552.969349,39 C551.329502,39 550,38.0210238 550,36.8117002 L550,32.1882998 C550,30.9810329 551.329502,30 552.969349,30 L553.028736,30 C554.670498,30 556,30.9810329 556,32.1882998 L556,36.8117002 C556,38.0210238 554.670498,39 553.028736,39" id="Fill-459" fill="#6EB1D5"></path>
            <path d="M617,33.9712644 L617,34.0306513 C617,35.6704981 616.018967,37 614.8117,37 L610.1883,37 C608.978976,37 608,35.6704981 608,34.0306513 L608,33.9712644 C608,32.3295019 608.978976,31 610.1883,31 L614.8117,31 C616.018967,31 617,32.3295019 617,33.9712644" id="Fill-460" fill="#6EB1D5"></path>
            <path d="M607.600439,27.4919564 C605.926795,27.4919564 604.561235,28.7929424 604.561235,30.3943089 L604.561235,44.6056911 C604.561235,46.2070576 605.926795,47.5080436 607.600439,47.5080436 L616.399561,47.5080436 C618.075286,47.5080436 619.438765,46.2070576 619.438765,44.6056911 L619.438765,30.3943089 C619.438765,28.7929424 618.075286,27.4919564 616.399561,27.4919564 L607.600439,27.4919564 Z M616.399561,49 L607.600439,49 C605.064994,49 603,47.0286283 603,44.6056911 L603,30.3943089 C603,27.9713717 605.064994,26 607.600439,26 L616.399561,26 C618.937088,26 621,27.9713717 621,30.3943089 L621,44.6056911 C621,47.0286283 618.937088,49 616.399561,49 L616.399561,49 Z" id="Fill-461" fill="#ACADA9"></path>
            <g id="Group-465" transform="translate(370.000000, 39.000000)">
                <mask id="mask-18" fill="white">
                    <use xlink:href="#path-17"></use>
                </mask>
                <g id="Clip-463"></g>
                <polygon id="Fill-462" fill="#0A0B09" mask="url(#mask-18)" points="-0.002 12.5941333 19.226 12.5941333 19.226 0.9056 -0.002 0.9056"></polygon>
                <path d="M26.254,10.5034667 C26.254,14.6442667 23.108,18 19.226,18 C15.344,18 12.198,14.6442667 12.198,10.5034667 C12.198,6.36266667 15.344,3.00693333 19.226,3.00693333 C23.108,3.00693333 26.254,6.36266667 26.254,10.5034667" id="Fill-464" fill="#3B3C3A" mask="url(#mask-18)"></path>
            </g>
            <path d="M390.000928,45.6905513 C387.624838,45.6905513 385.690551,47.6248376 385.690551,50.0009282 C385.690551,52.3770187 387.624838,54.3094487 390.000928,54.3094487 C392.377019,54.3094487 394.309449,52.3770187 394.309449,50.0009282 C394.309449,47.6248376 392.377019,45.6905513 390.000928,45.6905513 Z M390.000928,55 C387.242435,55 385,52.7575645 385,50.0009282 C385,47.2442918 387.242435,45 390.000928,45 C392.757565,45 395,47.2442918 395,50.0009282 C395,52.7575645 392.757565,55 390.000928,55 L390.000928,55 Z" id="Fill-466" fill="#171816"></path>
            <g id="Group-470" transform="translate(362.000000, 41.000000)">
                <mask id="mask-20" fill="white">
                    <use xlink:href="#path-19"></use>
                </mask>
                <g id="Clip-468"></g>
                <path d="M29.3224038,8.43138462 C29.3224038,9.59661538 28.4359615,10.5421538 27.3435577,10.5421538 C26.2491346,10.5421538 25.3647115,9.59661538 25.3647115,8.43138462 C25.3647115,7.26615385 26.2491346,6.32061538 27.3435577,6.32061538 C28.4359615,6.32061538 29.3224038,7.26615385 29.3224038,8.43138462" id="Fill-467" fill="#171816" mask="url(#mask-20)"></path>
                <path d="M15.02625,8.43138462 C15.02625,12.612 11.85,16 7.93067308,16 C4.01336538,16 0.835096154,12.612 0.835096154,8.43138462 C0.835096154,4.25076923 4.01336538,0.862769231 7.93067308,0.862769231 C11.85,0.862769231 15.02625,4.25076923 15.02625,8.43138462" id="Fill-469" fill="#3B3C3A" mask="url(#mask-20)"></path>
            </g>
            <path d="M368.999072,45.6905513 C366.622981,45.6905513 364.690551,47.6248376 364.690551,50.0009282 C364.690551,52.3770187 366.622981,54.3094487 368.999072,54.3094487 C371.375162,54.3094487 373.309449,52.3770187 373.309449,50.0009282 C373.309449,47.6248376 371.375162,45.6905513 368.999072,45.6905513 Z M368.999072,55 C366.242435,55 364,52.7575645 364,50.0009282 C364,47.2442918 366.242435,45 368.999072,45 C371.755708,45 374,47.2442918 374,50.0009282 C374,52.7575645 371.755708,55 368.999072,55 L368.999072,55 Z" id="Fill-471" fill="#171816"></path>
            <path d="M371,49.5 C371,50.3280612 370.328404,51 369.499235,51 C368.671596,51 368,50.3280612 368,49.5 C368,48.6719388 368.671596,48 369.499235,48 C370.328404,48 371,48.6719388 371,49.5" id="Fill-472" fill="#171816"></path>
            <g id="Group-476" transform="translate(289.000000, 39.000000)">
                <mask id="mask-22" fill="white">
                    <use xlink:href="#path-21"></use>
                </mask>
                <g id="Clip-474"></g>
                <polygon id="Fill-473" fill="#0A0B09" mask="url(#mask-22)" points="-0.002 12.5941333 19.226 12.5941333 19.226 0.9056 -0.002 0.9056"></polygon>
                <path d="M26.254,10.5034667 C26.254,14.6442667 23.108,18 19.226,18 C15.344,18 12.198,14.6442667 12.198,10.5034667 C12.198,6.36266667 15.344,3.00693333 19.226,3.00693333 C23.108,3.00693333 26.254,6.36266667 26.254,10.5034667" id="Fill-475" fill="#3B3C3A" mask="url(#mask-22)"></path>
            </g>
            <path d="M309.000928,45.6905513 C306.624838,45.6905513 304.690551,47.6248376 304.690551,50.0009282 C304.690551,52.3770187 306.624838,54.3094487 309.000928,54.3094487 C311.377019,54.3094487 313.309449,52.3770187 313.309449,50.0009282 C313.309449,47.6248376 311.377019,45.6905513 309.000928,45.6905513 Z M309.000928,55 C306.242435,55 304,52.7575645 304,50.0009282 C304,47.2442918 306.242435,45 309.000928,45 C311.757565,45 314,47.2442918 314,50.0009282 C314,52.7575645 311.757565,55 309.000928,55 L309.000928,55 Z" id="Fill-477" fill="#171816"></path>
            <g id="Group-481" transform="translate(282.000000, 41.000000)">
                <mask id="mask-24" fill="white">
                    <use xlink:href="#path-23"></use>
                </mask>
                <g id="Clip-479"></g>
                <path d="M29.3224038,8.43138462 C29.3224038,9.59661538 28.4359615,10.5421538 27.3435577,10.5421538 C26.2491346,10.5421538 25.3647115,9.59661538 25.3647115,8.43138462 C25.3647115,7.26615385 26.2491346,6.32061538 27.3435577,6.32061538 C28.4359615,6.32061538 29.3224038,7.26615385 29.3224038,8.43138462" id="Fill-478" fill="#171816" mask="url(#mask-24)"></path>
                <path d="M15.02625,8.43138462 C15.02625,12.612 11.85,16 7.93067308,16 C4.01336538,16 0.835096154,12.612 0.835096154,8.43138462 C0.835096154,4.25076923 4.01336538,0.862769231 7.93067308,0.862769231 C11.85,0.862769231 15.02625,4.25076923 15.02625,8.43138462" id="Fill-480" fill="#3B3C3A" mask="url(#mask-24)"></path>
            </g>
            <path d="M288.999072,45.6905513 C286.622981,45.6905513 284.690551,47.6248376 284.690551,50.0009282 C284.690551,52.3770187 286.622981,54.3094487 288.999072,54.3094487 C291.375162,54.3094487 293.309449,52.3770187 293.309449,50.0009282 C293.309449,47.6248376 291.375162,45.6905513 288.999072,45.6905513 Z M288.999072,55 C286.242435,55 284,52.7575645 284,50.0009282 C284,47.2442918 286.242435,45 288.999072,45 C291.755708,45 294,47.2442918 294,50.0009282 C294,52.7575645 291.755708,55 288.999072,55 L288.999072,55 Z" id="Fill-482" fill="#171816"></path>
            <path d="M290,49.5 C290,50.3280612 289.328404,51 288.499235,51 C287.671596,51 287,50.3280612 287,49.5 C287,48.6719388 287.671596,48 288.499235,48 C289.328404,48 290,48.6719388 290,49.5" id="Fill-483" fill="#171816"></path>
            <path d="M403.759709,0 L275.240291,0 C274.003026,0 273,1.01363655 273,2.26399061 L273,47.7360094 C273,48.9863635 274.003026,50 275.240291,50 L283.538776,50 L283.538776,49.9332335 C283.538776,46.339983 286.421724,43.4265366 289.979362,43.4265366 L308.824633,43.4265366 C312.380269,43.4265366 315.263217,46.339983 315.263217,49.9332335 L315.263217,50 L363.620665,50 L363.620665,49.9332335 C363.620665,46.339983 366.503613,43.4265366 370.061251,43.4265366 L388.906521,43.4265366 C392.462157,43.4265366 395.345105,46.339983 395.345105,49.9332335 L395.345105,50 L403.759709,50 C404.996974,50 406,48.9863635 406,47.7360094 L406,2.26399061 C406,1.01363655 404.996974,0 403.759709,0" id="Fill-484" fill="#DCDBD6"></path>
            <polygon id="Fill-485" fill="#DD4144" points="273 21 406 21 406 4 273 4"></polygon>
            <path d="M400.030651,17 L399.969349,17 C398.329502,17 397,16.0189671 397,14.8096435 L397,10.1882998 C397,8.97897623 398.329502,8 399.969349,8 L400.030651,8 C401.670498,8 403,8.97897623 403,10.1882998 L403,14.8096435 C403,16.0189671 401.670498,17 400.030651,17" id="Fill-486" fill="#6EB1D5"></path>
            <path d="M378.030651,17 L377.969349,17 C376.329502,17 375,16.0189671 375,14.8096435 L375,10.1882998 C375,8.97897623 376.329502,8 377.969349,8 L378.030651,8 C379.670498,8 381,8.97897623 381,10.1882998 L381,14.8096435 C381,16.0189671 379.670498,17 378.030651,17" id="Fill-487" fill="#6EB1D5"></path>
            <path d="M359.030651,17 L358.969349,17 C357.329502,17 356,16.0189671 356,14.8096435 L356,10.1882998 C356,8.97897623 357.329502,8 358.969349,8 L359.030651,8 C360.670498,8 362,8.97897623 362,10.1882998 L362,14.8096435 C362,16.0189671 360.670498,17 359.030651,17" id="Fill-488" fill="#6EB1D5"></path>
            <path d="M339.030651,17 L338.969349,17 C337.329502,17 336,16.0189671 336,14.8096435 L336,10.1882998 C336,8.97897623 337.329502,8 338.969349,8 L339.030651,8 C340.670498,8 342,8.97897623 342,10.1882998 L342,14.8096435 C342,16.0189671 340.670498,17 339.030651,17" id="Fill-489" fill="#6EB1D5"></path>
            <path d="M319.030651,17 L318.969349,17 C317.329502,17 316,16.0189671 316,14.8096435 L316,10.1882998 C316,8.97897623 317.329502,8 318.969349,8 L319.030651,8 C320.670498,8 322,8.97897623 322,10.1882998 L322,14.8096435 C322,16.0189671 320.670498,17 319.030651,17" id="Fill-490" fill="#6EB1D5"></path>
            <path d="M299.030651,17 L298.969349,17 C297.329502,17 296,16.0189671 296,14.8096435 L296,10.1882998 C296,8.97897623 297.329502,8 298.969349,8 L299.030651,8 C300.670498,8 302,8.97897623 302,10.1882998 L302,14.8096435 C302,16.0189671 300.670498,17 299.030651,17" id="Fill-491" fill="#6EB1D5"></path>
            <path d="M279.030651,17 L278.969349,17 C277.329502,17 276,16.0189671 276,14.8096435 L276,10.1882998 C276,8.97897623 277.329502,8 278.969349,8 L279.030651,8 C280.670498,8 282,8.97897623 282,10.1882998 L282,14.8096435 C282,16.0189671 280.670498,17 279.030651,17" id="Fill-492" fill="#6EB1D5"></path>
            <path d="M400.030651,39 L399.969349,39 C398.329502,39 397,38.0210238 397,36.8117002 L397,32.1882998 C397,30.9810329 398.329502,30 399.969349,30 L400.030651,30 C401.670498,30 403,30.9810329 403,32.1882998 L403,36.8117002 C403,38.0210238 401.670498,39 400.030651,39" id="Fill-493" fill="#6EB1D5"></path>
            <path d="M359.030651,39 L358.969349,39 C357.329502,39 356,38.0210238 356,36.8117002 L356,32.1882998 C356,30.9810329 357.329502,30 358.969349,30 L359.030651,30 C360.670498,30 362,30.9810329 362,32.1882998 L362,36.8117002 C362,38.0210238 360.670498,39 359.030651,39" id="Fill-494" fill="#6EB1D5"></path>
            <path d="M378.030651,39 L377.969349,39 C376.329502,39 375,38.0210238 375,36.8117002 L375,32.1882998 C375,30.9810329 376.329502,30 377.969349,30 L378.030651,30 C379.670498,30 381,30.9810329 381,32.1882998 L381,36.8117002 C381,38.0210238 379.670498,39 378.030651,39" id="Fill-495" fill="#6EB1D5"></path>
            <path d="M319.030651,39 L318.969349,39 C317.329502,39 316,38.0210238 316,36.8117002 L316,32.1882998 C316,30.9810329 317.329502,30 318.969349,30 L319.030651,30 C320.670498,30 322,30.9810329 322,32.1882998 L322,36.8117002 C322,38.0210238 320.670498,39 319.030651,39" id="Fill-496" fill="#6EB1D5"></path>
            <path d="M299.030651,39 L298.969349,39 C297.329502,39 296,38.0210238 296,36.8117002 L296,32.1882998 C296,30.9810329 297.329502,30 298.969349,30 L299.030651,30 C300.670498,30 302,30.9810329 302,32.1882998 L302,36.8117002 C302,38.0210238 300.670498,39 299.030651,39" id="Fill-497" fill="#6EB1D5"></path>
            <path d="M279.030651,39 L278.969349,39 C277.329502,39 276,38.0210238 276,36.8117002 L276,32.1882998 C276,30.9810329 277.329502,30 278.969349,30 L279.030651,30 C280.670498,30 282,30.9810329 282,32.1882998 L282,36.8117002 C282,38.0210238 280.670498,39 279.030651,39" id="Fill-498" fill="#6EB1D5"></path>
            <path d="M343,33.9712644 L343,34.0306513 C343,35.6704981 342.021024,37 340.8117,37 L336.1883,37 C334.978976,37 334,35.6704981 334,34.0306513 L334,33.9712644 C334,32.3295019 334.978976,31 336.1883,31 L340.8117,31 C342.021024,31 343,32.3295019 343,33.9712644" id="Fill-499" fill="#6EB1D5"></path>
            <path d="M335.600972,27.4919564 C333.925052,27.4919564 332.561416,28.7929424 332.561416,30.3943089 L332.561416,44.6056911 C332.561416,46.2070576 333.925052,47.5080436 335.600972,47.5080436 L344.399028,47.5080436 C346.074948,47.5080436 347.438584,46.2070576 347.438584,44.6056911 L347.438584,30.3943089 C347.438584,28.7929424 346.074948,27.4919564 344.399028,27.4919564 L335.600972,27.4919564 Z M344.399028,49 L335.600972,49 C333.063151,49 331,47.0286283 331,44.6056911 L331,30.3943089 C331,27.9713717 333.063151,26 335.600972,26 L344.399028,26 C346.936849,26 349,27.9713717 349,30.3943089 L349,44.6056911 C349,47.0286283 346.936849,49 344.399028,49 L344.399028,49 Z" id="Fill-500" fill="#ACADA9"></path>
            <g id="Group-504" transform="translate(232.000000, 39.000000)">
                <mask id="mask-26" fill="white">
                    <use xlink:href="#path-25"></use>
                </mask>
                <g id="Clip-502"></g>
                <polygon id="Fill-501" fill="#0A0B09" mask="url(#mask-26)" points="0.912 12.5941333 20.14 12.5941333 20.14 0.9056 0.912 0.9056"></polygon>
                <path d="M27.168,10.5034667 C27.168,14.6442667 24.02,18 20.14,18 C16.258,18 13.112,14.6442667 13.112,10.5034667 C13.112,6.36266667 16.258,3.00693333 20.14,3.00693333 C24.02,3.00693333 27.168,6.36266667 27.168,10.5034667" id="Fill-503" fill="#3B3C3A" mask="url(#mask-26)"></path>
            </g>
            <path d="M252.000928,45.6905513 C249.624838,45.6905513 247.690551,47.6248376 247.690551,50.0009282 C247.690551,52.3770187 249.624838,54.3094487 252.000928,54.3094487 C254.377019,54.3094487 256.309449,52.3770187 256.309449,50.0009282 C256.309449,47.6248376 254.377019,45.6905513 252.000928,45.6905513 Z M252.000928,55 C249.242435,55 247,52.7575645 247,50.0009282 C247,47.2442918 249.242435,45 252.000928,45 C254.757565,45 257,47.2442918 257,50.0009282 C257,52.7575645 254.757565,55 252.000928,55 L252.000928,55 Z" id="Fill-505" fill="#171816"></path>
            <g id="Group-509" transform="translate(225.000000, 41.000000)">
                <mask id="mask-28" fill="white">
                    <use xlink:href="#path-27"></use>
                </mask>
                <g id="Clip-507"></g>
                <path d="M29.2355769,8.43138462 C29.2355769,9.59661538 28.3491346,10.5421538 27.2567308,10.5421538 C26.1623077,10.5421538 25.2778846,9.59661538 25.2778846,8.43138462 C25.2778846,7.26615385 26.1623077,6.32061538 27.2567308,6.32061538 C28.3491346,6.32061538 29.2355769,7.26615385 29.2355769,8.43138462" id="Fill-506" fill="#171816" mask="url(#mask-28)"></path>
                <path d="M14.9394231,8.43138462 C14.9394231,12.612 11.7631731,16 7.84384615,16 C3.92653846,16 0.748269231,12.612 0.748269231,8.43138462 C0.748269231,4.25076923 3.92653846,0.862769231 7.84384615,0.862769231 C11.7631731,0.862769231 14.9394231,4.25076923 14.9394231,8.43138462" id="Fill-508" fill="#3B3C3A" mask="url(#mask-28)"></path>
            </g>
            <path d="M232.999072,45.6905513 C230.622981,45.6905513 228.690551,47.6248376 228.690551,50.0009282 C228.690551,52.3770187 230.622981,54.3094487 232.999072,54.3094487 C235.375162,54.3094487 237.309449,52.3770187 237.309449,50.0009282 C237.309449,47.6248376 235.375162,45.6905513 232.999072,45.6905513 Z M232.999072,55 C230.242435,55 228,52.7575645 228,50.0009282 C228,47.2442918 230.242435,45 232.999072,45 C235.755708,45 238,47.2442918 238,50.0009282 C238,52.7575645 235.755708,55 232.999072,55 L232.999072,55 Z" id="Fill-510" fill="#171816"></path>
            <path d="M235,49.5 C235,50.3280612 234.329592,51 233.5,51 C232.671939,51 232,50.3280612 232,49.5 C232,48.6719388 232.671939,48 233.5,48 C234.329592,48 235,48.6719388 235,49.5" id="Fill-511" fill="#171816"></path>
            <g id="Group-515" transform="translate(152.000000, 39.000000)">
                <mask id="mask-30" fill="white">
                    <use xlink:href="#path-29"></use>
                </mask>
                <g id="Clip-513"></g>
                <polygon id="Fill-512" fill="#0A0B09" mask="url(#mask-30)" points="0.912 12.5941333 20.138 12.5941333 20.138 0.9056 0.912 0.9056"></polygon>
                <path d="M27.168,10.5034667 C27.168,14.6442667 24.02,18 20.14,18 C16.258,18 13.112,14.6442667 13.112,10.5034667 C13.112,6.36266667 16.258,3.00693333 20.14,3.00693333 C24.02,3.00693333 27.168,6.36266667 27.168,10.5034667" id="Fill-514" fill="#3B3C3A" mask="url(#mask-30)"></path>
            </g>
            <path d="M172.000928,45.6905513 C169.624838,45.6905513 167.690551,47.6248376 167.690551,50.0009282 C167.690551,52.3770187 169.624838,54.3094487 172.000928,54.3094487 C174.377019,54.3094487 176.309449,52.3770187 176.309449,50.0009282 C176.309449,47.6248376 174.377019,45.6905513 172.000928,45.6905513 Z M172.000928,55 C169.242435,55 167,52.7575645 167,50.0009282 C167,47.2442918 169.242435,45 172.000928,45 C174.757565,45 177,47.2442918 177,50.0009282 C177,52.7575645 174.757565,55 172.000928,55 L172.000928,55 Z" id="Fill-516" fill="#171816"></path>
            <g id="Group-520" transform="translate(144.000000, 41.000000)">
                <mask id="mask-32" fill="white">
                    <use xlink:href="#path-31"></use>
                </mask>
                <g id="Clip-518"></g>
                <path d="M29.2355769,8.43138462 C29.2355769,9.59661538 28.3491346,10.5421538 27.2567308,10.5421538 C26.1623077,10.5421538 25.2778846,9.59661538 25.2778846,8.43138462 C25.2778846,7.26615385 26.1623077,6.32061538 27.2567308,6.32061538 C28.3491346,6.32061538 29.2355769,7.26615385 29.2355769,8.43138462" id="Fill-517" fill="#171816" mask="url(#mask-32)"></path>
                <path d="M14.9394231,8.43138462 C14.9394231,12.612 11.7631731,16 7.84384615,16 C3.92653846,16 0.748269231,12.612 0.748269231,8.43138462 C0.748269231,4.25076923 3.92653846,0.862769231 7.84384615,0.862769231 C11.7631731,0.862769231 14.9394231,4.25076923 14.9394231,8.43138462" id="Fill-519" fill="#3B3C3A" mask="url(#mask-32)"></path>
            </g>
            <path d="M152.999072,45.6905513 C150.622981,45.6905513 148.690551,47.6248376 148.690551,50.0009282 C148.690551,52.3770187 150.622981,54.3094487 152.999072,54.3094487 C155.375162,54.3094487 157.309449,52.3770187 157.309449,50.0009282 C157.309449,47.6248376 155.375162,45.6905513 152.999072,45.6905513 Z M152.999072,55 C150.242435,55 148,52.7575645 148,50.0009282 C148,47.2442918 150.242435,45 152.999072,45 C155.755708,45 158,47.2442918 158,50.0009282 C158,52.7575645 155.755708,55 152.999072,55 L152.999072,55 Z" id="Fill-521" fill="#171816"></path>
            <path d="M154,49.5 C154,50.3280612 153.329592,51 152.5,51 C151.671939,51 151,50.3280612 151,49.5 C151,48.6719388 151.671939,48 152.5,48 C153.329592,48 154,48.6719388 154,49.5" id="Fill-522" fill="#171816"></path>
            <path d="M266.761678,0 L138.240325,0 C137.003041,0 136,1.01363655 136,2.26399061 L136,47.7360094 C136,48.9863635 137.003041,50 138.240325,50 L146.538935,50 L146.538935,49.9332335 C146.538935,46.339983 149.421927,43.4265366 152.979618,43.4265366 L171.825172,43.4265366 C175.380861,43.4265366 178.263853,46.339983 178.263853,49.9332335 L178.263853,50 L226.622029,50 L226.622029,49.9332335 C226.622029,46.339983 229.50502,43.4265366 233.062712,43.4265366 L251.906264,43.4265366 C255.463955,43.4265366 258.346946,46.339983 258.346946,49.9332335 L258.346946,50 L266.761678,50 C267.998961,50 269,48.9863635 269,47.7360094 L269,2.26399061 C269,1.01363655 267.998961,0 266.761678,0" id="Fill-523" fill="#DCDBD6"></path>
            <polygon id="Fill-524" fill="#DD4144" points="136 21 269 21 269 4 136 4"></polygon>
            <path d="M262.030651,17 L261.969349,17 C260.329502,17 259,16.0189671 259,14.8096435 L259,10.1882998 C259,8.97897623 260.329502,8 261.969349,8 L262.030651,8 C263.670498,8 265,8.97897623 265,10.1882998 L265,14.8096435 C265,16.0189671 263.670498,17 262.030651,17" id="Fill-525" fill="#6EB1D5"></path>
            <path d="M243.030651,17 L242.969349,17 C241.329502,17 240,16.0189671 240,14.8096435 L240,10.1882998 C240,8.97897623 241.329502,8 242.969349,8 L243.030651,8 C244.670498,8 246,8.97897623 246,10.1882998 L246,14.8096435 C246,16.0189671 244.670498,17 243.030651,17" id="Fill-526" fill="#6EB1D5"></path>
            <path d="M223.030651,17 L222.969349,17 C221.329502,17 220,16.0189671 220,14.8096435 L220,10.1882998 C220,8.97897623 221.329502,8 222.969349,8 L223.030651,8 C224.670498,8 226,8.97897623 226,10.1882998 L226,14.8096435 C226,16.0189671 224.670498,17 223.030651,17" id="Fill-527" fill="#6EB1D5"></path>
            <path d="M203.030651,17 L202.969349,17 C201.329502,17 200,16.0189671 200,14.8096435 L200,10.1882998 C200,8.97897623 201.329502,8 202.969349,8 L203.030651,8 C204.670498,8 206,8.97897623 206,10.1882998 L206,14.8096435 C206,16.0189671 204.670498,17 203.030651,17" id="Fill-528" fill="#6EB1D5"></path>
            <path d="M182.030651,17 L181.969349,17 C180.329502,17 179,16.0189671 179,14.8096435 L179,10.1882998 C179,8.97897623 180.329502,8 181.969349,8 L182.030651,8 C183.670498,8 185,8.97897623 185,10.1882998 L185,14.8096435 C185,16.0189671 183.670498,17 182.030651,17" id="Fill-529" fill="#6EB1D5"></path>
            <path d="M163.030651,17 L162.969349,17 C161.329502,17 160,16.0189671 160,14.8096435 L160,10.1882998 C160,8.97897623 161.329502,8 162.969349,8 L163.030651,8 C164.670498,8 166,8.97897623 166,10.1882998 L166,14.8096435 C166,16.0189671 164.670498,17 163.030651,17" id="Fill-530" fill="#6EB1D5"></path>
            <path d="M143.030651,17 L142.969349,17 C141.329502,17 140,16.0189671 140,14.8096435 L140,10.1882998 C140,8.97897623 141.329502,8 142.969349,8 L143.030651,8 C144.670498,8 146,8.97897623 146,10.1882998 L146,14.8096435 C146,16.0189671 144.670498,17 143.030651,17" id="Fill-531" fill="#6EB1D5"></path>
            <path d="M262.030651,39 L261.969349,39 C260.329502,39 259,38.0210238 259,36.8117002 L259,32.1882998 C259,30.9810329 260.329502,30 261.969349,30 L262.030651,30 C263.670498,30 265,30.9810329 265,32.1882998 L265,36.8117002 C265,38.0210238 263.670498,39 262.030651,39" id="Fill-532" fill="#6EB1D5"></path>
            <path d="M223.030651,39 L222.969349,39 C221.329502,39 220,38.0210238 220,36.8117002 L220,32.1882998 C220,30.9810329 221.329502,30 222.969349,30 L223.030651,30 C224.670498,30 226,30.9810329 226,32.1882998 L226,36.8117002 C226,38.0210238 224.670498,39 223.030651,39" id="Fill-533" fill="#6EB1D5"></path>
            <path d="M243.030651,39 L242.969349,39 C241.329502,39 240,38.0210238 240,36.8117002 L240,32.1882998 C240,30.9810329 241.329502,30 242.969349,30 L243.030651,30 C244.670498,30 246,30.9810329 246,32.1882998 L246,36.8117002 C246,38.0210238 244.670498,39 243.030651,39" id="Fill-534" fill="#6EB1D5"></path>
            <path d="M182.030651,39 L181.969349,39 C180.329502,39 179,38.0210238 179,36.8117002 L179,32.1882998 C179,30.9810329 180.329502,30 181.969349,30 L182.030651,30 C183.670498,30 185,30.9810329 185,32.1882998 L185,36.8117002 C185,38.0210238 183.670498,39 182.030651,39" id="Fill-535" fill="#6EB1D5"></path>
            <path d="M163.030651,39 L162.969349,39 C161.329502,39 160,38.0210238 160,36.8117002 L160,32.1882998 C160,30.9810329 161.329502,30 162.969349,30 L163.030651,30 C164.670498,30 166,30.9810329 166,32.1882998 L166,36.8117002 C166,38.0210238 164.670498,39 163.030651,39" id="Fill-536" fill="#6EB1D5"></path>
            <path d="M143.030651,39 L142.969349,39 C141.329502,39 140,38.0210238 140,36.8117002 L140,32.1882998 C140,30.9810329 141.329502,30 142.969349,30 L143.030651,30 C144.670498,30 146,30.9810329 146,32.1882998 L146,36.8117002 C146,38.0210238 144.670498,39 143.030651,39" id="Fill-537" fill="#6EB1D5"></path>
            <path d="M207,33.9712644 L207,34.0306513 C207,35.6704981 206.021024,37 204.8117,37 L200.1883,37 C198.978976,37 198,35.6704981 198,34.0306513 L198,33.9712644 C198,32.3295019 198.978976,31 200.1883,31 L204.8117,31 C206.021024,31 207,32.3295019 207,33.9712644" id="Fill-538" fill="#6EB1D5"></path>
            <path d="M198.600972,27.4919564 C196.925052,27.4919564 195.561416,28.7929424 195.561416,30.3943089 L195.561416,44.6056911 C195.561416,46.2070576 196.925052,47.5080436 198.600972,47.5080436 L207.399028,47.5080436 C209.074948,47.5080436 210.438584,46.2070576 210.438584,44.6056911 L210.438584,30.3943089 C210.438584,28.7929424 209.074948,27.4919564 207.399028,27.4919564 L198.600972,27.4919564 Z M207.399028,49 L198.600972,49 C196.063151,49 194,47.0286283 194,44.6056911 L194,30.3943089 C194,27.9713717 196.063151,26 198.600972,26 L207.399028,26 C209.936849,26 212,27.9713717 212,30.3943089 L212,44.6056911 C212,47.0286283 209.936849,49 207.399028,49 L207.399028,49 Z" id="Fill-539" fill="#ACADA9"></path>
            <g id="Group-543" transform="translate(762.000000, 39.000000)">
                <mask id="mask-34" fill="white">
                    <use xlink:href="#path-33"></use>
                </mask>
                <g id="Clip-541"></g>
                <polygon id="Fill-540" fill="#0A0B09" mask="url(#mask-34)" points="0.480298137 12.5941333 19.8257143 12.5941333 19.8257143 0.9056 0.480298137 0.9056"></polygon>
                <path d="M26.8973665,10.5034667 C26.8973665,14.6442667 23.7318261,18 19.8257143,18 C15.9196025,18 12.7540621,14.6442667 12.7540621,10.5034667 C12.7540621,6.36266667 15.9196025,3.00693333 19.8257143,3.00693333 C23.7318261,3.00693333 26.8973665,6.36266667 26.8973665,10.5034667" id="Fill-542" fill="#3B3C3A" mask="url(#mask-34)"></path>
            </g>
            <path d="M783,45.6905513 C780.62435,45.6905513 778.690423,47.6248376 778.690423,50.0009282 C778.690423,52.3770187 780.62435,54.3094487 783,54.3094487 C785.37565,54.3094487 787.307721,52.3770187 787.307721,50.0009282 C787.307721,47.6248376 785.37565,45.6905513 783,45.6905513 Z M783,55 C780.243875,55 778,52.7575645 778,50.0009282 C778,47.2442918 780.243875,45 783,45 C785.756125,45 788,47.2442918 788,50.0009282 C788,52.7575645 785.756125,55 783,55 L783,55 Z" id="Fill-544" fill="#171816"></path>
            <g id="Group-548" transform="translate(756.000000, 41.000000)">
                <mask id="mask-36" fill="white">
                    <use xlink:href="#path-35"></use>
                </mask>
                <g id="Clip-546"></g>
                <path d="M28.98376,8.43138462 C28.98376,9.59661538 28.1010773,10.5421538 27.0133067,10.5421538 C25.925536,10.5421538 25.0428533,9.59661538 25.0428533,8.43138462 C25.0428533,7.26615385 25.925536,6.32061538 27.0133067,6.32061538 C28.1010773,6.32061538 28.98376,7.26615385 28.98376,8.43138462" id="Fill-545" fill="#171816" mask="url(#mask-36)"></path>
                <path d="M14.7502507,8.43138462 C14.7502507,12.612 11.5854613,16 7.684768,16 C3.782064,16 0.619285333,12.612 0.619285333,8.43138462 C0.619285333,4.25076923 3.782064,0.862769231 7.684768,0.862769231 C11.5854613,0.862769231 14.7502507,4.25076923 14.7502507,8.43138462" id="Fill-547" fill="#3B3C3A" mask="url(#mask-36)"></path>
            </g>
            <path d="M763.000928,45.6905513 C760.624838,45.6905513 758.690551,47.6248376 758.690551,50.0009282 C758.690551,52.3770187 760.624838,54.3094487 763.000928,54.3094487 C765.377019,54.3094487 767.309449,52.3770187 767.309449,50.0009282 C767.309449,47.6248376 765.377019,45.6905513 763.000928,45.6905513 Z M763.000928,55 C760.242435,55 758,52.7575645 758,50.0009282 C758,47.2442918 760.242435,45 763.000928,45 C765.757565,45 768,47.2442918 768,50.0009282 C768,52.7575645 765.757565,55 763.000928,55 L763.000928,55 Z" id="Fill-549" fill="#171816"></path>
            <g id="Group-553" transform="translate(712.000000, 41.000000)">
                <mask id="mask-38" fill="white">
                    <use xlink:href="#path-37"></use>
                </mask>
                <g id="Clip-551"></g>
                <path d="M53.5953913,8.43138462 C53.5953913,9.59661538 52.6983043,10.5421538 51.5927826,10.5421538 C50.4852174,10.5421538 49.5901739,9.59661538 49.5901739,8.43138462 C49.5901739,7.26615385 50.4852174,6.32061538 51.5927826,6.32061538 C52.6983043,6.32061538 53.5953913,7.26615385 53.5953913,8.43138462" id="Fill-550" fill="#171816" mask="url(#mask-38)"></path>
                <path d="M14.5281739,8.43138462 C14.5281739,12.612 11.3137826,16 7.3473913,16 C3.381,16 0.166608696,12.612 0.166608696,8.43138462 C0.166608696,4.25076923 3.381,0.862769231 7.3473913,0.862769231 C11.3137826,0.862769231 14.5281739,4.25076923 14.5281739,8.43138462" id="Fill-552" fill="#3B3C3A" mask="url(#mask-38)"></path>
            </g>
            <path d="M720.000928,45.6905513 C717.624838,45.6905513 715.690551,47.6248376 715.690551,50.0009282 C715.690551,52.3770187 717.624838,54.3094487 720.000928,54.3094487 C722.377019,54.3094487 724.309449,52.3770187 724.309449,50.0009282 C724.309449,47.6248376 722.377019,45.6905513 720.000928,45.6905513 Z M720.000928,55 C717.242435,55 715,52.7575645 715,50.0009282 C715,47.2442918 717.242435,45 720.000928,45 C722.757565,45 725,47.2442918 725,50.0009282 C725,52.7575645 722.757565,55 720.000928,55 L720.000928,55 Z" id="Fill-554" fill="#171816"></path>
            <g id="Group-558" transform="translate(694.000000, 41.000000)">
                <mask id="mask-40" fill="white">
                    <use xlink:href="#path-39"></use>
                </mask>
                <g id="Clip-556"></g>
                <path d="M28.4509333,8.43138462 C28.4509333,9.59661538 27.5682507,10.5421538 26.48048,10.5421538 C25.3906987,10.5421538 24.5100267,9.59661538 24.5100267,8.43138462 C24.5100267,7.26615385 25.3906987,6.32061538 26.48048,6.32061538 C27.5682507,6.32061538 28.4509333,7.26615385 28.4509333,8.43138462" id="Fill-555" fill="#171816" mask="url(#mask-40)"></path>
                <path d="M14.2154133,8.43138462 C14.2154133,12.612 11.0526347,16 7.14993067,16 C3.24923733,16 0.084448,12.612 0.084448,8.43138462 C0.084448,4.25076923 3.24923733,0.862769231 7.14993067,0.862769231 C11.0526347,0.862769231 14.2154133,4.25076923 14.2154133,8.43138462" id="Fill-557" fill="#3B3C3A" mask="url(#mask-40)"></path>
            </g>
            <path d="M699.999072,45.6905513 C697.622981,45.6905513 695.690551,47.6248376 695.690551,50.0009282 C695.690551,52.3770187 697.622981,54.3094487 699.999072,54.3094487 C702.375162,54.3094487 704.309449,52.3770187 704.309449,50.0009282 C704.309449,47.6248376 702.375162,45.6905513 699.999072,45.6905513 Z M699.999072,55 C697.242435,55 695,52.7575645 695,50.0009282 C695,47.2442918 697.242435,45 699.999072,45 C702.757565,45 705,47.2442918 705,50.0009282 C705,52.7575645 702.757565,55 699.999072,55 L699.999072,55 Z" id="Fill-559" fill="#171816"></path>
            <path d="M702,49.5 C702,50.3280612 701.328404,51 700.499235,51 C699.671596,51 699,50.3280612 699,49.5 C699,48.6719388 699.671596,48 700.499235,48 C701.328404,48 702,48.6719388 702,49.5" id="Fill-560" fill="#171816"></path>
            <path d="M813.525202,17.6061182 L802.206499,4.24877595 C801.192524,1.68332457 798.723976,0 795.977793,0 L685.209018,0 C683.987821,0 683,0.995427508 683,2.22150285 L683,47.7784971 C683,49.0045725 683.987821,50 685.209018,50 L756.151089,50 C756.893464,46.2529843 760.178825,43.4265366 764.124075,43.4265366 L779.87892,43.4265366 C783.82417,43.4265366 787.109531,46.2529843 787.851906,50 L807.268329,50 C810.968133,50 813.965798,46.9874155 813.971834,43.268725 L814,20.1048031 C814,19.2489783 813.839052,18.4012463 813.525202,17.6061182" id="Fill-561" fill="#DCDBD6"></path>
            <path d="M683,21 C683,21 813.563737,21 813.929698,21 C814.233325,19.1033495 813.455155,17.9750965 813.455155,17.9750965 L802.142526,4 L683,4.06562072 L683,21" id="Fill-562" fill="#DD4144"></path>
            <path d="M786.030651,17 L785.971264,17 C784.329502,17 783,16.0189671 783,14.8096435 L783,10.1882998 C783,8.97897623 784.329502,8 785.971264,8 L786.030651,8 C787.670498,8 789,8.97897623 789,10.1882998 L789,14.8096435 C789,16.0189671 787.670498,17 786.030651,17" id="Fill-563" fill="#6EB1D5"></path>
            <path d="M734.030651,17 L733.971264,17 C732.329502,17 731,16.0189671 731,14.8096435 L731,10.1882998 C731,8.97897623 732.329502,8 733.971264,8 L734.030651,8 C735.670498,8 737,8.97897623 737,10.1882998 L737,14.8096435 C737,16.0189671 735.670498,17 734.030651,17" id="Fill-564" fill="#6EB1D5"></path>
            <path d="M713.030651,17 L712.971264,17 C711.329502,17 710,16.0189671 710,14.8096435 L710,10.1882998 C710,8.97897623 711.329502,8 712.971264,8 L713.030651,8 C714.670498,8 716,8.97897623 716,10.1882998 L716,14.8096435 C716,16.0189671 714.670498,17 713.030651,17" id="Fill-565" fill="#6EB1D5"></path>
            <path d="M694.030651,17 L693.971264,17 C692.329502,17 691,16.0189671 691,14.8096435 L691,10.1882998 C691,8.97897623 692.329502,8 693.971264,8 L694.030651,8 C695.670498,8 697,8.97897623 697,10.1882998 L697,14.8096435 C697,16.0189671 695.670498,17 694.030651,17" id="Fill-566" fill="#6EB1D5"></path>
            <path d="M804,33.9712644 L804,34.0306513 C804,35.6704981 803.021024,37 801.8117,37 L797.1883,37 C795.981033,37 795,35.6704981 795,34.0306513 L795,33.9712644 C795,32.3295019 795.981033,31 797.1883,31 L801.8117,31 C803.021024,31 804,32.3295019 804,33.9712644" id="Fill-567" fill="#6EB1D5"></path>
            <path d="M795.600439,27.4919564 C793.924714,27.4919564 792.561235,28.7929424 792.561235,30.3943089 L792.561235,44.6056911 C792.561235,46.2070576 793.924714,47.5080436 795.600439,47.5080436 L804.399561,47.5080436 C806.073205,47.5080436 807.438765,46.2070576 807.438765,44.6056911 L807.438765,30.3943089 C807.438765,28.7929424 806.073205,27.4919564 804.399561,27.4919564 L795.600439,27.4919564 Z M804.399561,49 L795.600439,49 C793.062912,49 791,47.0286283 791,44.6056911 L791,30.3943089 C791,27.9713717 793.062912,26 795.600439,26 L804.399561,26 C806.935006,26 809,27.9713717 809,30.3943089 L809,44.6056911 C809,47.0286283 806.935006,49 804.399561,49 L804.399561,49 Z" id="Fill-568" fill="#ACADA9"></path>
            <polyline id="Fill-569" fill="#DD4144" points="815.6 38.4546309 814.4 39 814.4 31 815.6 31.5453691 815.6 38.4546309"></polyline>
            <path d="M815.552,38 L815.552,31 C816.046,31 816.448,31.5567686 816.448,32.2445415 L816.448,36.7554585 C816.448,37.4432314 816.046,38 815.552,38" id="Fill-570" fill="#FEF4B1"></path>
            <path d="M713.030651,39 L712.971264,39 C711.329502,39 710,38.0210238 710,36.8117002 L710,32.1882998 C710,30.9810329 711.329502,30 712.971264,30 L713.030651,30 C714.670498,30 716,30.9810329 716,32.1882998 L716,36.8117002 C716,38.0210238 714.670498,39 713.030651,39" id="Fill-571" fill="#6EB1D5"></path>
            <path d="M734.030651,39 L733.971264,39 C732.329502,39 731,38.0210238 731,36.8117002 L731,32.1882998 C731,30.9810329 732.329502,30 733.971264,30 L734.030651,30 C735.670498,30 737,30.9810329 737,32.1882998 L737,36.8117002 C737,38.0210238 735.670498,39 734.030651,39" id="Fill-572" fill="#6EB1D5"></path>
            <path d="M694.030651,39 L693.971264,39 C692.329502,39 691,38.0210238 691,36.8117002 L691,32.1882998 C691,30.9810329 692.329502,30 693.971264,30 L694.030651,30 C695.670498,30 697,30.9810329 697,32.1882998 L697,36.8117002 C697,38.0210238 695.670498,39 694.030651,39" id="Fill-573" fill="#6EB1D5"></path>
            <path d="M806.593018,8 L797.015573,8 C795.901547,8 795,8.93372943 795,10.0854662 L795,14.9124771 C795,16.0642139 795.901547,17 797.015573,17 L814,17 L806.593018,8" id="Fill-574" fill="#6EB1D5"></path>
            <g id="Group-578" transform="translate(32.000000, 39.000000)">
                <mask id="mask-42" fill="white">
                    <use xlink:href="#path-41"></use>
                </mask>
                <g id="Clip-576"></g>
                <polygon id="Fill-575" fill="#0A0B09" mask="url(#mask-42)" points="-0.004 12.5941333 19.222 12.5941333 19.222 0.9056 -0.004 0.9056"></polygon>
                <path d="M26.252,10.5034667 C26.252,14.6442667 23.106,18 19.224,18 C15.342,18 12.196,14.6442667 12.196,10.5034667 C12.196,6.36266667 15.342,3.00693333 19.224,3.00693333 C23.106,3.00693333 26.252,6.36266667 26.252,10.5034667" id="Fill-577" fill="#3B3C3A" mask="url(#mask-42)"></path>
            </g>
            <path d="M52.0009282,45.6905513 C49.6248376,45.6905513 47.6905513,47.6248376 47.6905513,50.0009282 C47.6905513,52.3770187 49.6248376,54.3094487 52.0009282,54.3094487 C54.3770187,54.3094487 56.3094487,52.3770187 56.3094487,50.0009282 C56.3094487,47.6248376 54.3770187,45.6905513 52.0009282,45.6905513 Z M52.0009282,55 C49.2442918,55 47,52.7575645 47,50.0009282 C47,47.2442918 49.2442918,45 52.0009282,45 C54.7575645,45 57,47.2442918 57,50.0009282 C57,52.7575645 54.7575645,55 52.0009282,55 L52.0009282,55 Z" id="Fill-579" fill="#171816"></path>
            <g id="Group-583" transform="translate(25.000000, 41.000000)">
                <mask id="mask-44" fill="white">
                    <use xlink:href="#path-43"></use>
                </mask>
                <g id="Clip-581"></g>
                <path d="M29.3203846,8.43138462 C29.3203846,9.59661538 28.4339423,10.5421538 27.3415385,10.5421538 C26.2491346,10.5421538 25.3626923,9.59661538 25.3626923,8.43138462 C25.3626923,7.26615385 26.2491346,6.32061538 27.3415385,6.32061538 C28.4339423,6.32061538 29.3203846,7.26615385 29.3203846,8.43138462" id="Fill-580" fill="#171816" mask="url(#mask-44)"></path>
                <path d="M15.02625,8.43138462 C15.02625,12.612 11.8479808,16 7.93067308,16 C4.01134615,16 0.833076923,12.612 0.833076923,8.43138462 C0.833076923,4.25076923 4.01134615,0.862769231 7.93067308,0.862769231 C11.8479808,0.862769231 15.02625,4.25076923 15.02625,8.43138462" id="Fill-582" fill="#3B3C3A" mask="url(#mask-44)"></path>
            </g>
            <path d="M32.9990718,45.6905513 C30.6229813,45.6905513 28.6905513,47.6248376 28.6905513,50.0009282 C28.6905513,52.3770187 30.6229813,54.3094487 32.9990718,54.3094487 C35.3751624,54.3094487 37.3094487,52.3770187 37.3094487,50.0009282 C37.3094487,47.6248376 35.3751624,45.6905513 32.9990718,45.6905513 Z M32.9990718,55 C30.2424355,55 28,52.7575645 28,50.0009282 C28,47.2442918 30.2424355,45 32.9990718,45 C35.7575645,45 38,47.2442918 38,50.0009282 C38,52.7575645 35.7575645,55 32.9990718,55 L32.9990718,55 Z" id="Fill-584" fill="#171816"></path>
            <g id="Group-588" transform="translate(30.000000, 41.000000)">
                <mask id="mask-46" fill="white">
                    <use xlink:href="#path-45"></use>
                </mask>
                <g id="Clip-586"></g>
                <path d="M3.96657101,8.43138462 C3.96657101,9.59661538 3.08705319,10.5421538 2.00318271,10.5421538 C0.917308777,10.5421538 0.0377909574,9.59661538 0.0377909574,8.43138462 C0.0377909574,7.26615385 0.917308777,6.32061538 2.00318271,6.32061538 C3.08705319,6.32061538 3.96657101,7.26615385 3.96657101,8.43138462" id="Fill-585" fill="#171816" mask="url(#mask-46)"></path>
                <path d="M91.7600798,8.43138462 C91.7600798,12.612 88.6086412,16 84.7199303,16 C80.8332229,16 77.6797809,12.612 77.6797809,8.43138462 C77.6797809,4.25076923 80.8332229,0.862769231 84.7199303,0.862769231 C88.6086412,0.862769231 91.7600798,4.25076923 91.7600798,8.43138462" id="Fill-587" fill="#3B3C3A" mask="url(#mask-46)"></path>
            </g>
            <path d="M115.999072,45.6905513 C113.622981,45.6905513 111.690551,47.6248376 111.690551,50.0009282 C111.690551,52.3770187 113.622981,54.3094487 115.999072,54.3094487 C118.375162,54.3094487 120.309449,52.3770187 120.309449,50.0009282 C120.309449,47.6248376 118.375162,45.6905513 115.999072,45.6905513 Z M115.999072,55 C113.242435,55 111,52.7575645 111,50.0009282 C111,47.2442918 113.242435,45 115.999072,45 C118.755708,45 121,47.2442918 121,50.0009282 C121,52.7575645 118.755708,55 115.999072,55 L115.999072,55 Z" id="Fill-589" fill="#171816"></path>
            <g id="Group-593" transform="translate(88.000000, 41.000000)">
                <mask id="mask-48" fill="white">
                    <use xlink:href="#path-47"></use>
                </mask>
                <g id="Clip-591"></g>
                <path d="M28.529504,8.43138462 C28.529504,9.59661538 27.648832,10.5421538 26.5590507,10.5421538 C25.47128,10.5421538 24.5885973,9.59661538 24.5885973,8.43138462 C24.5885973,7.26615385 25.47128,6.32061538 26.5590507,6.32061538 C27.648832,6.32061538 28.529504,7.26615385 28.529504,8.43138462" id="Fill-590" fill="#171816" mask="url(#mask-48)"></path>
                <path d="M14.2959947,8.43138462 C14.2959947,12.612 11.133216,16 7.230512,16 C3.327808,16 0.165029333,12.612 0.165029333,8.43138462 C0.165029333,4.25076923 3.327808,0.862769231 7.230512,0.862769231 C11.133216,0.862769231 14.2959947,4.25076923 14.2959947,8.43138462" id="Fill-592" fill="#3B3C3A" mask="url(#mask-48)"></path>
            </g>
            <path d="M96.0009282,45.6905513 C93.6248376,45.6905513 91.6905513,47.6248376 91.6905513,50.0009282 C91.6905513,52.3770187 93.6248376,54.3094487 96.0009282,54.3094487 C98.3770187,54.3094487 100.309449,52.3770187 100.309449,50.0009282 C100.309449,47.6248376 98.3770187,45.6905513 96.0009282,45.6905513 Z M96.0009282,55 C93.2442918,55 91,52.7575645 91,50.0009282 C91,47.2442918 93.2442918,45 96.0009282,45 C98.7575645,45 101,47.2442918 101,50.0009282 C101,52.7575645 98.7575645,55 96.0009282,55 L96.0009282,55 Z" id="Fill-594" fill="#171816"></path>
            <path d="M97,49.5 C97,50.3280612 96.3280612,51 95.5,51 C94.6719388,51 94,50.3280612 94,49.5 C94,48.6719388 94.6719388,48 95.5,48 C96.3280612,48 97,48.6719388 97,49.5" id="Fill-595" fill="#171816"></path>
            <path d="M2.47481638,17.6061182 L13.7935174,4.24877595 C14.8074927,1.68332457 17.2760398,0 20.0202112,0 L130.790982,0 C132.010167,0 133,0.995427508 133,2.22150285 L133,47.7784971 C133,49.0045725 132.010167,50 130.790982,50 L57.8350537,50 C57.0926789,46.2529843 53.8093302,43.4265366 49.8640809,43.4265366 L34.1072259,43.4265366 C30.1639884,43.4265366 26.8786278,46.2529843 26.136253,50 L8.72967621,50 C5.03188517,50 2.0322081,46.9874155 2.02818439,43.268725 L2,20.1048031 C1.99800655,19.2489783 2.16096687,18.4012463 2.47481638,17.6061182" id="Fill-596" fill="#DCDBD6"></path>
            <path d="M133,21 C133,21 2.43626338,21 2.07030206,21 C1.76667482,19.1033495 2.5448453,17.9750965 2.5448453,17.9750965 L13.8574736,4 L133,4.06562072 L133,21" id="Fill-597" fill="#DD4144"></path>
            <path d="M30.9712644,17 L31.0306513,17 C32.6704981,17 34,16.0189671 34,14.8096435 L34,10.1882998 C34,8.97897623 32.6704981,8 31.0306513,8 L30.9712644,8 C29.3295019,8 28,8.97897623 28,10.1882998 L28,14.8096435 C28,16.0189671 29.3295019,17 30.9712644,17" id="Fill-598" fill="#6EB1D5"></path>
            <path d="M82.9693487,17 L83.0287356,17 C84.6704981,17 86,16.0189671 86,14.8096435 L86,10.1882998 C86,8.97897623 84.6704981,8 83.0287356,8 L82.9693487,8 C81.3295019,8 80,8.97897623 80,10.1882998 L80,14.8096435 C80,16.0189671 81.3295019,17 82.9693487,17" id="Fill-599" fill="#6EB1D5"></path>
            <path d="M102.969349,17 L103.028736,17 C104.670498,17 106,16.0189671 106,14.8096435 L106,10.1882998 C106,8.97897623 104.670498,8 103.028736,8 L102.969349,8 C101.329502,8 100,8.97897623 100,10.1882998 L100,14.8096435 C100,16.0189671 101.329502,17 102.969349,17" id="Fill-600" fill="#6EB1D5"></path>
            <path d="M123.969349,17 L124.028736,17 C125.670498,17 127,16.0189671 127,14.8096435 L127,10.1882998 C127,8.97897623 125.670498,8 124.028736,8 L123.969349,8 C122.329502,8 121,8.97897623 121,10.1882998 L121,14.8096435 C121,16.0189671 122.329502,17 123.969349,17" id="Fill-601" fill="#6EB1D5"></path>
            <path d="M13,33.9712644 L13,34.0306513 C13,35.6704981 13.9810329,37 15.1882998,37 L19.8117002,37 C21.0210238,37 22,35.6704981 22,34.0306513 L22,33.9712644 C22,32.3295019 21.0210238,31 19.8117002,31 L15.1882998,31 C13.9810329,31 13,32.3295019 13,33.9712644" id="Fill-602" fill="#6EB1D5"></path>
            <path d="M12.6004395,27.4919564 C10.9247138,27.4919564 9.56123511,28.7929424 9.56123511,30.3943089 L9.56123511,44.6056911 C9.56123511,46.2070576 10.9247138,47.5080436 12.6004395,47.5080436 L21.3995605,47.5080436 C23.0732046,47.5080436 24.4387649,46.2070576 24.4387649,44.6056911 L24.4387649,30.3943089 C24.4387649,28.7929424 23.0732046,27.4919564 21.3995605,27.4919564 L12.6004395,27.4919564 Z M8,44.6056911 L8,30.3943089 C8,27.9713717 10.062912,26 12.6004395,26 L21.3995605,26 C23.9350064,26 26,27.9713717 26,30.3943089 L26,44.6056911 C26,47.0286283 23.9350064,49 21.3995605,49 L12.6004395,49 C10.062912,49 8,47.0286283 8,44.6056911 L8,44.6056911 Z" id="Fill-603" fill="#ACADA9"></path>
            <polyline id="Fill-604" fill="#DD4144" points="1.4 38.4546309 2.6 39 2.6 31 1.4 31.5453691 1.4 38.4546309"></polyline>
            <path d="M1.448,38 L1.448,31 C0.952,31 0.552,31.5567686 0.552,32.2445415 L0.552,36.7554585 C0.552,37.4432314 0.952,38 1.448,38" id="Fill-605" fill="#FEF4B1"></path>
            <path d="M102.969349,39 L103.028736,39 C104.670498,39 106,38.0210238 106,36.8117002 L106,32.1882998 C106,30.9810329 104.670498,30 103.028736,30 L102.969349,30 C101.329502,30 100,30.9810329 100,32.1882998 L100,36.8117002 C100,38.0210238 101.329502,39 102.969349,39" id="Fill-606" fill="#6EB1D5"></path>
            <path d="M82.9693487,39 L83.0287356,39 C84.6704981,39 86,38.0210238 86,36.8117002 L86,32.1882998 C86,30.9810329 84.6704981,30 83.0287356,30 L82.9693487,30 C81.3295019,30 80,30.9810329 80,32.1882998 L80,36.8117002 C80,38.0210238 81.3295019,39 82.9693487,39" id="Fill-607" fill="#6EB1D5"></path>
            <path d="M123.969349,39 L124.028736,39 C125.670498,39 127,38.0210238 127,36.8117002 L127,32.1882998 C127,30.9810329 125.670498,30 124.028736,30 L123.969349,30 C122.329502,30 121,30.9810329 121,32.1882998 L121,36.8117002 C121,38.0210238 122.329502,39 123.969349,39" id="Fill-608" fill="#6EB1D5"></path>
            <path d="M10.4049958,8 L19.9844273,8 C21.0964674,8 22,8.93372943 22,10.0854662 L22,14.9124771 C22,16.0642139 21.0964674,17 19.9844273,17 L3,17 L10.4049958,8" id="Fill-609" fill="#6EB1D5"></path>
        </g>
    </g>
</svg>