<?xml version="1.0" encoding="UTF-8"?>
<svg width="671px" height="478px" viewBox="0 0 671 478" version="1.1" xmlns="http://www.w3.org/2000/svg" xmlns:xlink="http://www.w3.org/1999/xlink">
    <!-- Generator: Sketch 62 (91390) - https://sketch.com -->
    <title>Group</title>
    <desc>Created with Sketch.</desc>
    <defs>
        <polygon id="path-1" points="-5.68434189e-14 -1.13686838e-13 670.930216 -1.13686838e-13 670.930216 492 -5.68434189e-14 492"></polygon>
        <polygon id="path-3" points="0 0.0672131148 670.930216 0.0672131148 670.930216 81.374918 0 81.374918"></polygon>
        <polygon id="path-5" points="0.0714434783 0.749314286 25.9294609 0.749314286 25.9294609 46.4185429 0.0714434783 46.4185429"></polygon>
        <polygon id="path-7" points="0 0.950666667 122.879674 0.950666667 122.879674 54.936 0 54.936"></polygon>
        <polygon id="path-9" points="0 0.96255 122.814163 0.96255 122.814163 53.97165 0 53.97165"></polygon>
    </defs>
    <g id="Page-1" stroke="none" stroke-width="1" fill="none" fill-rule="evenodd">
        <g id="Group" transform="translate(0.000000, -14.000000)">
            <path d="M140.87495,116.790598 L139.478327,116.790598 C136.063167,113.346641 131.327782,111.212245 126.091114,111.212245 C123.257657,111.212245 120.572977,111.840245 118.161724,112.959665 C116.389808,104.397977 108.800861,97.9626517 99.7067245,97.9626517 C94.2917926,97.9626517 89.414333,100.247018 85.9763874,103.899862 C81.620316,96.7642297 73.7566018,92 64.7777334,92 C51.0728626,92 39.9642103,103.099129 39.9642103,116.790598 C39.9642103,116.791937 39.9642103,116.793276 39.9642103,116.794615 C28.9239149,116.881651 20,125.846384 20,136.895969 C20,147.999114 29.0110363,157 40.1250499,157 L140.87495,157 C151.988964,157 161,147.999114 161,136.895969 C161,125.791484 151.988964,116.790598 140.87495,116.790598" id="Fill-5" fill="#FFFFFE"></path>
            <g id="Group-13">
                <mask id="mask-2" fill="white">
                    <use xlink:href="#path-1"></use>
                </mask>
                <g id="Clip-7"></g>
                <path d="M626.649708,39.9931723 C625.500956,25.4479511 613.347804,14 598.513336,14 C588.711368,14 580.078282,18.9996681 575.014916,26.5850936 C565.749748,26.5904638 557.527314,31.061166 552.382086,37.9618894 C540.28664,39.7380872 531,50.1589851 531,62.7534766 C531,76.5938574 542.216436,87.814917 556.051114,87.814917 L616.164662,87.814917 C630.000682,87.814917 641.215776,76.5938574 641.215776,62.7534766 C641.215776,52.6588191 635.24656,43.9644447 626.649708,39.9931723" id="Fill-6" fill="#FFFFFE" mask="url(#mask-2)"></path>
                <polyline id="Fill-8" fill="#666666" mask="url(#mask-2)" points="754.446902 280.150477 754.446902 287.282119 749.833106 287.282119 749.833106 272.179738 746.898152 272.179738 746.898152 287.282119 744.204758 287.282119 744.204758 311.053366 725.023552 311.053366 725.023552 342.236849 718.093464 342.236849 718.093464 288.540091 713.800406 288.540091 713.800406 285.603928 691.057532 282.667764 691.057532 288.540091 688.276908 288.540091 688.276908 331.453462 679.91088 331.453462 679.91088 245.017202 677.044368 245.017202 677.044368 252.67244 672.615768 252.67244 663.62571 218.9032 662.019336 218.9032 662.019336 204.639915 658.034938 204.639915 658.034938 218.9032 656.427222 218.9032 647.438506 252.67244 643.009906 252.67244 643.009906 245.017202 640.143394 245.017202 640.143394 303.642472 636.964196 303.642472 636.964196 280.150477 613.48188 280.150477 613.48188 321.699813 605.69828 321.699813 605.69828 286.443023 594.542234 286.443023 594.542234 333.531734 585.455552 333.531734 585.455552 304.552723 566.515906 304.552723 566.515906 258.336672 563.05623 258.336672 563.05623 252.67244 546.493266 252.67244 546.493266 258.336672 543.03359 258.336672 543.03359 300.286089 518.224036 300.286089 518.224036 390.696306 543.03359 390.696306 543.03359 390.727185 636.964196 390.727185 636.964196 390.696306 640.143394 390.696306 640.143394 390.727185 679.91088 390.727185 679.91088 390.696306 688.276908 390.696306 688.276908 390.727185 718.093464 390.727185 718.093464 390.696306 725.023552 390.696306 725.023552 390.727185 764.231424 390.727185 764.231424 280.150477 754.446902 280.150477"></polyline>
                <polyline id="Fill-9" fill="#666666" mask="url(#mask-2)" points="149.348496 267.98426 149.348496 300.994957 143.478588 300.994957 143.478588 285.603928 131.736088 285.603928 131.736088 330.630477 121.32351 330.630477 121.32351 261.334594 106.926534 261.334594 106.926534 251.135217 97.841194 251.135217 97.841194 261.334594 95.185376 261.334594 95.185376 277.633189 78.901548 277.633189 78.901548 312.03343 73.030298 312.03343 73.030298 270.278683 67.16039 270.278683 67.16039 266.7961 48.219402 266.7961 48.219402 270.278683 37.806824 270.278683 37.806824 338.164885 28.371222 338.164885 28.371222 292.73557 14.324508 279.224115 14.324508 256.518855 13.485758 256.518855 13.485758 245.751579 10.375002 245.751579 10.375002 256.518855 6.880434 256.518855 6.880434 237.8332 10.375002 237.8332 10.375002 233.74244 6.880434 233.74244 6.880434 229.150909 4.608428 229.150909 1.60369 210.512243 -0.981002 210.512243 -3.98574 229.150909 -6.257746 229.150909 -6.257746 233.74244 -9.752314 233.74244 -9.752314 237.8332 -6.257746 237.8332 -6.257746 256.518855 -9.752314 256.518855 -9.752314 245.751579 -12.86307 245.751579 -12.86307 256.518855 -13.70182 256.518855 -13.70182 279.224115 -27.748534 292.73557 -27.748534 306.578636 -31.312886 306.578636 -31.312886 285.603928 -33.689568 285.603928 -33.689568 277.633189 -42.705124 281.267481 -42.705124 276.165779 -44.382624 276.165779 -44.382624 281.944128 -47.737624 283.297421 -47.737624 285.603928 -50.252532 285.603928 -50.252532 320.841921 -57.45102 320.841921 -57.45102 277.633189 -73.525496 277.633189 -73.525496 390.727185 168.288142 390.727185 168.288142 267.98426 149.348496 267.98426"></polyline>
                <polygon id="Fill-10" fill="#413E38" mask="url(#mask-2)" points="0 492 670.930216 492 670.930216 414.428619 0 414.428619"></polygon>
                <polygon id="Fill-11" fill="#4D4C49" mask="url(#mask-2)" points="0 414.428619 670.930216 414.428619 670.930216 399.522251 0 399.522251"></polygon>
                <polygon id="Fill-12" fill="#A3A3A0" mask="url(#mask-2)" points="0 399.522251 670.930216 399.522251 670.930216 390.727185 0 390.727185"></polygon>
            </g>
            <polygon id="Fill-14" fill="#BD8E5E" points="668 437 670 437 670 426 668 426"></polygon>
            <polygon id="Fill-15" fill="#BD8E5E" points="662 437 664 437 664 426 662 426"></polygon>
            <polygon id="Fill-16" fill="#BD8E5E" points="657 437 659 437 659 426 657 426"></polygon>
            <polygon id="Fill-17" fill="#BD8E5E" points="651 437 653 437 653 426 651 426"></polygon>
            <polygon id="Fill-18" fill="#BD8E5E" points="644 437 646 437 646 426 644 426"></polygon>
            <polygon id="Fill-19" fill="#BD8E5E" points="639 437 641 437 641 426 639 426"></polygon>
            <polygon id="Fill-20" fill="#BD8E5E" points="633 437 635 437 635 426 633 426"></polygon>
            <polygon id="Fill-21" fill="#BD8E5E" points="627 437 629 437 629 426 627 426"></polygon>
            <polygon id="Fill-22" fill="#BD8E5E" points="622 437 624 437 624 426 622 426"></polygon>
            <polygon id="Fill-23" fill="#BD8E5E" points="615 437 617 437 617 426 615 426"></polygon>
            <polygon id="Fill-24" fill="#BD8E5E" points="610 437 612 437 612 426 610 426"></polygon>
            <polygon id="Fill-25" fill="#BD8E5E" points="604 437 606 437 606 426 604 426"></polygon>
            <polygon id="Fill-26" fill="#BD8E5E" points="598 437 600 437 600 426 598 426"></polygon>
            <polygon id="Fill-27" fill="#BD8E5E" points="592 437 594 437 594 426 592 426"></polygon>
            <polygon id="Fill-28" fill="#BD8E5E" points="586 437 588 437 588 426 586 426"></polygon>
            <polygon id="Fill-29" fill="#BD8E5E" points="580 437 582 437 582 426 580 426"></polygon>
            <polygon id="Fill-30" fill="#BD8E5E" points="575 437 577 437 577 426 575 426"></polygon>
            <polygon id="Fill-31" fill="#BD8E5E" points="568 437 570 437 570 426 568 426"></polygon>
            <polygon id="Fill-32" fill="#BD8E5E" points="562 437 564 437 564 426 562 426"></polygon>
            <polygon id="Fill-33" fill="#BD8E5E" points="557 437 559 437 559 426 557 426"></polygon>
            <polygon id="Fill-34" fill="#BD8E5E" points="551 437 553 437 553 426 551 426"></polygon>
            <polygon id="Fill-35" fill="#BD8E5E" points="545 437 547 437 547 426 545 426"></polygon>
            <polygon id="Fill-36" fill="#BD8E5E" points="539 437 541 437 541 426 539 426"></polygon>
            <polygon id="Fill-37" fill="#BD8E5E" points="533 437 535 437 535 426 533 426"></polygon>
            <polygon id="Fill-38" fill="#BD8E5E" points="528 437 530 437 530 426 528 426"></polygon>
            <polygon id="Fill-39" fill="#BD8E5E" points="521 437 523 437 523 426 521 426"></polygon>
            <polygon id="Fill-40" fill="#BD8E5E" points="515 437 517 437 517 426 515 426"></polygon>
            <polygon id="Fill-41" fill="#BD8E5E" points="510 437 512 437 512 426 510 426"></polygon>
            <polygon id="Fill-42" fill="#BD8E5E" points="504 437 506 437 506 426 504 426"></polygon>
            <polygon id="Fill-43" fill="#BD8E5E" points="497 437 499 437 499 426 497 426"></polygon>
            <polygon id="Fill-44" fill="#BD8E5E" points="492 437 494 437 494 426 492 426"></polygon>
            <polygon id="Fill-45" fill="#BD8E5E" points="486 437 488 437 488 426 486 426"></polygon>
            <polygon id="Fill-46" fill="#BD8E5E" points="481 437 483 437 483 426 481 426"></polygon>
            <polygon id="Fill-47" fill="#BD8E5E" points="474 437 476 437 476 426 474 426"></polygon>
            <polygon id="Fill-48" fill="#BD8E5E" points="468 437 470 437 470 426 468 426"></polygon>
            <polygon id="Fill-49" fill="#BD8E5E" points="463 437 465 437 465 426 463 426"></polygon>
            <polygon id="Fill-50" fill="#BD8E5E" points="457 437 459 437 459 426 457 426"></polygon>
            <polygon id="Fill-51" fill="#BD8E5E" points="452 437 454 437 454 426 452 426"></polygon>
            <polygon id="Fill-52" fill="#BD8E5E" points="445 437 447 437 447 426 445 426"></polygon>
            <polygon id="Fill-53" fill="#BD8E5E" points="439 437 441 437 441 426 439 426"></polygon>
            <polygon id="Fill-54" fill="#BD8E5E" points="434 437 436 437 436 426 434 426"></polygon>
            <polygon id="Fill-55" fill="#BD8E5E" points="428 437 430 437 430 426 428 426"></polygon>
            <polygon id="Fill-56" fill="#BD8E5E" points="421 437 423 437 423 426 421 426"></polygon>
            <polygon id="Fill-57" fill="#BD8E5E" points="416 437 418 437 418 426 416 426"></polygon>
            <polygon id="Fill-58" fill="#BD8E5E" points="410 437 412 437 412 426 410 426"></polygon>
            <polygon id="Fill-59" fill="#BD8E5E" points="405 437 407 437 407 426 405 426"></polygon>
            <polygon id="Fill-60" fill="#BD8E5E" points="398 437 400 437 400 426 398 426"></polygon>
            <polygon id="Fill-61" fill="#BD8E5E" points="392 437 394 437 394 426 392 426"></polygon>
            <polygon id="Fill-62" fill="#BD8E5E" points="387 437 389 437 389 426 387 426"></polygon>
            <polygon id="Fill-63" fill="#BD8E5E" points="381 437 383 437 383 426 381 426"></polygon>
            <polygon id="Fill-64" fill="#BD8E5E" points="374 437 376 437 376 426 374 426"></polygon>
            <polygon id="Fill-65" fill="#BD8E5E" points="369 437 371 437 371 426 369 426"></polygon>
            <polygon id="Fill-66" fill="#BD8E5E" points="363 437 365 437 365 426 363 426"></polygon>
            <polygon id="Fill-67" fill="#BD8E5E" points="357 437 359 437 359 426 357 426"></polygon>
            <polygon id="Fill-68" fill="#BD8E5E" points="351 437 353 437 353 426 351 426"></polygon>
            <polygon id="Fill-69" fill="#BD8E5E" points="345 437 347 437 347 426 345 426"></polygon>
            <polygon id="Fill-70" fill="#BD8E5E" points="340 437 342 437 342 426 340 426"></polygon>
            <polygon id="Fill-71" fill="#BD8E5E" points="334 437 336 437 336 426 334 426"></polygon>
            <polygon id="Fill-72" fill="#BD8E5E" points="327 437 329 437 329 426 327 426"></polygon>
            <polygon id="Fill-73" fill="#BD8E5E" points="322 437 324 437 324 426 322 426"></polygon>
            <polygon id="Fill-74" fill="#BD8E5E" points="316 437 318 437 318 426 316 426"></polygon>
            <polygon id="Fill-75" fill="#BD8E5E" points="310 437 312 437 312 426 310 426"></polygon>
            <polygon id="Fill-76" fill="#BD8E5E" points="305 437 307 437 307 426 305 426"></polygon>
            <polygon id="Fill-77" fill="#BD8E5E" points="298 437 300 437 300 426 298 426"></polygon>
            <polygon id="Fill-78" fill="#BD8E5E" points="292 437 294 437 294 426 292 426"></polygon>
            <polygon id="Fill-79" fill="#BD8E5E" points="287 437 289 437 289 426 287 426"></polygon>
            <polygon id="Fill-80" fill="#BD8E5E" points="281 437 283 437 283 426 281 426"></polygon>
            <polygon id="Fill-81" fill="#BD8E5E" points="275 437 277 437 277 426 275 426"></polygon>
            <polygon id="Fill-82" fill="#BD8E5E" points="269 437 271 437 271 426 269 426"></polygon>
            <polygon id="Fill-83" fill="#BD8E5E" points="263 437 265 437 265 426 263 426"></polygon>
            <polygon id="Fill-84" fill="#BD8E5E" points="258 437 260 437 260 426 258 426"></polygon>
            <polygon id="Fill-85" fill="#BD8E5E" points="251 437 253 437 253 426 251 426"></polygon>
            <polygon id="Fill-86" fill="#BD8E5E" points="245 437 247 437 247 426 245 426"></polygon>
            <polygon id="Fill-87" fill="#BD8E5E" points="240 437 242 437 242 426 240 426"></polygon>
            <polygon id="Fill-88" fill="#BD8E5E" points="234 437 236 437 236 426 234 426"></polygon>
            <polygon id="Fill-89" fill="#BD8E5E" points="228 437 230 437 230 426 228 426"></polygon>
            <polygon id="Fill-90" fill="#BD8E5E" points="222 437 224 437 224 426 222 426"></polygon>
            <polygon id="Fill-91" fill="#BD8E5E" points="216 437 218 437 218 426 216 426"></polygon>
            <polygon id="Fill-92" fill="#BD8E5E" points="211 437 213 437 213 426 211 426"></polygon>
            <polygon id="Fill-93" fill="#BD8E5E" points="204 437 206 437 206 426 204 426"></polygon>
            <polygon id="Fill-94" fill="#BD8E5E" points="198 437 200 437 200 426 198 426"></polygon>
            <polygon id="Fill-95" fill="#BD8E5E" points="193 437 195 437 195 426 193 426"></polygon>
            <polygon id="Fill-96" fill="#BD8E5E" points="187 437 189 437 189 426 187 426"></polygon>
            <polygon id="Fill-97" fill="#BD8E5E" points="180 437 182 437 182 426 180 426"></polygon>
            <polygon id="Fill-98" fill="#BD8E5E" points="175 437 177 437 177 426 175 426"></polygon>
            <polygon id="Fill-99" fill="#BD8E5E" points="169 437 171 437 171 426 169 426"></polygon>
            <polygon id="Fill-100" fill="#BD8E5E" points="164 437 166 437 166 426 164 426"></polygon>
            <polygon id="Fill-101" fill="#BD8E5E" points="157 437 159 437 159 426 157 426"></polygon>
            <polygon id="Fill-102" fill="#BD8E5E" points="151 437 153 437 153 426 151 426"></polygon>
            <polygon id="Fill-103" fill="#BD8E5E" points="146 437 148 437 148 426 146 426"></polygon>
            <polygon id="Fill-104" fill="#BD8E5E" points="140 437 142 437 142 426 140 426"></polygon>
            <polygon id="Fill-105" fill="#BD8E5E" points="135 437 137 437 137 426 135 426"></polygon>
            <polygon id="Fill-106" fill="#BD8E5E" points="128 437 130 437 130 426 128 426"></polygon>
            <polygon id="Fill-107" fill="#BD8E5E" points="122 437 124 437 124 426 122 426"></polygon>
            <polygon id="Fill-108" fill="#BD8E5E" points="117 437 119 437 119 426 117 426"></polygon>
            <polygon id="Fill-109" fill="#BD8E5E" points="111 437 113 437 113 426 111 426"></polygon>
            <polygon id="Fill-110" fill="#BD8E5E" points="104 437 106 437 106 426 104 426"></polygon>
            <polygon id="Fill-111" fill="#BD8E5E" points="99 437 101 437 101 426 99 426"></polygon>
            <polygon id="Fill-112" fill="#BD8E5E" points="93 437 95 437 95 426 93 426"></polygon>
            <polygon id="Fill-113" fill="#BD8E5E" points="87 437 89 437 89 426 87 426"></polygon>
            <polygon id="Fill-114" fill="#BD8E5E" points="81 437 83 437 83 426 81 426"></polygon>
            <polygon id="Fill-115" fill="#BD8E5E" points="75 437 77 437 77 426 75 426"></polygon>
            <polygon id="Fill-116" fill="#BD8E5E" points="70 437 72 437 72 426 70 426"></polygon>
            <polygon id="Fill-117" fill="#BD8E5E" points="64 437 66 437 66 426 64 426"></polygon>
            <polygon id="Fill-118" fill="#BD8E5E" points="57 437 59 437 59 426 57 426"></polygon>
            <polygon id="Fill-119" fill="#BD8E5E" points="52 437 54 437 54 426 52 426"></polygon>
            <polygon id="Fill-120" fill="#BD8E5E" points="46 437 48 437 48 426 46 426"></polygon>
            <polygon id="Fill-121" fill="#BD8E5E" points="40 437 42 437 42 426 40 426"></polygon>
            <polygon id="Fill-122" fill="#BD8E5E" points="34 437 36 437 36 426 34 426"></polygon>
            <polygon id="Fill-123" fill="#BD8E5E" points="28 437 30 437 30 426 28 426"></polygon>
            <polygon id="Fill-124" fill="#BD8E5E" points="23 437 25 437 25 426 23 426"></polygon>
            <polygon id="Fill-125" fill="#BD8E5E" points="17 437 19 437 19 426 17 426"></polygon>
            <polygon id="Fill-126" fill="#BD8E5E" points="10 437 12 437 12 426 10 426"></polygon>
            <g id="Group-135" transform="translate(0.000000, 356.000000)">
                <mask id="mask-4" fill="white">
                    <use xlink:href="#path-3"></use>
                </mask>
                <g id="Clip-128"></g>
                <polygon id="Fill-127" fill="#BD8E5E" mask="url(#mask-4)" points="4.54267 81.374918 7.198488 81.374918 7.198488 69.7551148 4.54267 69.7551148"></polygon>
                <polygon id="Fill-129" fill="#BD8E5E" mask="url(#mask-4)" points="1.73472348e-18 81.374918 1.327238 81.374918 1.327238 69.7551148 1.73472348e-18 69.7551148"></polygon>
                <polygon id="Fill-130" fill="#CDCCC7" mask="url(#mask-4)" points="0 72.9060656 670.930216 72.9060656 670.930216 70.7243279 0 70.7243279"></polygon>
                <polygon id="Fill-131" fill="#CDCCC7" mask="url(#mask-4)" points="0 80.1852459 670.930216 80.1852459 670.930216 78.0035082 0 78.0035082"></polygon>
                <path d="M679.366028,34.3378361 C679.435812,32.6454098 679.473388,30.8696393 679.473388,29.0374098 C679.473388,17.548 678.013292,8.23360656 676.210986,8.23360656 C675.208512,8.23360656 674.313398,11.1170492 673.714866,15.6499016 C673.042524,8.53740984 671.578402,3.60262295 669.878088,3.60262295 C668.43678,3.60262295 667.164564,7.15281967 666.400966,12.5701967 C665.68568,9.85478689 664.790566,8.23360656 663.817616,8.23360656 C662.695704,8.23360656 661.675784,10.3871148 660.918896,13.8942951 C660.254606,5.83678689 658.471088,0.0672131148 656.376226,0.0672131148 C654.501452,0.0672131148 652.878974,4.68206557 652.080484,11.4195082 C651.624204,9.87629508 651.10485,8.9984918 650.553288,8.9984918 C648.750982,8.9984918 647.289544,18.3128852 647.289544,29.8022951 C647.289544,31.3602951 647.317726,32.876623 647.368722,34.3378361 L679.366028,34.3378361" id="Fill-132" fill="#7FBE8B" mask="url(#mask-4)"></path>
                <path d="M622.912114,34.3687541 C622.858434,33.051377 622.82891,31.6694754 622.82891,30.2432131 C622.82891,21.2984918 623.965584,14.0461967 625.369316,14.0461967 C626.149018,14.0461967 626.846858,16.2911148 627.312532,19.8198033 C627.835912,14.2827869 628.97527,10.4422295 630.298482,10.4422295 C631.421736,10.4422295 632.412132,13.2060328 633.006638,17.4229836 C633.562226,15.308459 634.260066,14.0461967 635.016954,14.0461967 C635.890596,14.0461967 636.683718,15.7238361 637.274198,18.4540328 C637.790868,12.1817049 639.178496,7.68918033 640.810368,7.68918033 C642.269122,7.68918033 643.533286,11.2823934 644.154632,16.5263607 C644.50892,15.3259344 644.914204,14.6417049 645.343644,14.6417049 C646.746034,14.6417049 647.88405,21.8926557 647.88405,30.837377 C647.88405,32.0512459 647.862578,33.2315082 647.822318,34.3687541 L622.912114,34.3687541" id="Fill-133" fill="#81C17E" mask="url(#mask-4)"></path>
                <path d="M683.114234,34.3687541 C683.786576,32.3819344 684.181124,30.0482951 684.181124,27.5399016 C684.181124,20.3494426 680.989848,14.519377 677.05242,14.519377 C674.07318,14.519377 671.52338,17.8598689 670.457832,22.601082 C669.172196,20.4838689 667.411492,19.1745574 665.466934,19.1745574 C662.342758,19.1745574 659.694992,22.5486557 658.731436,27.2387869 C657.522294,25.635082 656.004492,24.6699016 654.351148,24.6699016 C652.881658,24.6699016 651.515502,25.4267213 650.381512,26.7199016 C649.384406,21.7259672 646.768848,18.1542623 643.6903,18.1542623 C639.752872,18.1542623 636.561596,23.9829836 636.561596,31.1747869 C636.561596,32.2784262 636.6448,33.3444262 636.787052,34.3687541 L683.114234,34.3687541" id="Fill-134" fill="#4DA64C" mask="url(#mask-4)"></path>
            </g>
            <path d="M635,390 C634.599468,386.307941 632.571524,383.495729 630.125749,383.495729 C628.918829,383.495729 627.813041,384.181325 626.953426,385.317636 C626.638057,382.342913 624.56487,380.043629 622.04857,380.043629 C620.518297,380.043629 619.150366,380.893006 618.242848,382.227378 C617.600133,380.2747 616.562209,379 615.388556,379 C613.825017,379 612.499667,381.257387 612.035263,384.384464 C611.500333,383.550323 610.799069,383.039935 610.028609,383.039935 C608.355955,383.039935 607,385.424284 607,388.365997 C607,388.936057 607.051896,389.484534 607.146374,390 L635,390" id="Fill-136" fill="#479B56"></path>
            <polygon id="Fill-137" fill="#8E5E3E" points="621 391 622 391 622 371 621 371"></polygon>
            <path d="M628.115868,373.629236 C628.468191,373.261062 628.686233,372.757892 628.686233,372.201541 C628.686233,371.706552 628.508077,371.25929 628.223559,370.906116 C628.356511,370.318402 628.434953,369.70887 628.434953,369.078885 C628.434953,364.648531 624.932992,361.056794 620.612045,361.056794 C619.852888,361.056794 619.120322,361.174064 618.426311,361.379969 C618.157748,360.579532 617.423852,360 616.550356,360 C615.450841,360 614.558732,360.913616 614.558732,362.041317 C614.558732,362.569033 614.759489,363.046294 615.079904,363.40765 C613.746394,364.77671 612.902147,366.640758 612.809081,368.705257 C610.602074,369.407513 609,371.517011 609,374.011045 C609,377.077794 611.423719,379.56501 614.415143,379.56501 C615.70478,379.56501 616.889384,379.10002 617.81872,378.326856 C618.183009,378.820481 618.753374,379.145019 619.40351,379.145019 C620.503025,379.145019 621.395134,378.23004 621.395134,377.102339 C621.395134,377.088703 621.391145,377.075066 621.391145,377.06143 C621.43369,377.05734 621.476235,377.049158 621.520109,377.043704 C621.932261,378.740029 623.416007,380 625.197567,380 C627.296882,380 629,378.254585 629,376.100089 C629,375.156474 628.659642,374.302857 628.115868,373.629236" id="Fill-138" fill="#377749"></path>
            <polygon id="Fill-139" fill="#8E5E3E" points="650 391 652 391 652 367 650 367"></polygon>
            <path d="M658.791142,368.125061 C659.380038,366.22244 659.717708,364.063465 659.717708,361.766968 C659.717708,354.164493 656.064122,348 651.558257,348 C647.581858,348 644.275396,352.799947 643.550082,359.150029 C643.498756,359.139348 643.448781,359.124661 643.398806,359.124661 C642.07379,359.124661 641,362.582758 641,366.847301 C641,371.111843 642.07379,374.569941 643.398806,374.569941 C643.855335,374.569941 644.28215,374.149361 644.646833,373.432373 C644.983152,375.512573 646.077202,377.038676 647.379256,377.038676 C648.289614,377.038676 649.098671,376.289644 649.618682,375.128043 C650.241345,375.384396 650.88832,375.535271 651.558257,375.535271 C652.136347,375.535271 652.699581,375.429792 653.243904,375.237527 C653.708538,376.873114 654.672922,378 655.789934,378 C657.308097,378 658.543968,375.926476 658.625009,373.317549 C658.62771,373.317549 658.630412,373.318884 658.633113,373.318884 C659.388142,373.318884 660,372.150608 660,370.707286 C660,369.368107 659.470534,368.277271 658.791142,368.125061" id="Fill-140" fill="#3C6D46"></path>
            <g id="Group-144" transform="translate(645.000000, 344.000000)">
                <mask id="mask-6" fill="white">
                    <use xlink:href="#path-5"></use>
                </mask>
                <g id="Clip-142"></g>
                <polygon id="Fill-141" fill="#8E5E3E" mask="url(#mask-6)" points="18.9867826 46.4185429 20.823513 46.4185429 20.823513 23.3737714 18.9867826 23.3737714"></polygon>
                <path d="M37.6728696,9.13545714 C37.6728696,5.83605714 34.9706783,3.16242857 31.6390609,3.16242857 C30.8522783,3.16242857 30.1034783,3.31551429 29.4143652,3.58677143 C29.3139826,2.00488571 27.999513,0.749314286 26.377113,0.749314286 C24.6896,0.749314286 23.3208696,2.10425714 23.3208696,3.77611429 C23.3208696,4.24611429 23.438887,4.68657143 23.6328696,5.08405714 C22.4513391,4.73491429 21.2019826,4.54154286 19.9051478,4.54154286 C16.0512696,4.54154286 12.5989217,6.20802857 10.2128,8.84002857 C9.48570435,6.84588571 7.56351304,5.41842857 5.29947826,5.41842857 C2.4128,5.41842857 0.0714434783,7.7362 0.0714434783,10.5938 C0.0714434783,13.1680571 1.97328696,15.2978286 4.4597913,15.6966571 C4.21154783,16.2297714 4.06504348,16.8192857 4.06504348,17.4450571 C4.06504348,19.5144 5.57756522,21.2252 7.56622609,21.5770286 C9.308,26.6731714 14.1684174,30.3472286 19.9051478,30.3472286 C20.7000696,30.3472286 21.4746435,30.2653143 22.2302261,30.1310286 C22.7904696,30.8024571 23.6274435,31.2402286 24.5770087,31.2402286 C26.2645217,31.2402286 27.6332522,29.8852857 27.6332522,28.2147714 C27.6332522,28.0872 27.6115478,27.9676857 27.5966261,27.8454857 C30.8305739,25.4968286 32.9399652,21.7193714 32.9399652,17.4450571 C32.9399652,16.6111429 32.8517913,15.7987143 32.6998609,15.0104571 C35.5254957,14.5122571 37.6728696,12.0749714 37.6728696,9.13545714" id="Fill-143" fill="#2B6242" mask="url(#mask-6)"></path>
            </g>
            <polygon id="Fill-145" fill="#FFF1E4" points="426 290 602 290 602 243 426 243"></polygon>
            <polygon id="Fill-146" fill="#D5B9A0" points="426 306 602 306 602 290 426 290"></polygon>
            <polygon id="Fill-147" fill="#8E5E3E" points="426 390 605 390 605 373 426 373"></polygon>
            <polygon id="Fill-148" fill="#FFF1E4" points="426 371 605 371 605 309 426 309"></polygon>
            <polygon id="Fill-149" fill="#D5884C" points="426 373 607 373 607 371 426 371"></polygon>
            <polygon id="Fill-150" fill="#A06339" points="426 309 607 309 607 307 426 307"></polygon>
            <polygon id="Fill-151" fill="#D5884C" points="425 243 604 243 604 235 425 235"></polygon>
            <polygon id="Fill-152" fill="#242524" points="577 371 590 371 590 344 577 344"></polygon>
            <polygon id="Fill-153" fill="#484849" points="577 338 590 338 590 334 577 334"></polygon>
            <polygon id="Fill-154" fill="#484849" points="578 370 589 370 589 345 578 345"></polygon>
            <polygon id="Fill-155" fill="#242524" points="578 337 589 337 589 335 578 335"></polygon>
            <polygon id="Fill-156" fill="#242524" points="550 371 563 371 563 344 550 344"></polygon>
            <polygon id="Fill-157" fill="#484849" points="550 338 563 338 563 334 550 334"></polygon>
            <polygon id="Fill-158" fill="#484849" points="551 370 562 370 562 345 551 345"></polygon>
            <polygon id="Fill-159" fill="#242524" points="551 337 562 337 562 335 551 335"></polygon>
            <polygon id="Fill-160" fill="#242524" points="523 371 536 371 536 344 523 344"></polygon>
            <polygon id="Fill-161" fill="#484849" points="523 338 536 338 536 334 523 334"></polygon>
            <polygon id="Fill-162" fill="#484849" points="524 370 535 370 535 345 524 345"></polygon>
            <polygon id="Fill-163" fill="#242524" points="524 337 535 337 535 335 524 335"></polygon>
            <polygon id="Fill-164" fill="#242524" points="496 371 509 371 509 344 496 344"></polygon>
            <polygon id="Fill-165" fill="#484849" points="496 338 509 338 509 334 496 334"></polygon>
            <polygon id="Fill-166" fill="#484849" points="497 370 508 370 508 345 497 345"></polygon>
            <polygon id="Fill-167" fill="#242524" points="497 337 508 337 508 335 497 335"></polygon>
            <polygon id="Fill-168" fill="#242524" points="468 371 481 371 481 344 468 344"></polygon>
            <polygon id="Fill-169" fill="#484849" points="468 338 481 338 481 334 468 334"></polygon>
            <polygon id="Fill-170" fill="#484849" points="469 370 480 370 480 345 469 345"></polygon>
            <polygon id="Fill-171" fill="#242524" points="469 337 480 337 480 335 469 335"></polygon>
            <polygon id="Fill-172" fill="#242524" points="442 371 455 371 455 344 442 344"></polygon>
            <polygon id="Fill-173" fill="#484849" points="442 338 455 338 455 334 442 334"></polygon>
            <polygon id="Fill-174" fill="#484849" points="443 370 454 370 454 345 443 345"></polygon>
            <polygon id="Fill-175" fill="#242524" points="443 337 454 337 454 335 443 335"></polygon>
            <polygon id="Fill-176" fill="#242524" points="438 290 474 290 474 256 438 256"></polygon>
            <polygon id="Fill-177" fill="#484849" points="440 278 449 278 449 259 440 259"></polygon>
            <polygon id="Fill-178" fill="#484849" points="451 278 460 278 460 259 451 259"></polygon>
            <polygon id="Fill-179" fill="#484849" points="464 278 473 278 473 259 464 259"></polygon>
            <polygon id="Fill-180" fill="#343534" points="440 289 449 289 449 278 440 278"></polygon>
            <polygon id="Fill-181" fill="#343534" points="451 289 460 289 460 278 451 278"></polygon>
            <polygon id="Fill-182" fill="#343534" points="464 289 473 289 473 278 464 278"></polygon>
            <polygon id="Fill-183" fill="#242524" points="491 290 527 290 527 256 491 256"></polygon>
            <polygon id="Fill-184" fill="#484849" points="493 278 502 278 502 259 493 259"></polygon>
            <polygon id="Fill-185" fill="#484849" points="504 278 513 278 513 259 504 259"></polygon>
            <polygon id="Fill-186" fill="#484849" points="516 278 525 278 525 259 516 259"></polygon>
            <polygon id="Fill-187" fill="#343534" points="493 289 502 289 502 278 493 278"></polygon>
            <polygon id="Fill-188" fill="#343534" points="504 289 513 289 513 278 504 278"></polygon>
            <polygon id="Fill-189" fill="#343534" points="516 289 525 289 525 278 516 278"></polygon>
            <polygon id="Fill-190" fill="#242524" points="543 290 579 290 579 256 543 256"></polygon>
            <polygon id="Fill-191" fill="#484849" points="546 278 555 278 555 259 546 259"></polygon>
            <polygon id="Fill-192" fill="#484849" points="557 278 566 278 566 259 557 259"></polygon>
            <polygon id="Fill-193" fill="#484849" points="568 278 577 278 577 259 568 259"></polygon>
            <polygon id="Fill-194" fill="#343534" points="546 289 555 289 555 278 546 278"></polygon>
            <polygon id="Fill-195" fill="#343534" points="557 289 566 289 566 278 557 278"></polygon>
            <polygon id="Fill-196" fill="#343534" points="568 289 577 289 577 278 568 278"></polygon>
            <polygon id="Fill-197" fill="#FFF1E4" points="67 290 243 290 243 243 67 243"></polygon>
            <polygon id="Fill-198" fill="#D5B9A0" points="67 306 243 306 243 290 67 290"></polygon>
            <polygon id="Fill-199" fill="#8E5E3E" points="64 390 243 390 243 373 64 373"></polygon>
            <polygon id="Fill-200" fill="#FFF1E4" points="64 371 243 371 243 309 64 309"></polygon>
            <polygon id="Fill-201" fill="#D5884C" points="62 373 243 373 243 371 62 371"></polygon>
            <polygon id="Fill-202" fill="#A06339" points="62 309 243 309 243 307 62 307"></polygon>
            <polygon id="Fill-203" fill="#D5884C" points="65 243 244 243 244 235 65 235"></polygon>
            <polygon id="Fill-204" fill="#242524" points="79 371 92 371 92 344 79 344"></polygon>
            <polygon id="Fill-205" fill="#484849" points="79 338 92 338 92 334 79 334"></polygon>
            <polygon id="Fill-206" fill="#484849" points="80 370 91 370 91 345 80 345"></polygon>
            <polygon id="Fill-207" fill="#242524" points="80 337 91 337 91 335 80 335"></polygon>
            <polygon id="Fill-208" fill="#242524" points="106 371 119 371 119 344 106 344"></polygon>
            <polygon id="Fill-209" fill="#484849" points="106 338 119 338 119 334 106 334"></polygon>
            <polygon id="Fill-210" fill="#484849" points="107 370 118 370 118 345 107 345"></polygon>
            <polygon id="Fill-211" fill="#242524" points="107 337 118 337 118 335 107 335"></polygon>
            <polygon id="Fill-212" fill="#242524" points="132 371 145 371 145 344 132 344"></polygon>
            <polygon id="Fill-213" fill="#484849" points="132 338 145 338 145 334 132 334"></polygon>
            <polygon id="Fill-214" fill="#484849" points="133 370 144 370 144 345 133 345"></polygon>
            <polygon id="Fill-215" fill="#242524" points="133 337 144 337 144 335 133 335"></polygon>
            <polygon id="Fill-216" fill="#242524" points="159 371 172 371 172 344 159 344"></polygon>
            <polygon id="Fill-217" fill="#484849" points="159 338 172 338 172 334 159 334"></polygon>
            <polygon id="Fill-218" fill="#484849" points="160 370 171 370 171 345 160 345"></polygon>
            <polygon id="Fill-219" fill="#242524" points="160 337 171 337 171 335 160 335"></polygon>
            <polygon id="Fill-220" fill="#242524" points="187 371 200 371 200 344 187 344"></polygon>
            <polygon id="Fill-221" fill="#484849" points="187 338 200 338 200 334 187 334"></polygon>
            <polygon id="Fill-222" fill="#484849" points="188 370 199 370 199 345 188 345"></polygon>
            <polygon id="Fill-223" fill="#242524" points="188 337 199 337 199 335 188 335"></polygon>
            <polygon id="Fill-224" fill="#242524" points="214 371 227 371 227 344 214 344"></polygon>
            <polygon id="Fill-225" fill="#484849" points="214 338 227 338 227 334 214 334"></polygon>
            <polygon id="Fill-226" fill="#484849" points="215 370 226 370 226 345 215 345"></polygon>
            <polygon id="Fill-227" fill="#242524" points="215 337 226 337 226 335 215 335"></polygon>
            <polygon id="Fill-228" fill="#242524" points="195 290 231 290 231 256 195 256"></polygon>
            <polygon id="Fill-229" fill="#484849" points="220 278 229 278 229 259 220 259"></polygon>
            <polygon id="Fill-230" fill="#484849" points="208 278 217 278 217 259 208 259"></polygon>
            <polygon id="Fill-231" fill="#484849" points="196 278 205 278 205 259 196 259"></polygon>
            <polygon id="Fill-232" fill="#343534" points="220 289 229 289 229 278 220 278"></polygon>
            <polygon id="Fill-233" fill="#343534" points="208 289 217 289 217 278 208 278"></polygon>
            <polygon id="Fill-234" fill="#343534" points="196 289 205 289 205 278 196 278"></polygon>
            <polygon id="Fill-235" fill="#242524" points="142 290 178 290 178 256 142 256"></polygon>
            <polygon id="Fill-236" fill="#484849" points="167 278 176 278 176 259 167 259"></polygon>
            <polygon id="Fill-237" fill="#484849" points="156 278 165 278 165 259 156 259"></polygon>
            <polygon id="Fill-238" fill="#484849" points="144 278 153 278 153 259 144 259"></polygon>
            <polygon id="Fill-239" fill="#343534" points="167 289 176 289 176 278 167 278"></polygon>
            <polygon id="Fill-240" fill="#343534" points="156 289 165 289 165 278 156 278"></polygon>
            <polygon id="Fill-241" fill="#343534" points="144 289 153 289 153 278 144 278"></polygon>
            <polygon id="Fill-242" fill="#242524" points="90 290 126 290 126 256 90 256"></polygon>
            <polygon id="Fill-243" fill="#484849" points="114 278 123 278 123 259 114 259"></polygon>
            <polygon id="Fill-244" fill="#484849" points="103 278 112 278 112 259 103 259"></polygon>
            <polygon id="Fill-245" fill="#484849" points="92 278 101 278 101 259 92 259"></polygon>
            <polygon id="Fill-246" fill="#343534" points="114 289 123 289 123 278 114 278"></polygon>
            <polygon id="Fill-247" fill="#343534" points="103 289 112 289 112 278 103 278"></polygon>
            <polygon id="Fill-248" fill="#343534" points="92 289 101 289 101 278 92 278"></polygon>
            <path d="M334.500668,148 L334.500668,148 C284.518761,148 244,188.532986 244,238.534085 L244,318 L425,318 L425,238.534085 C425,188.532986 384.482574,148 334.500668,148" id="Fill-249" fill="#D5884C"></path>
            <path d="M334.500672,164 L334.500672,164 C293.908081,164 261,197.013377 261,237.737513 L261,320 L408,320 L408,237.737513 C408,197.013377 375.093262,164 334.500672,164" id="Fill-250" fill="#A06339"></path>
            <path d="M334.5,168 L334.5,168 C296.1153,168 265,198.845654 265,236.894727 L265,318 L404,318 L404,236.894727 C404,198.845654 372.883353,168 334.5,168" id="Fill-251" fill="#FFF1E4"></path>
            <path d="M334.5,197 L334.5,197 C307.71437,197 286,218.795671 286,245.681588 L286,318 L383,318 L383,245.681588 C383,218.795671 361.28563,197 334.5,197" id="Fill-252" fill="#242524"></path>
            <polygon id="Fill-253" fill="#D5B9A0" points="237 327 432 327 432 319 237 319"></polygon>
            <polygon id="Fill-254" fill="#4D4C49" points="244 363 425 363 425 327 244 327"></polygon>
            <polygon id="Fill-255" fill="#787670" points="244 391 425 391 425 363 244 363"></polygon>
            <polygon id="Fill-256" fill="#D5B9A0" points="243 391 255 391 255 327 243 327"></polygon>
            <polygon id="Fill-257" fill="#A06339" points="243 391 255 391 255 370 243 370"></polygon>
            <path d="M255.742559,334 L243.257441,334 C241.459333,334 240,332.433087 240,330.4993 C240,328.566913 241.459333,327 243.257441,327 L255.742559,327 C257.54197,327 259,328.566913 259,330.4993 C259,332.433087 257.54197,334 255.742559,334" id="Fill-258" fill="#D5884C"></path>
            <path d="M257.592786,370 L241.408517,370 C240.630641,370 240,369.328089 240,368.500694 C240,367.671911 240.630641,367 241.408517,367 L257.592786,367 C258.369359,367 259,367.671911 259,368.500694 C259,369.328089 258.369359,370 257.592786,370" id="Fill-259" fill="#D5884C"></path>
            <path d="M255.742559,391 L243.257441,391 C241.459333,391 240,389.4334 240,387.5 C240,385.5666 241.459333,384 243.257441,384 L255.742559,384 C257.54197,384 259,385.5666 259,387.5 C259,389.4334 257.54197,391 255.742559,391" id="Fill-260" fill="#D5884C"></path>
            <polygon id="Fill-261" fill="#D5B9A0" points="414 391 426 391 426 327 414 327"></polygon>
            <polygon id="Fill-262" fill="#A06339" points="414 391 426 391 426 370 414 370"></polygon>
            <path d="M425.742559,334 L413.257441,334 C411.45803,334 410,332.433087 410,330.4993 C410,328.566913 411.45803,327 413.257441,327 L425.742559,327 C427.54197,327 429,328.566913 429,330.4993 C429,332.433087 427.54197,334 425.742559,334" id="Fill-263" fill="#D5884C"></path>
            <path d="M427.591483,370 L411.408517,370 C410.630641,370 410,369.328089 410,368.500694 C410,367.671911 410.630641,367 411.408517,367 L427.591483,367 C428.369359,367 429,367.671911 429,368.500694 C429,369.328089 428.369359,370 427.591483,370" id="Fill-264" fill="#D5884C"></path>
            <path d="M425.742559,391 L413.257441,391 C411.45803,391 410,389.4334 410,387.5 C410,385.5666 411.45803,384 413.257441,384 L425.742559,384 C427.54197,384 429,385.5666 429,387.5 C429,389.4334 427.54197,391 425.742559,391" id="Fill-265" fill="#D5884C"></path>
            <polygon id="Fill-266" fill="#D5B9A0" points="328 391 340 391 340 327 328 327"></polygon>
            <polygon id="Fill-267" fill="#A06339" points="328 391 340 391 340 370 328 370"></polygon>
            <path d="M340.742559,334 L328.256138,334 C326.45803,334 325,332.433087 325,330.4993 C325,328.566913 326.45803,327 328.256138,327 L340.742559,327 C342.540667,327 344,328.566913 344,330.4993 C344,332.433087 342.540667,334 340.742559,334" id="Fill-268" fill="#D5884C"></path>
            <path d="M342.591483,370 L326.407214,370 C325.630641,370 325,369.328089 325,368.500694 C325,367.671911 325.630641,367 326.407214,367 L342.591483,367 C343.369359,367 344,367.671911 344,368.500694 C344,369.328089 343.369359,370 342.591483,370" id="Fill-269" fill="#D5884C"></path>
            <path d="M340.742559,391 L328.256138,391 C326.45803,391 325,389.4334 325,387.5 C325,385.5666 326.45803,384 328.256138,384 L340.742559,384 C342.540667,384 344,385.5666 344,387.5 C344,389.4334 342.540667,391 340.742559,391" id="Fill-270" fill="#D5884C"></path>
            <polygon id="Fill-271" fill="#D5B9A0" points="286 391 298 391 298 327 286 327"></polygon>
            <polygon id="Fill-272" fill="#A06339" points="286 391 298 391 298 370 286 370"></polygon>
            <path d="M297.743639,334 L285.256361,334 C283.45813,334 282,332.433087 282,330.4993 C282,328.566913 283.45813,327 285.256361,327 L297.743639,327 C299.54187,327 301,328.566913 301,330.4993 C301,332.433087 299.54187,334 297.743639,334" id="Fill-273" fill="#D5884C"></path>
            <path d="M299.592689,370 L283.407311,370 C282.629381,370 282,369.328089 282,368.500694 C282,367.671911 282.629381,367 283.407311,367 L299.592689,367 C300.370619,367 301,367.671911 301,368.500694 C301,369.328089 300.370619,370 299.592689,370" id="Fill-274" fill="#D5884C"></path>
            <path d="M297.743639,391 L285.256361,391 C283.45813,391 282,389.4334 282,387.5 C282,385.5666 283.45813,384 285.256361,384 L297.743639,384 C299.54187,384 301,385.5666 301,387.5 C301,389.4334 299.54187,391 297.743639,391" id="Fill-275" fill="#D5884C"></path>
            <polygon id="Fill-276" fill="#D5B9A0" points="371 391 383 391 383 327 371 327"></polygon>
            <polygon id="Fill-277" fill="#A06339" points="371 391 383 391 383 370 371 370"></polygon>
            <path d="M382.742559,334 L370.257441,334 C368.45803,334 367,332.433087 367,330.4993 C367,328.566913 368.45803,327 370.257441,327 L382.742559,327 C384.54197,327 386,328.566913 386,330.4993 C386,332.433087 384.54197,334 382.742559,334" id="Fill-278" fill="#D5884C"></path>
            <path d="M384.591483,370 L368.408517,370 C367.630641,370 367,369.328089 367,368.500694 C367,367.671911 367.630641,367 368.408517,367 L384.591483,367 C385.369359,367 386,367.671911 386,368.500694 C386,369.328089 385.369359,370 384.591483,370" id="Fill-279" fill="#D5884C"></path>
            <path d="M382.742559,391 L370.257441,391 C368.45803,391 367,389.4334 367,387.5 C367,385.5666 368.45803,384 370.257441,384 L382.742559,384 C384.54197,384 386,385.5666 386,387.5 C386,389.4334 384.54197,391 382.742559,391" id="Fill-280" fill="#D5884C"></path>
            <polygon id="Fill-281" fill="#484849" points="291 319 301 319 301 301 291 301"></polygon>
            <polygon id="Fill-282" fill="#484849" points="303 319 314 319 314 301 303 301"></polygon>
            <polygon id="Fill-283" fill="#484849" points="316 319 327 319 327 301 316 301"></polygon>
            <polygon id="Fill-284" fill="#484849" points="329 319 340 319 340 301 329 301"></polygon>
            <polygon id="Fill-285" fill="#484849" points="342 319 353 319 353 301 342 301"></polygon>
            <polygon id="Fill-286" fill="#484849" points="367 319 377 319 377 301 367 301"></polygon>
            <polygon id="Fill-287" fill="#484849" points="355 319 366 319 366 301 355 301"></polygon>
            <polygon id="Fill-288" fill="#484849" points="291 299 301 299 301 281 291 281"></polygon>
            <polygon id="Fill-289" fill="#484849" points="303 299 314 299 314 281 303 281"></polygon>
            <polygon id="Fill-290" fill="#484849" points="316 299 327 299 327 281 316 281"></polygon>
            <polygon id="Fill-291" fill="#484849" points="329 299 340 299 340 281 329 281"></polygon>
            <polygon id="Fill-292" fill="#484849" points="342 299 353 299 353 281 342 281"></polygon>
            <polygon id="Fill-293" fill="#484849" points="355 299 366 299 366 281 355 281"></polygon>
            <polygon id="Fill-294" fill="#484849" points="367 299 377 299 377 281 367 281"></polygon>
            <polygon id="Fill-295" fill="#484849" points="291 279 301 279 301 261 291 261"></polygon>
            <polygon id="Fill-296" fill="#484849" points="303 279 314 279 314 261 303 261"></polygon>
            <polygon id="Fill-297" fill="#484849" points="316 279 327 279 327 261 316 261"></polygon>
            <polygon id="Fill-298" fill="#484849" points="329 279 340 279 340 261 329 261"></polygon>
            <polygon id="Fill-299" fill="#484849" points="342 279 353 279 353 261 342 261"></polygon>
            <polygon id="Fill-300" fill="#484849" points="355 279 366 279 366 261 355 261"></polygon>
            <polygon id="Fill-301" fill="#484849" points="367 279 377 279 377 261 367 261"></polygon>
            <path d="M301,241 L291.229773,241 C291.077984,242.449456 291,243.920525 291,245.407805 L291,259 L301,259 L301,241" id="Fill-302" fill="#484849"></path>
            <polygon id="Fill-303" fill="#484849" points="303 259 314 259 314 241 303 241"></polygon>
            <polygon id="Fill-304" fill="#484849" points="316 259 327 259 327 241 316 241"></polygon>
            <polygon id="Fill-305" fill="#484849" points="329 259 340 259 340 241 329 241"></polygon>
            <polygon id="Fill-306" fill="#484849" points="342 259 353 259 353 241 342 241"></polygon>
            <polygon id="Fill-307" fill="#484849" points="355 259 366 259 366 241 355 241"></polygon>
            <path d="M376.771588,241 L367,241 L367,259 L377,259 L377,245.407805 C377,243.920525 376.922006,242.449456 376.771588,241" id="Fill-308" fill="#484849"></path>
            <path d="M301,219 C296.324846,224.911623 293.129939,232.110617 292,240 L301,240 L301,219" id="Fill-309" fill="#484849"></path>
            <path d="M314,209 C309.884363,211.195262 306.167315,214.024711 303,217.371002 L303,240 L314,240 L314,209" id="Fill-310" fill="#484849"></path>
            <path d="M327,204 C323.130472,204.681696 319.438838,205.880357 316,207.525 L316,240 L327,240 L327,204" id="Fill-311" fill="#484849"></path>
            <path d="M340,203.360982 C338.198322,203.128439 336.363205,203 334.5,203 C332.63412,203 330.801678,203.133847 329,203.369094 L329,240 L340,240 L340,203.360982" id="Fill-312" fill="#484849"></path>
            <path d="M353,207.518173 C349.559825,205.877609 345.869528,204.676314 342,204 L342,240 L353,240 L353,207.518173" id="Fill-313" fill="#484849"></path>
            <path d="M367,240 L376,240 C374.871213,232.107046 371.671886,224.911924 367,219 L367,240" id="Fill-314" fill="#484849"></path>
            <path d="M366,217.397151 C362.829624,214.048044 359.122826,211.195833 355,209 L355,240 L366,240 L366,217.397151" id="Fill-315" fill="#484849"></path>
            <polygon id="Fill-316" fill="#AEB6D1" points="308 319 359 319 359 307 308 307"></polygon>
            <text id="BAHNHOF" font-family="Helvetica-Bold, Helvetica" font-size="7" font-weight="bold" fill="#23292A">
                <tspan x="316" y="316">BAHNHOF</tspan>
            </text>
            <path d="M281.499673,382 C280.119462,382 278.999346,383.152198 278.999346,384.571942 C278.999346,383.152198 277.880538,382 276.49902,382 C275.118808,382 274,383.152198 274,384.571942 L274,428.428058 C274,429.847802 275.118808,431 276.49902,431 C277.880538,431 278.999346,429.847802 278.999346,428.428058 C278.999346,429.847802 280.119462,431 281.499673,431 C282.881192,431 284,429.847802 284,428.428058 L284,384.571942 C284,383.152198 282.881192,382 281.499673,382" id="Fill-317" fill="#3F403F"></path>
            <path d="M281.499673,423.629986 C280.119462,423.629986 278.999346,422.452545 278.999346,421 C278.999346,422.452545 277.880538,423.629986 276.49902,423.629986 C275.118808,423.629986 274,422.452545 274,421 L274,428.368638 C274,429.821183 275.118808,431 276.49902,431 C277.880538,431 278.999346,429.821183 278.999346,428.368638 C278.999346,429.821183 280.119462,431 281.499673,431 C282.881192,431 284,429.821183 284,428.368638 L284,421 C284,422.452545 282.881192,423.629986 281.499673,423.629986" id="Fill-318" fill="#272826"></path>
            <path d="M251,431.4993 C251,433.985388 248.985388,436 246.5007,436 C244.014612,436 242,433.985388 242,431.4993 C242,429.014612 244.014612,427 246.5007,427 C248.985388,427 251,429.014612 251,431.4993" id="Fill-319" fill="#272826"></path>
            <path d="M250,431.5 C250,433.432701 248.433873,435 246.500755,435 C244.567638,435 243,433.432701 243,431.5 C243,429.567299 244.567638,428 246.500755,428 C248.433873,428 250,429.567299 250,431.5" id="Fill-320" fill="#484846"></path>
            <path d="M270,431.4993 C270,433.985388 267.985075,436 265.5,436 C263.014925,436 261,433.985388 261,431.4993 C261,429.014612 263.014925,427 265.5,427 C267.985075,427 270,429.014612 270,431.4993" id="Fill-321" fill="#272826"></path>
            <path d="M269,431.5 C269,433.432701 267.432701,435 265.5,435 C263.567299,435 262,433.432701 262,431.5 C262,429.567299 263.567299,428 265.5,428 C267.432701,428 269,429.567299 269,431.5" id="Fill-322" fill="#484846"></path>
            <polygon id="Fill-323" fill="#484846" points="251 435 261 435 261 427 251 427"></polygon>
            <polygon id="Fill-324" fill="#272826" points="251 428.919 261 428.919 261 428.081 251 428.081"></polygon>
            <polyline id="Fill-325" fill="#272826" points="261 434.984 251 434.984 253.259067 434.016 258.739637 434.016 261 434.984"></polyline>
            <path d="M264.511524,430.8725 L245.487166,430.8725 C245.218701,430.8725 245,430.7055 245,430.4995 C245,430.2945 245.218701,430.1275 245.487166,430.1275 L264.511524,430.1275 C264.781299,430.1275 265,430.2945 265,430.4995 C265,430.7055 264.781299,430.8725 264.511524,430.8725" id="Fill-326" fill="#272826"></path>
            <path d="M147,431.4993 C147,433.985388 144.985075,436 142.5,436 C140.014925,436 138,433.985388 138,431.4993 C138,429.014612 140.014925,427 142.5,427 C144.985075,427 147,429.014612 147,431.4993" id="Fill-327" fill="#272826"></path>
            <path d="M146,431.5 C146,433.432701 144.432701,435 142.5,435 C140.567299,435 139,433.432701 139,431.5 C139,429.567299 140.567299,428 142.5,428 C144.432701,428 146,429.567299 146,431.5" id="Fill-328" fill="#484846"></path>
            <path d="M166,431.4993 C166,433.985388 163.985388,436 161.5007,436 C159.014612,436 157,433.985388 157,431.4993 C157,429.014612 159.014612,427 161.5007,427 C163.985388,427 166,429.014612 166,431.4993" id="Fill-329" fill="#272826"></path>
            <path d="M165,431.5 C165,433.432701 163.432701,435 161.5,435 C159.567299,435 158,433.432701 158,431.5 C158,429.567299 159.567299,428 161.5,428 C163.432701,428 165,429.567299 165,431.5" id="Fill-330" fill="#484846"></path>
            <polygon id="Fill-331" fill="#484846" points="147 435 157 435 157 427 147 427"></polygon>
            <polygon id="Fill-332" fill="#272826" points="147 428.919 157 428.919 157 428.081 147 428.081"></polygon>
            <polyline id="Fill-333" fill="#272826" points="157 434.984 147 434.984 149.260363 434.016 154.740933 434.016 157 434.984"></polyline>
            <path d="M161.512802,430.8725 L142.487198,430.8725 C142.217406,430.8725 142,430.7055 142,430.4995 C142,430.2945 142.217406,430.1275 142.487198,430.1275 L161.512802,430.1275 C161.782594,430.1275 162,430.2945 162,430.4995 C162,430.7055 161.782594,430.8725 161.512802,430.8725" id="Fill-334" fill="#272826"></path>
            <polyline id="Fill-335" fill="#DA5352" points="133 380 133 433 134.305394 433 137.790473 427.159553 165.434741 427.159553 168.91982 433 238.097639 433 241.581375 427.159553 269.226986 427.159553 272.710722 433 274 433 274 380 133 380"></polyline>
            <polygon id="Fill-336" fill="#F3C0BC" points="133 416 274 416 274 413 133 413"></polygon>
            <polygon id="Fill-337" fill="#1E201E" points="191 426 216 426 216 390 191 390"></polygon>
            <polygon id="Fill-338" fill="#1E201E" points="138 408 187 408 187 390 138 390"></polygon>
            <path d="M158.043895,407 L144.956105,407 C143.323221,407 142,405.576721 142,403.82209 L142,394.176512 C142,392.42188 143.323221,391 144.956105,391 L158.043895,391 C159.676779,391 161,392.42188 161,394.176512 L161,403.82209 C161,405.576721 159.676779,407 158.043895,407" id="Fill-339" fill="#373B3D"></path>
            <polyline id="Fill-340" fill="#969794" points="142 398 149 391 146.772599 391 142 395.772599 142 398"></polyline>
            <polyline id="Fill-341" fill="#969794" points="157.08238 407 161 403.08302 161 399 153 407 157.08238 407"></polyline>
            <path d="M159.430145,391 L151.296166,391 L142,400.830129 L142,405.01468 C142,406.1108 142.840899,407 143.877479,407 L144.965624,407 L160,391.102062 C159.818863,391.041943 159.629793,391 159.430145,391" id="Fill-342" fill="#969794"></path>
            <path d="M181.044098,407 L167.957204,407 C166.324432,407 165,405.576721 165,403.82209 L165,394.176512 C165,392.42188 166.324432,391 167.957204,391 L181.044098,391 C182.676869,391 184,392.42188 184,394.176512 L184,403.82209 C184,405.576721 182.676869,407 181.044098,407" id="Fill-343" fill="#373B3D"></path>
            <polyline id="Fill-344" fill="#969794" points="165 398 172 391 169.774006 391 165 395.772599 165 398"></polyline>
            <polyline id="Fill-345" fill="#969794" points="180.08302 407 184 403.08302 184 399 176 407 180.08302 407"></polyline>
            <path d="M182.431468,391 L174.297488,391 L165,400.830129 L165,405.01468 C165,406.1108 165.840899,407 166.878801,407 L167.966946,407 L183,391.102062 C182.820185,391.041943 182.631115,391 182.431468,391" id="Fill-346" fill="#969794"></path>
            <polygon id="Fill-347" fill="#1E201E" points="221 408 270 408 270 390 221 390"></polygon>
            <path d="M240.042796,407 L226.957204,407 C225.324432,407 224,405.576721 224,403.82209 L224,394.176512 C224,392.42188 225.324432,391 226.957204,391 L240.042796,391 C241.675568,391 243,392.42188 243,394.176512 L243,403.82209 C243,405.576721 241.675568,407 240.042796,407" id="Fill-348" fill="#373B3D"></path>
            <polyline id="Fill-349" fill="#969794" points="224 398 231 391 228.774006 391 224 395.772599 224 398"></polyline>
            <polyline id="Fill-350" fill="#969794" points="240.08302 407 244 403.08302 244 399 236 407 240.08302 407"></polyline>
            <path d="M241.431468,391 L233.297488,391 L224,400.830129 L224,405.01468 C224,406.1108 224.840899,407 225.877479,407 L226.966946,407 L242,391.102062 C241.820185,391.041943 241.631115,391 241.431468,391" id="Fill-351" fill="#969794"></path>
            <path d="M262.043895,407 L248.956105,407 C247.323221,407 246,405.576721 246,403.82209 L246,394.176512 C246,392.42188 247.323221,391 248.956105,391 L262.043895,391 C263.676779,391 265,392.42188 265,394.176512 L265,403.82209 C265,405.576721 263.676779,407 262.043895,407" id="Fill-352" fill="#373B3D"></path>
            <polyline id="Fill-353" fill="#969794" points="246 398 253 391 250.772599 391 246 395.772599 246 398"></polyline>
            <polyline id="Fill-354" fill="#969794" points="262.08238 407 266 403.08302 266 399 258 407 262.08238 407"></polyline>
            <path d="M263.430145,391 L255.296166,391 L246,400.830129 L246,405.01468 C246,406.1108 246.840899,407 247.877479,407 L248.965624,407 L264,391.102062 C263.818863,391.041943 263.629793,391 263.430145,391" id="Fill-355" fill="#969794"></path>
            <path d="M192,426 L204,426 L204,392.009729 C204,390.900205 203.113407,390 202.02066,390 L192,390 L192,426" id="Fill-356" fill="#A9333D"></path>
            <path d="M199.355632,408 L195.643022,408 C194.736063,408 194,407.24077 194,406.303877 L194,394.696123 C194,393.75923 194.736063,393 195.643022,393 L199.355632,393 C200.263937,393 201,393.75923 201,394.696123 L201,406.303877 C201,407.24077 200.263937,408 199.355632,408" id="Fill-357" fill="#373B3D"></path>
            <polyline id="Fill-358" fill="#969794" points="194 398 198 394 196.486645 394 194 396.486645 194 398"></polyline>
            <polyline id="Fill-359" fill="#969794" points="196.86182 408 201 403.86182 201 402 195 408 196.86182 408"></polyline>
            <path d="M201,397 L194,403.710526 L194,406.614293 C194,406.751032 194.029604,406.881321 194.082084,407 L201,400.368163 L201,397" id="Fill-360" fill="#969794"></path>
            <path d="M216,426 L204,426 L204,392.009729 C204,390.900205 204.885345,390 205.978214,390 L216,390 L216,426" id="Fill-361" fill="#A9333D"></path>
            <path d="M212.356978,408 L208.644368,408 C207.736063,408 207,407.24077 207,406.303877 L207,394.696123 C207,393.75923 207.736063,393 208.644368,393 L212.356978,393 C213.263937,393 214,393.75923 214,394.696123 L214,406.303877 C214,407.24077 213.263937,408 212.356978,408" id="Fill-362" fill="#373B3D"></path>
            <polyline id="Fill-363" fill="#969794" points="207 398 211 394 209.486645 394 207 396.486645 207 398"></polyline>
            <polyline id="Fill-364" fill="#969794" points="209.860824 408 214 403.86182 214 402 208 408 209.860824 408"></polyline>
            <path d="M214,397 L207,403.710526 L207,406.614293 C207,406.751032 207.03095,406.881321 207.083429,407 L214,400.368163 L214,397" id="Fill-365" fill="#969794"></path>
            <polyline id="Fill-366" fill="#A9333D" points="133 426 133 433 134.305394 433 137.790473 427.059816 165.434741 427.059816 168.91982 433 238.097639 433 241.581375 427.059816 269.226986 427.059816 272.710722 433 274 433 274 426 133 426"></polyline>
            <polygon id="Fill-367" fill="#F3C0BC" points="133 387 274 387 274 380 133 380"></polygon>
            <path d="M130.5,382 C129.118662,382 128,383.152198 128,384.571942 C128,383.152198 126.880031,382 125.5,382 C124.119969,382 123,383.152198 123,384.571942 L123,428.428058 C123,429.847802 124.119969,431 125.5,431 C126.880031,431 128,429.847802 128,428.428058 C128,429.847802 129.118662,431 130.5,431 C131.880031,431 133,429.847802 133,428.428058 L133,384.571942 C133,383.152198 131.880031,382 130.5,382" id="Fill-368" fill="#3F403F"></path>
            <path d="M130.5,423.629986 C129.118662,423.629986 128,422.452545 128,421 C128,422.452545 126.880031,423.629986 125.5,423.629986 C124.119969,423.629986 123,422.452545 123,421 L123,428.368638 C123,429.821183 124.119969,431 125.5,431 C126.880031,431 128,429.821183 128,428.368638 C128,429.821183 129.118662,431 130.5,431 C131.880031,431 133,429.821183 133,428.368638 L133,421 C133,422.452545 131.880031,423.629986 130.5,423.629986" id="Fill-369" fill="#272826"></path>
            <path d="M100,431.4993 C100,433.985388 97.9850746,436 95.5,436 C93.0149254,436 91,433.985388 91,431.4993 C91,429.014612 93.0149254,427 95.5,427 C97.9850746,427 100,429.014612 100,431.4993" id="Fill-370" fill="#272826"></path>
            <path d="M99,431.5 C99,433.432701 97.4327006,435 95.5,435 C93.5672994,435 92,433.432701 92,431.5 C92,429.567299 93.5672994,428 95.5,428 C97.4327006,428 99,429.567299 99,431.5" id="Fill-371" fill="#484846"></path>
            <path d="M119,431.4993 C119,433.985388 116.985388,436 114.5007,436 C112.016011,436 110,433.985388 110,431.4993 C110,429.014612 112.016011,427 114.5007,427 C116.985388,427 119,429.014612 119,431.4993" id="Fill-372" fill="#272826"></path>
            <path d="M118,431.5 C118,433.432701 116.432701,435 114.5,435 C112.567299,435 111,433.432701 111,431.5 C111,429.567299 112.567299,428 114.5,428 C116.432701,428 118,429.567299 118,431.5" id="Fill-373" fill="#484846"></path>
            <polygon id="Fill-374" fill="#484846" points="100 435 110 435 110 427 100 427"></polygon>
            <polygon id="Fill-375" fill="#272826" points="100 428.919 110 428.919 110 428.081 100 428.081"></polygon>
            <polyline id="Fill-376" fill="#272826" points="110 434.984 100 434.984 102.260363 434.016 107.740933 434.016 110 434.984"></polyline>
            <path d="M113.512802,430.8725 L94.487198,430.8725 C94.2174055,430.8725 94,430.7055 94,430.4995 C94,430.2945 94.2174055,430.1275 94.487198,430.1275 L113.512802,430.1275 C113.782594,430.1275 114,430.2945 114,430.4995 C114,430.7055 113.782594,430.8725 113.512802,430.8725" id="Fill-377" fill="#272826"></path>
            <path d="M15,431.4993 C15,433.985388 12.9864739,436 10.5,436 C8.01492537,436 6,433.985388 6,431.4993 C6,429.014612 8.01492537,427 10.5,427 C12.9864739,427 15,429.014612 15,431.4993" id="Fill-378" fill="#272826"></path>
            <g id="Group-392" transform="translate(0.000000, 380.000000)">
                <mask id="mask-8" fill="white">
                    <use xlink:href="#path-7"></use>
                </mask>
                <g id="Clip-380"></g>
                <path d="M13.5580761,51.824 C13.5580761,53.5306667 12.1703152,54.9146667 10.4590109,54.9146667 C8.74770652,54.9146667 7.35994565,53.5306667 7.35994565,51.824 C7.35994565,50.1173333 8.74770652,48.7333333 10.4590109,48.7333333 C12.1703152,48.7333333 13.5580761,50.1173333 13.5580761,51.824" id="Fill-379" fill="#484846" mask="url(#mask-8)"></path>
                <polygon id="Fill-381" fill="#484846" mask="url(#mask-8)" points="0 54.9146667 6.1593587 54.9146667 6.1593587 47.536 0 47.536"></polygon>
                <polygon id="Fill-382" fill="#272826" mask="url(#mask-8)" points="0 49.7706667 6.1593587 49.7706667 6.1593587 48.6533333 0 48.6533333"></polygon>
                <polyline id="Fill-383" fill="#272826" mask="url(#mask-8)" points="6.1593587 54.9146667 -4.16194565 54.9146667 -1.82895652 53.624 3.82636957 53.624 6.1593587 54.9146667"></polyline>
                <path d="M10.7103587,52.3213333 L-8.7116087,52.3213333 C-8.98702174,52.3213333 -9.21029348,52.0986667 -9.21029348,51.824 C-9.21029348,51.5506667 -8.98702174,51.328 -8.7116087,51.328 L10.7103587,51.328 C10.9844348,51.328 11.2077065,51.5506667 11.2077065,51.824 C11.2077065,52.0986667 10.9844348,52.3213333 10.7103587,52.3213333" id="Fill-384" fill="#272826" mask="url(#mask-8)"></path>
                <polyline id="Fill-385" fill="#DA5352" mask="url(#mask-8)" points="-17.5515652 0.950666667 -17.5515652 53.3053333 -16.2507065 53.3053333 -12.7826413 47.536 14.7386087 47.536 18.2066739 53.3053333 87.0733043 53.3053333 90.5427065 47.536 118.06262 47.536 121.532022 53.3053333 122.814163 53.3053333 122.814163 0.950666667 -17.5515652 0.950666667"></polyline>
                <polygon id="Fill-386" fill="#F3C0BC" mask="url(#mask-8)" points="0 35.744 122.879674 35.744 122.879674 32.5506667 0 32.5506667"></polygon>
                <polygon id="Fill-387" fill="#1E201E" mask="url(#mask-8)" points="40.2036196 46.5786667 65.0603152 46.5786667 65.0603152 10.816 40.2036196 10.816"></polygon>
                <polygon id="Fill-388" fill="#1E201E" mask="url(#mask-8)" points="0 28.6973333 36.2970326 28.6973333 36.2970326 10.816 0 10.816"></polygon>
                <path d="M7.55781522,27.3866667 L-5.89063043,27.3866667 C-7.56851087,27.3866667 -8.92953261,26.0293333 -8.92953261,24.356 L-8.92953261,15.1573333 C-8.92953261,13.484 -7.56851087,12.128 -5.89063043,12.128 L7.55781522,12.128 C9.23569565,12.128 10.5953804,13.484 10.5953804,15.1573333 L10.5953804,24.356 C10.5953804,26.0293333 9.23569565,27.3866667 7.55781522,27.3866667" id="Fill-389" fill="#373B3D" mask="url(#mask-8)"></path>
                <polyline id="Fill-390" fill="#969794" mask="url(#mask-8)" points="6.5898587 27.3866667 10.5953804 23.392 10.5953804 19.228 2.41454348 27.3866667 6.5898587 27.3866667"></polyline>
                <path d="M8.69690217,12.128 L0.471945652,12.128 L-8.92953261,21.5026667 L-8.92953261,25.4933333 C-8.92953261,26.5386667 -8.07922826,27.3866667 -7.02971739,27.3866667 L-5.92940217,27.3866667 L9.27313043,12.2253333 C9.08996739,12.168 8.89878261,12.128 8.69690217,12.128" id="Fill-391" fill="#969794" mask="url(#mask-8)"></path>
            </g>
            <path d="M29.0427965,407 L15.9559025,407 C14.3231306,407 13,405.576721 13,403.82209 L13,394.176512 C13,392.42188 14.3231306,391 15.9559025,391 L29.0427965,391 C30.6755683,391 32,392.42188 32,394.176512 L32,403.82209 C32,405.576721 30.6755683,407 29.0427965,407" id="Fill-393" fill="#373B3D"></path>
            <polyline id="Fill-394" fill="#969794" points="13 398 20 391 17.7740056 391 13 395.772599 13 398"></polyline>
            <polyline id="Fill-395" fill="#969794" points="29.0817127 407 33 403.08302 33 399 25 407 29.0817127 407"></polyline>
            <path d="M30.4301454,391 L22.2974879,391 L13,400.830129 L13,405.01468 C13,406.1108 13.8408991,407 14.8774791,407 L15.9669458,407 L31,391.102062 C30.8188629,391.041943 30.631115,391 30.4301454,391" id="Fill-396" fill="#969794"></path>
            <polygon id="Fill-397" fill="#1E201E" points="70 408 119 408 119 390 70 390"></polygon>
            <path d="M89.0438951,407 L75.9561049,407 C74.3232213,407 73,405.576721 73,403.82209 L73,394.176512 C73,392.42188 74.3232213,391 75.9561049,391 L89.0438951,391 C90.6767787,391 92,392.42188 92,394.176512 L92,403.82209 C92,405.576721 90.6767787,407 89.0438951,407" id="Fill-398" fill="#373B3D"></path>
            <polyline id="Fill-399" fill="#969794" points="73 398 80 391 77.7725994 391 73 395.772599 73 398"></polyline>
            <polyline id="Fill-400" fill="#969794" points="89.0823799 407 93 403.08302 93 399 85 407 89.0823799 407"></polyline>
            <path d="M90.4301454,391 L82.2961657,391 L73,400.830129 L73,405.01468 C73,406.1108 73.8408991,407 74.8774791,407 L75.9656236,407 L91,391.102062 C90.8188629,391.041943 90.6297929,391 90.4301454,391" id="Fill-401" fill="#969794"></path>
            <path d="M111.044098,407 L97.9572035,407 C96.3244317,407 95,405.576721 95,403.82209 L95,394.176512 C95,392.42188 96.3244317,391 97.9572035,391 L111.044098,391 C112.676869,391 114,392.42188 114,394.176512 L114,403.82209 C114,405.576721 112.676869,407 111.044098,407" id="Fill-402" fill="#373B3D"></path>
            <polyline id="Fill-403" fill="#969794" points="95 398 102 391 99.7740056 391 95 395.772599 95 398"></polyline>
            <polyline id="Fill-404" fill="#969794" points="110.08302 407 114 403.08302 114 399 106 407 110.08302 407"></polyline>
            <path d="M112.431468,391 L104.297488,391 L95,400.830129 L95,405.01468 C95,406.1108 95.8408991,407 96.8788012,407 L97.9669458,407 L113,391.102062 C112.820185,391.041943 112.631115,391 112.431468,391" id="Fill-405" fill="#969794"></path>
            <path d="M40,426 L52,426 L52,392.009729 C52,390.900205 51.1146547,390 50.020438,390 L40,390 L40,426" id="Fill-406" fill="#A9333D"></path>
            <path d="M47.3566622,408 L43.6433378,408 C42.7348587,408 42,407.24077 42,406.303877 L42,394.696123 C42,393.75923 42.7348587,393 43.6433378,393 L47.3566622,393 C48.2637954,393 49,393.75923 49,394.696123 L49,406.303877 C49,407.24077 48.2637954,408 47.3566622,408" id="Fill-407" fill="#373B3D"></path>
            <polyline id="Fill-408" fill="#969794" points="43 398 47 394 45.4873752 394 43 396.486645 43 398"></polyline>
            <polyline id="Fill-409" fill="#969794" points="44.8622682 408 49 403.86182 49 402 43 408 44.8622682 408"></polyline>
            <path d="M49,397 L42,403.710526 L42,406.614293 C42,406.751032 42.0296097,406.881321 42.0820996,407 L49,400.368163 L49,397" id="Fill-410" fill="#969794"></path>
            <path d="M65,426 L53,426 L53,392.009729 C53,390.900205 53.8865933,390 54.9793398,390 L65,390 L65,426" id="Fill-411" fill="#A9333D"></path>
            <path d="M61.3556324,408 L57.6443676,408 C56.7360631,408 56,407.24077 56,406.303877 L56,394.696123 C56,393.75923 56.7360631,393 57.6443676,393 L61.3556324,393 C62.2639369,393 63,393.75923 63,394.696123 L63,406.303877 C63,407.24077 62.2639369,408 61.3556324,408" id="Fill-412" fill="#373B3D"></path>
            <polyline id="Fill-413" fill="#969794" points="56 398 60 394 58.4866451 394 56 396.486645 56 398"></polyline>
            <polyline id="Fill-414" fill="#969794" points="58.8618199 408 63 403.86182 63 402 57 408 58.8618199 408"></polyline>
            <g id="Group-419" transform="translate(0.000000, 379.000000)">
                <mask id="mask-10" fill="white">
                    <use xlink:href="#path-9"></use>
                </mask>
                <g id="Clip-416"></g>
                <path d="M62.5842717,17.96445 L55.6294239,24.98715 L55.6294239,28.026 C55.6294239,28.1691 55.658837,28.30545 55.7109783,28.42965 L62.5842717,21.4893 L62.5842717,17.96445" id="Fill-415" fill="#969794" mask="url(#mask-10)"></path>
                <polyline id="Fill-417" fill="#A9333D" mask="url(#mask-10)" points="-17.5515652 47.088 -17.5515652 53.97165 -16.2507065 53.97165 -12.7826413 48.1302 14.7386087 48.1302 18.2066739 53.97165 87.0733043 53.97165 90.5427065 48.1302 118.06262 48.1302 121.532022 53.97165 122.814163 53.97165 122.814163 47.088 -17.5515652 47.088"></polyline>
                <polygon id="Fill-418" fill="#F3C0BC" mask="url(#mask-10)" points="0 8.20935 122.814163 8.20935 122.814163 0.96255 0 0.96255"></polygon>
            </g>
            <path d="M399.935098,380 L285,380 L285,427.159553 L314.780977,427.159553 L318.266056,433 L381.12507,433 L384.61015,427.159553 L412.254417,427.159553 L415.739497,433 L426,433 L426,406.196302 C426,391.728136 414.330692,380 399.935098,380" id="Fill-420" fill="#DA5352"></path>
            <path d="M393,431.4993 C393,433.985388 390.985075,436 388.5,436 C386.014925,436 384,433.985388 384,431.4993 C384,429.014612 386.014925,427 388.5,427 C390.985075,427 393,429.014612 393,431.4993" id="Fill-421" fill="#272826"></path>
            <path d="M392,431.5 C392,433.432701 390.432701,435 388.5,435 C386.567299,435 385,433.432701 385,431.5 C385,429.567299 386.567299,428 388.5,428 C390.432701,428 392,429.567299 392,431.5" id="Fill-422" fill="#484846"></path>
            <path d="M412,431.4993 C412,433.985388 409.985388,436 407.4993,436 C405.014612,436 403,433.985388 403,431.4993 C403,429.014612 405.014612,427 407.4993,427 C409.985388,427 412,429.014612 412,431.4993" id="Fill-423" fill="#272826"></path>
            <path d="M411,431.5 C411,433.432701 409.433873,435 407.499245,435 C405.566127,435 404,433.432701 404,431.5 C404,429.567299 405.566127,428 407.499245,428 C409.433873,428 411,429.567299 411,431.5" id="Fill-424" fill="#484846"></path>
            <polygon id="Fill-425" fill="#484846" points="393 435 403 435 403 427 393 427"></polygon>
            <polygon id="Fill-426" fill="#272826" points="393 428.919 403 428.919 403 428.081 393 428.081"></polygon>
            <polyline id="Fill-427" fill="#272826" points="403 434.984 393 434.984 395.260363 434.016 400.740933 434.016 403 434.984"></polyline>
            <path d="M407.512834,430.8725 L388.488476,430.8725 C388.218701,430.8725 388,430.7055 388,430.4995 C388,430.2945 388.218701,430.1275 388.488476,430.1275 L407.512834,430.1275 C407.781299,430.1275 408,430.2945 408,430.4995 C408,430.7055 407.781299,430.8725 407.512834,430.8725" id="Fill-428" fill="#272826"></path>
            <path d="M296,431.4993 C296,433.985388 293.985075,436 291.5,436 C289.014925,436 287,433.985388 287,431.4993 C287,429.014612 289.014925,427 291.5,427 C293.985075,427 296,429.014612 296,431.4993" id="Fill-429" fill="#272826"></path>
            <path d="M295,431.5 C295,433.432701 293.432701,435 291.5,435 C289.567299,435 288,433.432701 288,431.5 C288,429.567299 289.567299,428 291.5,428 C293.432701,428 295,429.567299 295,431.5" id="Fill-430" fill="#484846"></path>
            <path d="M315,431.4993 C315,433.985388 312.985388,436 310.5007,436 C308.014612,436 306,433.985388 306,431.4993 C306,429.014612 308.014612,427 310.5007,427 C312.985388,427 315,429.014612 315,431.4993" id="Fill-431" fill="#272826"></path>
            <path d="M314,431.5 C314,433.432701 312.433873,435 310.500755,435 C308.566127,435 307,433.432701 307,431.5 C307,429.567299 308.566127,428 310.500755,428 C312.433873,428 314,429.567299 314,431.5" id="Fill-432" fill="#484846"></path>
            <polygon id="Fill-433" fill="#484846" points="296 435 306 435 306 427 296 427"></polygon>
            <polygon id="Fill-434" fill="#272826" points="296 428.919 306 428.919 306 428.081 296 428.081"></polygon>
            <polyline id="Fill-435" fill="#272826" points="306 434.984 296 434.984 298.260363 434.016 303.740933 434.016 306 434.984"></polyline>
            <path d="M310.512834,430.8725 L291.488476,430.8725 C291.218701,430.8725 291,430.7055 291,430.4995 C291,430.2945 291.218701,430.1275 291.488476,430.1275 L310.512834,430.1275 C310.782609,430.1275 311,430.2945 311,430.4995 C311,430.7055 310.782609,430.8725 310.512834,430.8725" id="Fill-436" fill="#272826"></path>
            <path d="M420.86169,421.827919 C417.404814,419.247883 415.172751,415.963969 414.530798,413 L285,413 L285,416.065072 L412.258446,416.065072 C413.340902,418.28293 415.184838,420.519984 417.688186,422.388462 C420.380897,424.397716 423.328777,425.613507 426,426 L426,424.631916 C424.272905,424.002264 422.517607,423.064186 420.86169,421.827919" id="Fill-437" fill="#F3C0BC"></path>
            <path d="M424,423.000789 C424,424.656669 423.552065,426 423.000582,426 C422.447935,426 422,424.656669 422,423.000789 C422,421.343331 422.447935,420 423.000582,420 C423.552065,420 424,421.343331 424,423.000789" id="Fill-438" fill="#E9AE5B"></path>
            <polyline id="Fill-439" fill="#A9333D" points="318.266056 433 381.126413 433 384.61015 427.059816 412.254417 427.059816 415.739497 433 426 433 426 426 285 426 285 427.059816 314.780977 427.059816 318.266056 433"></polyline>
            <polygon id="Fill-440" fill="#1E201E" points="334 426 359 426 359 390 334 390"></polygon>
            <polygon id="Fill-441" fill="#1E201E" points="287 408 332 408 332 390 287 390"></polygon>
            <polygon id="Fill-442" fill="#1E201E" points="362 408 386 408 386 390 362 390"></polygon>
            <path d="M305.042796,407 L291.957204,407 C290.324432,407 289,405.576721 289,403.82209 L289,394.176512 C289,392.42188 290.324432,391 291.957204,391 L305.042796,391 C306.675568,391 308,392.42188 308,394.176512 L308,403.82209 C308,405.576721 306.675568,407 305.042796,407" id="Fill-443" fill="#373B3D"></path>
            <polyline id="Fill-444" fill="#969794" points="288 398 295 391 292.774006 391 288 395.772599 288 398"></polyline>
            <polyline id="Fill-445" fill="#969794" points="304.08302 407 308 403.08302 308 399 300 407 304.08302 407"></polyline>
            <path d="M306.431468,391 L298.297488,391 L289,400.830129 L289,405.01468 C289,406.1108 289.840899,407 290.877479,407 L291.966946,407 L307,391.102062 C306.820185,391.041943 306.631115,391 306.431468,391" id="Fill-446" fill="#969794"></path>
            <path d="M326.043895,407 L312.956105,407 C311.323221,407 310,405.576721 310,403.82209 L310,394.176512 C310,392.42188 311.323221,391 312.956105,391 L326.043895,391 C327.676779,391 329,392.42188 329,394.176512 L329,403.82209 C329,405.576721 327.676779,407 326.043895,407" id="Fill-447" fill="#373B3D"></path>
            <polyline id="Fill-448" fill="#969794" points="310 398 317 391 314.772599 391 310 395.772599 310 398"></polyline>
            <polyline id="Fill-449" fill="#969794" points="325.08238 407 329 403.08302 329 399 321 407 325.08238 407"></polyline>
            <path d="M327.430145,391 L319.296166,391 L310,400.830129 L310,405.01468 C310,406.1108 310.840899,407 311.877479,407 L312.965624,407 L328,391.102062 C327.818863,391.041943 327.629793,391 327.430145,391" id="Fill-450" fill="#969794"></path>
            <path d="M380.043895,407 L366.956105,407 C365.323221,407 364,405.576721 364,403.82209 L364,394.176512 C364,392.42188 365.323221,391 366.956105,391 L380.043895,391 C381.676779,391 383,392.42188 383,394.176512 L383,403.82209 C383,405.576721 381.676779,407 380.043895,407" id="Fill-451" fill="#373B3D"></path>
            <polyline id="Fill-452" fill="#969794" points="364 398 371 391 368.772599 391 364 395.772599 364 398"></polyline>
            <polyline id="Fill-453" fill="#969794" points="379.08238 407 383 403.08302 383 399 375 407 379.08238 407"></polyline>
            <path d="M381.430145,391 L373.296166,391 L364,400.830129 L364,405.01468 C364,406.1108 364.840899,407 365.877479,407 L366.966946,407 L382,391.102062 C381.818863,391.041943 381.631115,391 381.430145,391" id="Fill-454" fill="#969794"></path>
            <path d="M334,426 L346,426 L346,392.009729 C346,390.900205 345.114655,390 344.021786,390 L334,390 L334,426" id="Fill-455" fill="#A9333D"></path>
            <path d="M342.356662,408 L338.643338,408 C337.736205,408 337,407.24077 337,406.303877 L337,394.696123 C337,393.75923 337.736205,393 338.643338,393 L342.356662,393 C343.265141,393 344,393.75923 344,394.696123 L344,406.303877 C344,407.24077 343.265141,408 342.356662,408" id="Fill-456" fill="#373B3D"></path>
            <polyline id="Fill-457" fill="#969794" points="337 398 341 394 339.486645 394 337 396.486645 337 398"></polyline>
            <polyline id="Fill-458" fill="#969794" points="339.862268 408 344 403.86182 344 402 338 408 339.862268 408"></polyline>
            <path d="M344,397 L337,403.710526 L337,406.614293 C337,406.751032 337.02961,406.881321 337.0821,407 L344,400.368163 L344,397" id="Fill-459" fill="#969794"></path>
            <path d="M359,426 L347,426 L347,392.009729 C347,390.900205 347.886593,390 348.97934,390 L359,390 L359,426" id="Fill-460" fill="#A9333D"></path>
            <path d="M354.355632,408 L350.644368,408 C349.736063,408 349,407.24077 349,406.303877 L349,394.696123 C349,393.75923 349.736063,393 350.644368,393 L354.355632,393 C355.263937,393 356,393.75923 356,394.696123 L356,406.303877 C356,407.24077 355.263937,408 354.355632,408" id="Fill-461" fill="#373B3D"></path>
            <polyline id="Fill-462" fill="#969794" points="350 398 354 394 352.486645 394 350 396.486645 350 398"></polyline>
            <polyline id="Fill-463" fill="#969794" points="351.86182 408 356 403.86182 356 402 350 408 351.86182 408"></polyline>
            <path d="M356,397 L349,403.710526 L349,406.614293 C349,406.751032 349.029604,406.881321 349.083429,407 L356,400.368163 L356,397" id="Fill-464" fill="#969794"></path>
            <path d="M401.054657,424 L393.945343,424 C392.317894,424 391,422.619109 391,420.916921 L391,393.083079 C391,391.380891 392.317894,390 393.945343,390 L401.054657,390 C402.6808,390 404,391.380891 404,393.083079 L404,420.916921 C404,422.619109 402.6808,424 401.054657,424" id="Fill-465" fill="#A9333D"></path>
            <path d="M399.356978,408 L395.644368,408 C394.736063,408 394,407.24077 394,406.303877 L394,394.696123 C394,393.75923 394.736063,393 395.644368,393 L399.356978,393 C400.263937,393 401,393.75923 401,394.696123 L401,406.303877 C401,407.24077 400.263937,408 399.356978,408" id="Fill-466" fill="#373B3D"></path>
            <polyline id="Fill-467" fill="#969794" points="395 398 399 394 397.486645 394 395 396.486645 395 398"></polyline>
            <polyline id="Fill-468" fill="#969794" points="397.860824 408 402 403.86182 402 402 396 408 397.860824 408"></polyline>
            <path d="M401,397 L394,403.710526 L394,406.614293 C394,406.751032 394.029604,406.881321 394.083429,407 L401,400.368163 L401,397" id="Fill-469" fill="#969794"></path>
            <path d="M418,387 C413.319542,382.666729 406.984865,380 400.003819,380 L285,380 L285,387 L418,387" id="Fill-470" fill="#F3C0BC"></path>
            <path d="M423.934133,406.457251 L423.934133,413 L426,413 L426,405.561671 C426,396.635676 421.560209,388.752943 414.778922,384 L410,384 C418.287789,388.270604 423.934133,396.722388 423.934133,406.457251" id="Fill-471" fill="#373B3D"></path>
        </g>
    </g>
</svg>